{
.appVersion = "939";
DisplayStrings = (
"0/lozenge III/Placeholder III0/Placeholder 00I/zero.tf/Placeholder/zero.tf"
);
classes = (
{
automatic = 1;
code = "A Aacute Abreve Acircumflex Adblgrave Adieresis Agrave Ainvertedbreve Amacron Aogonek Aring Aringacute Atilde AE AEacute B C Cacute Ccaron Ccedilla Ccircumflex Cdotaccent D DZ DZcaron Eth Dcaron Dcroat Ddotbelow Dz Dzcaron E Eacute Ebreve Ecaron Ecircumflex Edblgrave Edieresis Edotaccent Edotbelow Egrave Einvertedbreve Emacron Eogonek Etilde F G Gacute Gbreve Gcircumflex Gcommaaccent Gdotaccent H Hbar Hcircumflex Hdotbelow I IJ Iacute Ibreve Icircumflex Idblgrave Idieresis Idotaccent Idotbelow Igrave Iinvertedbreve Imacron Iogonek Itilde J Jcircumflex K Kcommaaccent L LJ Lacute Lcaron Lcommaaccent Ldot Lj Lslash M N NJ Nacute Ncaron Ncommaaccent Ndotaccent Eng Nj Ntilde O Oacute Obreve Ocircumflex Odblgrave Odieresis Odotbelow Ograve Ohungarumlaut Oinvertedbreve Omacron Oogonek Oslash Oslashacute Otilde OE P Thorn Q R Racute Rcaron Rcommaaccent Rdblgrave Rdotbelow Rinvertedbreve S Sacute Scaron Scedilla Scircumflex Scommaaccent Sdotbelow Schwa T Tbar Tcaron Tcedilla Tcommaaccent Tdotbelow U Uacute Ubreve Ucircumflex Udblgrave Udieresis Udotbelow Ugrave Uhungarumlaut Uinvertedbreve Umacron Uogonek Uring Utilde V W Wacute Wcircumflex Wdieresis Wgrave X Y Yacute Ycircumflex Ydieresis Ygrave Ytilde Z Zacute Zcaron Zdotaccent Zdotbelow Iacute_J.loclNLD Delta Omega";
name = Uppercase;
}
);
copyright = "Copyright (c) 2012, Impallari Type (www.impallari.com), with Reserved Font Name Encode Sans.";
customParameters = (
{
name = note;
value = "520,0.18,0.05,0";
},
{
name = openTypeHeadLowestRecPPEM;
value = 9;
},
{
name = openTypeNameCompatibleFullName;
value = "EncodeCondensedMaster Thin";
},
{
name = description;
value = "The Encode Sans family of fonts is a versatile workhorse.\012Featuring a huge range of weights and widths, it's ready for all kind of typographic challenges.";
},
{
name = openTypeNameLicense;

glyphs = (
{
color = 3;
glyphname = A;
lastChange = "2016-11-10 14:32:16 +0000";
layers = (
{
anchors = (
{
name = bottom;
position = "{281, 0}";
},
{
name = ogonek;
position = "{550, 0}";
},
{
name = top;
position = "{281, 760}";
}
);
background = {
paths = (
{
closed = 1;
nodes = (
"433 297 LINE",
"128 297 LINE",
"128 264 LINE",
"433 264 LINE"
);
},
{
closed = 1;
nodes = (
"257 740 LINE",
"23 0 LINE",
"59 0 LINE",
"284 720 LINE",
"276 720 LINE",
"501 0 LINE",
"538 0 LINE",
"304 740 LINE"
);
}
);
};
color = 4;
layerId = "ECFF4977-BDCC-4836-B4AC-1801CF0EB460";
paths = (
{
closed = 1;
nodes = (
"430 297 LINE",
"131 297 LINE",
"121 264 LINE",
"440 264 LINE"
);
},
{
closed = 1;
nodes = (
"259 740 LINE",
"11 0 LINE",
"47 0 LINE",
"286 720 LINE",
"274 720 LINE",
"513 0 LINE",
"550 0 LINE",
"302 740 LINE"
);
}
);
width = 561;
},
{
anchors = (
{
name = ogonek;
position = "{648, 7}";
},
{
name = top;
position = "{324, 805}";
}
);
background = {
anchors = (
{
name = ogonek;
position = "{648, 7}";
},
{
name = topUC;
position = "{324, 805}";
}
);
paths = (
{
closed = 1;
nodes = (
"-4 0 LINE",
"179 0 LINE",
"216 159 LINE",
"427 159 LINE",
"465 0 LINE",
"648 0 LINE",
"648 7 LINE",
"471 740 LINE",
"173 740 LINE",
"-4 7 LINE"
);
},
{
closed = 1;
nodes = (
"252 314 LINE",
"292 490 LINE",
"316 598 LINE",
"328 598 LINE",
"352 490 LINE",
"391 314 LINE"
);
}
);
};
layerId = "C8FFBC04-9D7C-494A-A42D-BACB8E26599D";
paths = (
{
closed = 1;
nodes = (
"179 0 LINE",
"216 159 LINE",
"427 159 LINE",
"465 0 LINE",
"648 0 LINE",
"648 7 LINE",
"471 740 LINE",
"173 740 LINE",
"-4 7 LINE",
"-4 0 LINE"
);
},
{
closed = 1;
nodes = (
"292 490 LINE",
"316 598 LINE",
"328 598 LINE",
"352 490 LINE",
"391 314 LINE",
"252 314 LINE"
);
}
);
width = 644;
},
{
anchors = (
{
name = bottom;
position = "{348, 0}";
},
{
name = ogonek;
position = "{684, 0}";
},
{
name = top;
position = "{348, 760}";
}
);
background = {
anchors = (
{
name = ogonek;
position = "{675, 5}";
},
{
name = topUC;
position = "{349, 760}";
}
);
paths = (
{
closed = 1;
nodes = (
"19 0 LINE",
"55 0 LINE",
"156 249 LINE",
"538 249 LINE",
"639 0 LINE",
"675 0 LINE",
"675 5 LINE",
"376 740 LINE",
"318 740 LINE",
"19 5 LINE"
);
},
{
closed = 1;
nodes = (
"170 283 LINE",
"296 594 LINE",
"345 714 LINE",
"349 714 LINE",
"398 594 LINE",
"524 283 LINE"
);
}
);
};
color = 4;
layerId = "E28BEEB5-BD92-4E7A-B4EA-FC5E5BBBF580";
paths = (
{
closed = 1;
nodes = (
"537 297 LINE",
"158 297 LINE",
"148 264 LINE",
"547 264 LINE"
);
},
{
closed = 1;
nodes = (
"326 740 LINE",
"11 0 LINE",
"48 0 LINE",
"353 720 LINE",
"341 720 LINE",
"646 0 LINE",
"684 0 LINE",
"369 740 LINE"
);
}
);
width = 695;
},
{
anchors = (
{
name = ogonek;
position = "{745, 54}";
},
{
name = top;
position = "{412, 885}";
}
);
background = {
anchors = (
{
name = ogonek;
position = "{745, 54}";
},
{
name = topUC;
position = "{412, 885}";
}
);
paths = (
{
closed = 1;
nodes = (
"-5 0 LINE",
"223 0 LINE",
"269 148 LINE",
"555 148 LINE",
"602 0 LINE",
"830 0 LINE",
"830 12 LINE",
"585 740 LINE",
"240 740 LINE",
"-5 12 LINE"
);
},
{
closed = 1;
nodes = (
"324 324 LINE",
"351 410 LINE",
"402 583 LINE",
"422 583 LINE",
"473 412 LINE",
"501 324 LINE"
);
}
);
};
layerId = "1E90A949-97C4-49F5-AA9A-AF35B6FD63CF";
paths = (
{
closed = 1;
nodes = (
"223 0 LINE",
"269 148 LINE",
"555 148 LINE",
"602 0 LINE",
"830 0 LINE",
"830 12 LINE",
"585 740 LINE",
"240 740 LINE",
"-5 12 LINE",
"-5 0 LINE"
);
},
{
closed = 1;
nodes = (
"351 410 LINE",
"402 583 LINE",
"422 583 LINE",
"473 412 LINE",
"501 324 LINE",
"324 324 LINE"
);
}
);
width = 825;
}
);
leftKerningGroup = KERN_A;
note = "\012    520\012  ";
rightKerningGroup = KERN_A;
unicode = 0041;
userData = {
com.typemytype.robofont.layerData = {
};
};
},
{
glyphname = Aringacute;
lastChange = "2016-11-03 22:58:24 +0000";
layers = (
{
background = {
paths = (
{
closed = 1;
nodes = (
"11 0 LINE",
"44 0 LINE",
"122 249 LINE",
"399 249 LINE",
"477 0 LINE",
"510 0 LINE",
"510 6 LINE",
"313 636 LINE",
"336 654 OFFCURVE",
"348 684 OFFCURVE",
"348 718 CURVE SMOOTH",
"348 764 OFFCURVE",
"326 803 OFFCURVE",
"284 814 CURVE",
"349 910 LINE",
"311 910 LINE",
"245 817 LINE",
"196 811 OFFCURVE",
"171 768 OFFCURVE",
"171 718 CURVE SMOOTH",
"171 683 OFFCURVE",
"183 652 OFFCURVE",
"207 634 CURVE",
"11 6 LINE"
);
},
{
closed = 1;
nodes = (
"259 652 CURVE SMOOTH",
"224 652 OFFCURVE",
"205 681 OFFCURVE",
"205 718 CURVE SMOOTH",
"205 755 OFFCURVE",
"223 784 OFFCURVE",
"259 784 CURVE SMOOTH",
"295 784 OFFCURVE",
"314 755 OFFCURVE",
"314 718 CURVE SMOOTH",
"314 681 OFFCURVE",
"294 652 OFFCURVE"
);
},
{
closed = 1;
nodes = (
"132 283 LINE",
"227 586 LINE",
"237 621 LINE",
"284 621 LINE",
"294 586 LINE",
"388 283 LINE"
);
}
);
};
color = -1;
layerId = "ECFF4977-BDCC-4836-B4AC-1801CF0EB460";
paths = (
{
closed = 1;
nodes = (
"44 0 LINE",
"122 249 LINE",
"399 249 LINE",
"477 0 LINE",
"510 0 LINE",
"510 6 LINE",
"313 636 LINE",
"336 654 OFFCURVE",
"348 684 OFFCURVE",
"348 718 CURVE SMOOTH",
"348 764 OFFCURVE",
"326 803 OFFCURVE",
"284 814 CURVE",
"349 910 LINE",
"311 910 LINE",
"245 817 LINE",
"196 811 OFFCURVE",
"171 768 OFFCURVE",
"171 718 CURVE SMOOTH",
"171 683 OFFCURVE",
"183 652 OFFCURVE",
"207 634 CURVE",
"11 6 LINE",
"11 0 LINE"
);
},
{
closed = 1;
nodes = (
"227 586 LINE",
"237 621 LINE",
"284 621 LINE",
"294 586 LINE",
"388 283 LINE",
"132 283 LINE"
);
},
{
closed = 1;
nodes = (
"224 652 OFFCURVE",
"205 681 OFFCURVE",
"205 718 CURVE SMOOTH",
"205 755 OFFCURVE",
"223 784 OFFCURVE",
"259 784 CURVE SMOOTH",
"295 784 OFFCURVE",
"314 755 OFFCURVE",
"314 718 CURVE SMOOTH",
"314 681 OFFCURVE",
"294 652 OFFCURVE",
"259 652 CURVE SMOOTH"
);
}
);
width = 521;
},
{
background = {
paths = (
{
closed = 1;
nodes = (
"-5 0 LINE",
"178 0 LINE",
"214 156 LINE",
"427 156 LINE",
"464 0 LINE",
"647 0 LINE",
"647 7 LINE",
"472 681 LINE",
"486 703 OFFCURVE",
"493 730 OFFCURVE",
"493 760 CURVE SMOOTH",
"493 817 OFFCURVE",
"466 863 OFFCURVE",
"421 889 CURVE",
"509 1030 LINE",
"315 1030 LINE",
"274 911 LINE",
"195 896 OFFCURVE",
"146 839 OFFCURVE",
"146 760 CURVE SMOOTH",
"146 728 OFFCURVE",
"154 701 OFFCURVE",
"169 677 CURVE",
"-5 7 LINE"
);
},
{
closed = 1;
nodes = (
"319 694 CURVE SMOOTH",
"278 694 OFFCURVE",
"250 720 OFFCURVE",
"250 760 CURVE SMOOTH",
"250 800 OFFCURVE",
"277 826 OFFCURVE",
"319 826 CURVE SMOOTH",
"361 826 OFFCURVE",
"389 800 OFFCURVE",
"389 760 CURVE SMOOTH",
"389 721 OFFCURVE",
"361 694 OFFCURVE"
);
},
{
closed = 1;
nodes = (
"252 318 LINE",
"291 490 LINE",
"313 598 LINE",
"329 598 LINE",
"351 490 LINE",
"389 318 LINE"
);
}
);
};
layerId = "C8FFBC04-9D7C-494A-A42D-BACB8E26599D";
paths = (
{
closed = 1;
nodes = (
"178 0 LINE",
"214 156 LINE",
"427 156 LINE",
"464 0 LINE",
"647 0 LINE",
"647 7 LINE",
"472 681 LINE",
"486 703 OFFCURVE",
"493 730 OFFCURVE",
"493 760 CURVE SMOOTH",
"493 817 OFFCURVE",
"466 863 OFFCURVE",
"421 889 CURVE",
"509 1030 LINE",
"315 1030 LINE",
"274 911 LINE",
"195 896 OFFCURVE",
"146 839 OFFCURVE",
"146 760 CURVE SMOOTH",
"146 728 OFFCURVE",
"154 701 OFFCURVE",
"169 677 CURVE",
"-5 7 LINE",
"-5 0 LINE"
);
},
{
closed = 1;
nodes = (
"291 490 LINE",
"313 598 LINE",
"329 598 LINE",
"351 490 LINE",
"389 318 LINE",
"252 318 LINE"
);
},
{
closed = 1;
nodes = (
"278 694 OFFCURVE",
"250 720 OFFCURVE",
"250 760 CURVE SMOOTH",
"250 800 OFFCURVE",
"277 826 OFFCURVE",
"319 826 CURVE SMOOTH",
"361 826 OFFCURVE",
"389 800 OFFCURVE",
"389 760 CURVE SMOOTH",
"389 721 OFFCURVE",
"361 694 OFFCURVE",
"319 694 CURVE SMOOTH"
);
}
);
width = 642;
},
{
background = {
paths = (
{
closed = 1;
nodes = (
"13 0 LINE",
"49 0 LINE",
"150 249 LINE",
"532 249 LINE",
"633 0 LINE",
"669 0 LINE",
"669 5 LINE",
"401 664 LINE",
"435 682 OFFCURVE",
"457 715 OFFCURVE",
"457 754 CURVE SMOOTH",
"457 807 OFFCURVE",
"418 849 OFFCURVE",
"363 859 CURVE",
"431 960 LINE",
"393 960 LINE",
"322 860 LINE",
"262 853 OFFCURVE",
"219 810 OFFCURVE",
"219 754 CURVE SMOOTH",
"219 713 OFFCURVE",
"243 679 OFFCURVE",
"280 661 CURVE",
"13 5 LINE"
);
},
{
closed = 1;
nodes = (
"339 683 CURVE SMOOTH",
"287 683 OFFCURVE",
"254 710 OFFCURVE",
"254 754 CURVE SMOOTH",
"254 799 OFFCURVE",
"287 827 OFFCURVE",
"339 827 CURVE SMOOTH",
"390 827 OFFCURVE",
"422 799 OFFCURVE",
"422 754 CURVE SMOOTH",
"422 710 OFFCURVE",
"390 683 OFFCURVE"
);
},
{
closed = 1;
nodes = (
"164 283 LINE",
"290 594 LINE",
"313 651 LINE",
"368 652 LINE",
"392 594 LINE",
"518 283 LINE"
);
}
);
};
color = -1;
layerId = "E28BEEB5-BD92-4E7A-B4EA-FC5E5BBBF580";
paths = (
{
closed = 1;
nodes = (
"49 0 LINE",
"150 249 LINE",
"532 249 LINE",
"633 0 LINE",
"669 0 LINE",
"669 5 LINE",
"401 664 LINE",
"435 682 OFFCURVE",
"457 715 OFFCURVE",
"457 754 CURVE SMOOTH",
"457 807 OFFCURVE",
"418 849 OFFCURVE",
"363 859 CURVE",
"431 960 LINE",
"393 960 LINE",
"322 860 LINE",
"262 853 OFFCURVE",
"219 810 OFFCURVE",
"219 754 CURVE SMOOTH",
"219 713 OFFCURVE",
"243 679 OFFCURVE",
"280 661 CURVE",
"13 5 LINE",
"13 0 LINE"
);
},
{
closed = 1;
nodes = (
"290 594 LINE",
"313 651 LINE",
"368 652 LINE",
"392 594 LINE",
"518 283 LINE",
"164 283 LINE"
);
},
{
closed = 1;
nodes = (
"287 683 OFFCURVE",
"254 710 OFFCURVE",
"254 754 CURVE SMOOTH",
"254 799 OFFCURVE",
"287 827 OFFCURVE",
"339 827 CURVE SMOOTH",
"390 827 OFFCURVE",
"422 799 OFFCURVE",
"422 754 CURVE SMOOTH",
"422 710 OFFCURVE",
"390 683 OFFCURVE",
"339 683 CURVE SMOOTH"
);
}
);
width = 682;
},
{
background = {
paths = (
{
closed = 1;
nodes = (
"-5 0 LINE",
"223 0 LINE",
"267 142 LINE",
"557 142 LINE",
"602 0 LINE",
"830 0 LINE",
"830 12 LINE",
"606 675 LINE",
"626 699 OFFCURVE",
"638 728 OFFCURVE",
"638 760 CURVE SMOOTH",
"638 821 OFFCURVE",
"598 869 OFFCURVE",
"533 895 CURVE",
"622 1030 LINE",
"387 1030 LINE",
"348 909 LINE",
"254 891 OFFCURVE",
"196 836 OFFCURVE",
"196 760 CURVE SMOOTH",
"196 731 OFFCURVE",
"204 705 OFFCURVE",
"220 683 CURVE",
"-5 12 LINE"
);
},
{
closed = 1;
nodes = (
"414 704 CURVE SMOOTH",
"364 704 OFFCURVE",
"330 726 OFFCURVE",
"330 760 CURVE SMOOTH",
"330 794 OFFCURVE",
"363 816 OFFCURVE",
"414 816 CURVE SMOOTH",
"468 816 OFFCURVE",
"504 794 OFFCURVE",
"504 760 CURVE SMOOTH",
"504 727 OFFCURVE",
"468 704 OFFCURVE"
);
},
{
closed = 1;
nodes = (
"325 328 LINE",
"351 410 LINE",
"402 583 LINE",
"422 583 LINE",
"473 412 LINE",
"499 328 LINE"
);
}
);
};
layerId = "1E90A949-97C4-49F5-AA9A-AF35B6FD63CF";
paths = (
{
closed = 1;
nodes = (
"223 0 LINE",
"267 142 LINE",
"557 142 LINE",
"602 0 LINE",
"830 0 LINE",
"830 12 LINE",
"606 675 LINE",
"626 699 OFFCURVE",
"638 728 OFFCURVE",
"638 760 CURVE SMOOTH",
"638 821 OFFCURVE",
"598 869 OFFCURVE",
"533 895 CURVE",
"622 1030 LINE",
"387 1030 LINE",
"348 909 LINE",
"254 891 OFFCURVE",
"196 836 OFFCURVE",
"196 760 CURVE SMOOTH",
"196 731 OFFCURVE",
"204 705 OFFCURVE",
"220 683 CURVE",
"-5 12 LINE",
"-5 0 LINE"
);
},
{
closed = 1;
nodes = (
"351 410 LINE",
"402 583 LINE",
"422 583 LINE",
"473 412 LINE",
"499 328 LINE",
"325 328 LINE"
);
},
{
closed = 1;
nodes = (
"364 704 OFFCURVE",
"330 726 OFFCURVE",
"330 760 CURVE SMOOTH",
"330 794 OFFCURVE",
"363 816 OFFCURVE",
"414 816 CURVE SMOOTH",
"468 816 OFFCURVE",
"504 794 OFFCURVE",
"504 760 CURVE SMOOTH",
"504 727 OFFCURVE",
"468 704 OFFCURVE",
"414 704 CURVE SMOOTH"
);
}
);
width = 825;
}
);
leftKerningGroup = KERN_A;
rightKerningGroup = KERN_A;
unicode = 01FA;
},
{
color = 3;
glyphname = AE;
lastChange = "2016-11-10 14:34:45 +0000";
layers = (
{
anchors = (
{
name = bottom;
position = "{424, 0}";
},
{
name = top;
position = "{393, 760}";
}
);
background = {
anchors = (
{
name = topUC;
position = "{480, 760}";
}
);
paths = (
{
closed = 1;
nodes = (
"734 0 LINE",
"734 33 LINE",
"394 33 LINE",
"394 707 LINE",
"729 707 LINE",
"729 740 LINE",
"360 740 LINE",
"360 0 LINE"
);
},
{
closed = 1;
nodes = (
"684 364 LINE",
"684 397 LINE",
"390 397 LINE",
"390 364 LINE"
);
},
{
closed = 1;
nodes = (
"436 297 LINE",
"137 297 LINE",
"127 264 LINE",
"446 264 LINE"
);
},
{
closed = 1;
nodes = (
"265 740 LINE",
"17 0 LINE",
"53 0 LINE",
"292 720 LINE",
"280 720 LINE",
"519 0 LINE",
"556 0 LINE",
"308 740 LINE"
);
}
);
};
color = 4;
layerId = "ECFF4977-BDCC-4836-B4AC-1801CF0EB460";
paths = (
{
closed = 1;
nodes = (
"47 0 LINE",
"288 707 LINE",
"397 707 LINE",
"397 740 LINE",
"265 740 LINE",
"11 0 LINE"
);
},
{
closed = 1;
nodes = (
"410 264 LINE",
"410 297 LINE",
"132 297 LINE",
"122 264 LINE"
);
},
{
closed = 1;
nodes = (
"754 0 LINE",
"754 33 LINE",
"440 33 LINE",
"410 707 LINE",
"749 707 LINE",
"749 740 LINE",
"375 740 LINE",
"407 0 LINE"
);
},
{
closed = 1;
nodes = (
"704 364 LINE",
"704 397 LINE",
"416 397 LINE",
"416 364 LINE"
);
}
);
width = 784;
},
{
anchors = (
{
name = top;
position = "{490, 805}";
}
);
background = {
anchors = (
{
name = topUC;
position = "{490, 805}";
}
);
paths = (
{
closed = 1;
nodes = (
"419 0 LINE",
"821 0 LINE",
"821 162 LINE",
"607 162 LINE",
"577 578 LINE",
"812 578 LINE",
"812 740 LINE",
"389 740 LINE"
);
},
{
closed = 1;
nodes = (
"-4 0 LINE",
"196 0 LINE",
"358 593 LINE",
"399 593 LINE",
"526 740 LINE",
"206 740 LINE",
"-4 6 LINE"
);
},
{
closed = 1;
nodes = (
"155 156 LINE",
"510 156 LINE",
"510 318 LINE",
"155 318 LINE"
);
},
{
closed = 1;
nodes = (
"528 289 LINE",
"804 289 LINE",
"804 451 LINE",
"528 451 LINE"
);
}
);
};
layerId = "C8FFBC04-9D7C-494A-A42D-BACB8E26599D";
paths = (
{
closed = 1;
nodes = (
"196 0 LINE",
"358 593 LINE",
"399 593 LINE",
"526 740 LINE",
"206 740 LINE",
"-4 6 LINE",
"-4 0 LINE"
);
},
{
closed = 1;
nodes = (
"510 156 LINE",
"510 318 LINE",
"155 318 LINE",
"155 156 LINE"
);
},
{
closed = 1;
nodes = (
"821 0 LINE",
"821 162 LINE",
"607 162 LINE",
"577 578 LINE",
"812 578 LINE",
"812 740 LINE",
"389 740 LINE",
"419 0 LINE"
);
},
{
closed = 1;
nodes = (
"804 289 LINE",
"804 451 LINE",
"528 451 LINE",
"528 289 LINE"
);
}
);
width = 847;
},
{
anchors = (
{
name = bottom;
position = "{512, 0}";
},
{
name = top;
position = "{452, 760}";
}
);
background = {
anchors = (
{
name = topUC;
position = "{574, 760}";
}
);
paths = (
{
closed = 1;
nodes = (
"945 0 LINE",
"945 33 LINE",
"499 33 LINE",
"499 707 LINE",
"940 707 LINE",
"940 740 LINE",
"465 740 LINE",
"465 0 LINE"
);
},
{
closed = 1;
nodes = (
"890 364 LINE",
"890 397 LINE",
"495 397 LINE",
"495 364 LINE"
);
},
{
closed = 1;
nodes = (
"592 297 LINE",
"213 297 LINE",
"203 264 LINE",
"602 264 LINE"
);
},
{
closed = 1;
nodes = (
"381 740 LINE",
"66 0 LINE",
"103 0 LINE",
"408 720 LINE",
"396 720 LINE",
"701 0 LINE",
"739 0 LINE",
"424 740 LINE"
);
}
);
};
color = 4;
layerId = "E28BEEB5-BD92-4E7A-B4EA-FC5E5BBBF580";
paths = (
{
closed = 1;
nodes = (
"48 0 LINE",
"352 707 LINE",
"445 707 LINE",
"447 740 LINE",
"331 740 LINE",
"11 0 LINE"
);
},
{
closed = 1;
nodes = (
"494 264 LINE",
"494 297 LINE",
"163 297 LINE",
"153 264 LINE"
);
},
{
closed = 1;
nodes = (
"915 0 LINE",
"915 33 LINE",
"528 33 LINE",
"470 707 LINE",
"910 707 LINE",
"910 740 LINE",
"434 740 LINE",
"496 0 LINE"
);
},
{
closed = 1;
nodes = (
"860 364 LINE",
"860 397 LINE",
"490 397 LINE",
"490 364 LINE"
);
}
);
width = 953;
},
{
anchors = (
{
name = top;
position = "{645, 885}";
}
);
background = {
anchors = (
{
name = topUC;
position = "{645, 885}";
}
);
paths = (
{
closed = 1;
nodes = (
"533 0 LINE",
"1089 0 LINE",
"1089 176 LINE",
"768 176 LINE",
"738 564 LINE",
"1069 564 LINE",
"1069 740 LINE",
"503 740 LINE"
);
},
{
closed = 1;
nodes = (
"-5 0 LINE",
"223 0 LINE",
"482 583 LINE",
"588 583 LINE",
"588 740 LINE",
"320 740 LINE",
"-5 12 LINE"
);
},
{
closed = 1;
nodes = (
"184 142 LINE",
"613 142 LINE",
"613 328 LINE",
"184 328 LINE"
);
},
{
closed = 1;
nodes = (
"647 282 LINE",
"1059 282 LINE",
"1059 458 LINE",
"647 458 LINE"
);
}
);
};
layerId = "1E90A949-97C4-49F5-AA9A-AF35B6FD63CF";
paths = (
{
closed = 1;
nodes = (
"223 0 LINE",
"482 583 LINE",
"588 583 LINE",
"588 740 LINE",
"320 740 LINE",
"-5 12 LINE",
"-5 0 LINE"
);
},
{
closed = 1;
nodes = (
"613 142 LINE",
"613 328 LINE",
"184 328 LINE",
"184 142 LINE"
);
},
{
closed = 1;
nodes = (
"1089 0 LINE",
"1089 176 LINE",
"768 176 LINE",
"738 564 LINE",
"1069 564 LINE",
"1069 740 LINE",
"503 740 LINE",
"533 0 LINE"
);
},
{
closed = 1;
nodes = (
"1059 282 LINE",
"1059 458 LINE",
"647 458 LINE",
"647 282 LINE"
);
}
);
width = 1125;
}
);
leftKerningGroup = KERN_AE_2ND;
leftMetricsKey = A;
rightKerningGroup = KERN_E_1ST;
rightMetricsKey = E;
unicode = 00C6;
},
{
color = 3;
glyphname = B;
lastChange = "2016-11-10 14:34:56 +0000";
layers = (
{
anchors = (
{
name = bottom;
position = "{284, 0}";
},
{
name = top;
position = "{284, 740}";
}
);
background = {
paths = (
{
closed = 1;
nodes = (
"425 -5 OFFCURVE",
"506 63 OFFCURVE",
"506 195 CURVE SMOOTH",
"506 298 OFFCURVE",
"455 362 OFFCURVE",
"350 385 CURVE",
"350 379 LINE",
"451 409 OFFCURVE",
"485 475 OFFCURVE",
"485 557 CURVE SMOOTH",
"485 687 OFFCURVE",
"412 747 OFFCURVE",
"240 747 CURVE SMOOTH",
"188 747 OFFCURVE",
"137 742 OFFCURVE",
"84 732 CURVE",
"84 2 LINE",
"125 -2 OFFCURVE",
"171 -5 OFFCURVE",
"226 -5 CURVE SMOOTH"
);
},
{
closed = 1;
nodes = (
"187 28 OFFCURVE",
"148 29 OFFCURVE",
"118 33 CURVE",
"118 703 LINE",
"158 711 OFFCURVE",
"196 714 OFFCURVE",
"238 714 CURVE SMOOTH",
"392 714 OFFCURVE",
"449 669 OFFCURVE",
"449 557 CURVE SMOOTH",
"449 456 OFFCURVE",
"402 397 OFFCURVE",
"245 397 CURVE SMOOTH",
"110 397 LINE",
"110 364 LINE",
"265 364 LINE SMOOTH",
"407 364 OFFCURVE",
"470 306 OFFCURVE",
"470 193 CURVE SMOOTH",
"470 80 OFFCURVE",
"404 28 OFFCURVE",
"227 28 CURVE SMOOTH"
);
}
);
};
color = 4;
layerId = "ECFF4977-BDCC-4836-B4AC-1801CF0EB460";
paths = (
{
closed = 1;
nodes = (
"427 -5 OFFCURVE",
"509 63 OFFCURVE",
"509 195 CURVE SMOOTH",
"509 298 OFFCURVE",
"455 372 OFFCURVE",
"332 385 CURVE",
"332 378 LINE",
"452 396 OFFCURVE",
"488 475 OFFCURVE",
"488 557 CURVE SMOOTH",
"488 687 OFFCURVE",
"414 747 OFFCURVE",
"240 747 CURVE SMOOTH",
"176 747 OFFCURVE",
"129 741 OFFCURVE",
"84 734 CURVE",
"84 2 LINE",
"125 -2 OFFCURVE",
"171 -5 OFFCURVE",
"226 -5 CURVE SMOOTH"
);
},
{
closed = 1;
nodes = (
"187 28 OFFCURVE",
"148 29 OFFCURVE",
"118 33 CURVE",
"118 705 LINE",
"156 711 OFFCURVE",
"189 714 OFFCURVE",
"238 714 CURVE SMOOTH",
"394 714 OFFCURVE",
"452 669 OFFCURVE",
"452 557 CURVE SMOOTH",
"452 456 OFFCURVE",
"404 397 OFFCURVE",
"245 397 CURVE SMOOTH",
"110 397 LINE",
"110 364 LINE",
"265 364 LINE SMOOTH",
"409 364 OFFCURVE",
"473 306 OFFCURVE",
"473 193 CURVE SMOOTH",
"473 80 OFFCURVE",
"406 28 OFFCURVE",
"227 28 CURVE SMOOTH"
);
}
);
width = 567;
},
{
background = {
paths = (
{
closed = 1;
nodes = (
"245 -10 CURVE SMOOTH",
"469 -10 OFFCURVE",
"583 63 OFFCURVE",
"583 205 CURVE SMOOTH",
"583 301 OFFCURVE",
"540 361 OFFCURVE",
"459 379 CURVE",
"459 383 LINE",
"530 403 OFFCURVE",
"565 454 OFFCURVE",
"565 537 CURVE SMOOTH",
"565 685 OFFCURVE",
"473 750 OFFCURVE",
"261 750 CURVE SMOOTH",
"204 750 OFFCURVE",
"135 745 OFFCURVE",
"50 735 CURVE",
"50 5 LINE",
"113 -5 OFFCURVE",
"182 -10 OFFCURVE"
);
},
{
closed = 1;
nodes = (
"279 138 CURVE SMOOTH",
"252 138 OFFCURVE",
"240 139 OFFCURVE",
"228 142 CURVE",
"228 300 LINE",
"277 300 LINE SMOOTH",
"356 300 OFFCURVE",
"383 278 OFFCURVE",
"383 216 CURVE SMOOTH",
"383 166 OFFCURVE",
"346 138 OFFCURVE"
);
},
{
closed = 1;
nodes = (
"228 440 LINE",
"228 597 LINE",
"251 600 OFFCURVE",
"268 602 OFFCURVE",
"283 602 CURVE SMOOTH",
"338 602 OFFCURVE",
"365 577 OFFCURVE",
"365 524 CURVE SMOOTH",
"365 460 OFFCURVE",
"343 440 OFFCURVE",
"276 440 CURVE SMOOTH"
);
}
);
};
layerId = "C8FFBC04-9D7C-494A-A42D-BACB8E26599D";
paths = (
{
closed = 1;
nodes = (
"469 -10 OFFCURVE",
"583 63 OFFCURVE",
"583 205 CURVE SMOOTH",
"583 301 OFFCURVE",
"540 361 OFFCURVE",
"459 379 CURVE",
"459 383 LINE",
"530 403 OFFCURVE",
"565 454 OFFCURVE",
"565 537 CURVE SMOOTH",
"565 685 OFFCURVE",
"473 750 OFFCURVE",
"261 750 CURVE SMOOTH",
"204 750 OFFCURVE",
"135 745 OFFCURVE",
"50 735 CURVE",
"50 5 LINE",
"113 -5 OFFCURVE",
"182 -10 OFFCURVE",
"245 -10 CURVE SMOOTH"
);
},
{
closed = 1;
nodes = (
"252 138 OFFCURVE",
"240 139 OFFCURVE",
"228 142 CURVE",
"228 300 LINE",
"277 300 LINE SMOOTH",
"356 300 OFFCURVE",
"383 278 OFFCURVE",
"383 216 CURVE SMOOTH",
"383 166 OFFCURVE",
"346 138 OFFCURVE",
"279 138 CURVE SMOOTH"
);
},
{
closed = 1;
nodes = (
"228 597 LINE",
"251 600 OFFCURVE",
"268 602 OFFCURVE",
"283 602 CURVE SMOOTH",
"338 602 OFFCURVE",
"365 577 OFFCURVE",
"365 524 CURVE SMOOTH",
"365 460 OFFCURVE",
"343 440 OFFCURVE",
"276 440 CURVE SMOOTH",
"228 440 LINE"
);
}
);
width = 605;
},
{
anchors = (
{
name = bottom;
position = "{339, 0}";
},
{
name = top;
position = "{339, 740}";
}
);
background = {
paths = (
{
closed = 1;
nodes = (
"533 -5 OFFCURVE",
"622 66 OFFCURVE",
"622 200 CURVE SMOOTH",
"622 299 OFFCURVE",
"568 372 OFFCURVE",
"433 385 CURVE",
"430 377 LINE",
"552 393 OFFCURVE",
"600 460 OFFCURVE",
"600 553 CURVE SMOOTH",
"600 682 OFFCURVE",
"516 747 OFFCURVE",
"313 747 CURVE SMOOTH",
"236 747 OFFCURVE",
"178 741 OFFCURVE",
"105 727 CURVE",
"105 8 LINE",
"182 -2 OFFCURVE",
"231 -5 OFFCURVE",
"298 -5 CURVE SMOOTH"
);
},
{
closed = 1;
nodes = (
"229 28 OFFCURVE",
"182 32 OFFCURVE",
"139 39 CURVE",
"139 699 LINE",
"189 709 OFFCURVE",
"246 714 OFFCURVE",
"314 714 CURVE SMOOTH",
"494 714 OFFCURVE",
"566 668 OFFCURVE",
"566 553 CURVE SMOOTH",
"566 443 OFFCURVE",
"493 397 OFFCURVE",
"347 397 CURVE SMOOTH",
"131 397 LINE",
"131 364 LINE",
"354 364 LINE SMOOTH",
"511 364 OFFCURVE",
"587 315 OFFCURVE",
"587 202 CURVE SMOOTH",
"587 87 OFFCURVE",
"521 28 OFFCURVE",
"299 28 CURVE SMOOTH"
);
}
);
};
color = 4;
layerId = "E28BEEB5-BD92-4E7A-B4EA-FC5E5BBBF580";
paths = (
{
closed = 1;
nodes = (
"533 -5 OFFCURVE",
"622 66 OFFCURVE",
"622 200 CURVE SMOOTH",
"622 299 OFFCURVE",
"568 372 OFFCURVE",
"433 385 CURVE",
"430 377 LINE",
"552 393 OFFCURVE",
"600 460 OFFCURVE",
"600 553 CURVE SMOOTH",
"600 682 OFFCURVE",
"516 747 OFFCURVE",
"316 747 CURVE SMOOTH",
"246 747 OFFCURVE",
"178 741 OFFCURVE",
"105 727 CURVE",
"105 8 LINE",
"182 -2 OFFCURVE",
"231 -5 OFFCURVE",
"298 -5 CURVE SMOOTH"
);
},
{
closed = 1;
nodes = (
"229 28 OFFCURVE",
"182 32 OFFCURVE",
"139 39 CURVE",
"139 699 LINE",
"189 709 OFFCURVE",
"250 714 OFFCURVE",
"317 714 CURVE SMOOTH",
"494 714 OFFCURVE",
"566 668 OFFCURVE",
"566 553 CURVE SMOOTH",
"566 443 OFFCURVE",
"493 397 OFFCURVE",
"347 397 CURVE SMOOTH",
"131 397 LINE",
"131 364 LINE",
"354 364 LINE SMOOTH",
"511 364 OFFCURVE",
"587 315 OFFCURVE",
"587 202 CURVE SMOOTH",
"587 87 OFFCURVE",
"521 28 OFFCURVE",
"299 28 CURVE SMOOTH"
);
}
);
width = 678;
},
{
background = {
paths = (
{
closed = 1;
nodes = (
"432 -10 CURVE SMOOTH",
"663 -10 OFFCURVE",
"766 56 OFFCURVE",
"766 205 CURVE SMOOTH",
"766 298 OFFCURVE",
"709 360 OFFCURVE",
"606 379 CURVE",
"606 383 LINE",
"696 407 OFFCURVE",
"741 458 OFFCURVE",
"741 537 CURVE SMOOTH",
"741 684 OFFCURVE",
"631 750 OFFCURVE",
"385 750 CURVE SMOOTH",
"280 750 OFFCURVE",
"177 745 OFFCURVE",
"65 735 CURVE",
"65 5 LINE",
"198 -5 OFFCURVE",
"308 -10 OFFCURVE"
);
},
{
closed = 1;
nodes = (
"416 149 CURVE SMOOTH",
"320 149 OFFCURVE",
"308 149 OFFCURVE",
"290 152 CURVE",
"290 303 LINE",
"416 303 LINE SMOOTH",
"502 303 OFFCURVE",
"534 283 OFFCURVE",
"534 230 CURVE SMOOTH",
"534 174 OFFCURVE",
"498 149 OFFCURVE"
);
},
{
closed = 1;
nodes = (
"290 447 LINE",
"290 586 LINE",
"317 590 OFFCURVE",
"354 592 OFFCURVE",
"395 592 CURVE SMOOTH",
"480 592 OFFCURVE",
"510 573 OFFCURVE",
"510 520 CURVE SMOOTH",
"510 466 OFFCURVE",
"480 447 OFFCURVE",
"395 447 CURVE SMOOTH"
);
}
);
};
layerId = "1E90A949-97C4-49F5-AA9A-AF35B6FD63CF";
paths = (
{
closed = 1;
nodes = (
"663 -10 OFFCURVE",
"766 56 OFFCURVE",
"766 205 CURVE SMOOTH",
"766 298 OFFCURVE",
"709 360 OFFCURVE",
"606 379 CURVE",
"606 383 LINE",
"696 407 OFFCURVE",
"741 458 OFFCURVE",
"741 537 CURVE SMOOTH",
"741 684 OFFCURVE",
"631 750 OFFCURVE",
"385 750 CURVE SMOOTH",
"280 750 OFFCURVE",
"177 745 OFFCURVE",
"65 735 CURVE",
"65 5 LINE",
"198 -5 OFFCURVE",
"308 -10 OFFCURVE",
"432 -10 CURVE SMOOTH"
);
},
{
closed = 1;
nodes = (
"320 149 OFFCURVE",
"308 149 OFFCURVE",
"290 152 CURVE",
"290 303 LINE",
"416 303 LINE SMOOTH",
"502 303 OFFCURVE",
"534 283 OFFCURVE",
"534 230 CURVE SMOOTH",
"534 174 OFFCURVE",
"498 149 OFFCURVE",
"416 149 CURVE SMOOTH"
);
},
{
closed = 1;
nodes = (
"290 586 LINE",
"317 590 OFFCURVE",
"354 592 OFFCURVE",
"395 592 CURVE SMOOTH",
"480 592 OFFCURVE",
"510 573 OFFCURVE",
"510 520 CURVE SMOOTH",
"510 466 OFFCURVE",
"480 447 OFFCURVE",
"395 447 CURVE SMOOTH",
"290 447 LINE"
);
}
);
width = 794;
}
);
leftKerningGroup = KERN_I_2ND;
leftMetricsKey = H;
unicode = 0042;
userData = {
com.typemytype.robofont.layerData = {
};
};
},
{
color = 3;
glyphname = C;
lastChange = "2016-11-10 14:53:21 +0000";
layers = (
{
anchors = (
{
name = bottom;
position = "{300, 0}";
},
{
name = top;
position = "{295, 760}";
}
);
background = {
paths = (
{
closed = 1;
nodes = (
"365 -9 OFFCURVE",
"413 0 OFFCURVE",
"457 16 CURVE",
"457 51 LINE",
"403 32 OFFCURVE",
"361 25 OFFCURVE",
"317 25 CURVE SMOOTH",
"171 25 OFFCURVE",
"86 104 OFFCURVE",
"86 371 CURVE SMOOTH",
"86 636 OFFCURVE",
"171 715 OFFCURVE",
"321 715 CURVE SMOOTH",
"361 715 OFFCURVE",
"403 712 OFFCURVE",
"457 694 CURVE",
"457 729 LINE",
"411 743 OFFCURVE",
"365 749 OFFCURVE",
"325 749 CURVE SMOOTH",
"148 749 OFFCURVE",
"50 649 OFFCURVE",
"50 369 CURVE SMOOTH",
"50 90 OFFCURVE",
"148 -9 OFFCURVE",
"318 -9 CURVE SMOOTH"
);
}
);
};
color = 4;
layerId = "ECFF4977-BDCC-4836-B4AC-1801CF0EB460";
paths = (
{
closed = 1;
nodes = (
"365 -9 OFFCURVE",
"413 0 OFFCURVE",
"457 16 CURVE",
"457 50 LINE",
"403 31 OFFCURVE",
"361 24 OFFCURVE",
"317 24 CURVE SMOOTH",
"171 24 OFFCURVE",
"86 104 OFFCURVE",
"86 371 CURVE SMOOTH",
"86 636 OFFCURVE",
"171 716 OFFCURVE",
"321 716 CURVE SMOOTH",
"361 716 OFFCURVE",
"403 713 OFFCURVE",
"457 695 CURVE",
"457 729 LINE",
"411 743 OFFCURVE",
"365 749 OFFCURVE",
"325 749 CURVE SMOOTH",
"148 749 OFFCURVE",
"50 649 OFFCURVE",
"50 369 CURVE SMOOTH",
"50 90 OFFCURVE",
"148 -9 OFFCURVE",
"318 -9 CURVE SMOOTH"
);
}
);
width = 464;
},
{
anchors = (
{
name = bottom;
position = "{297, 0}";
},
{
name = top;
position = "{283, 805}";
}
);
background = {
anchors = (
{
name = bottom;
position = "{297, 0}";
},
{
name = topUC;
position = "{283, 805}";
}
);
paths = (
{
closed = 1;
nodes = (
"330 -9 CURVE SMOOTH",
"390 -9 OFFCURVE",
"456 2 OFFCURVE",
"484 16 CURVE",
"484 165 LINE",
"445 155 OFFCURVE",
"405 150 OFFCURVE",
"359 150 CURVE SMOOTH",
"260 150 OFFCURVE",
"226 185 OFFCURVE",
"226 369 CURVE SMOOTH",
"226 553 OFFCURVE",
"261 590 OFFCURVE",
"359 590 CURVE SMOOTH",
"393 590 OFFCURVE",
"439 586 OFFCURVE",
"484 578 CURVE",
"484 731 LINE",
"430 743 OFFCURVE",
"378 749 OFFCURVE",
"329 749 CURVE SMOOTH",
"134 749 OFFCURVE",
"26 628 OFFCURVE",
"26 370 CURVE SMOOTH",
"26 112 OFFCURVE",
"131 -9 OFFCURVE"
);
}
);
};
layerId = "C8FFBC04-9D7C-494A-A42D-BACB8E26599D";
paths = (
{
closed = 1;
nodes = (
"390 -9 OFFCURVE",
"456 2 OFFCURVE",
"484 16 CURVE",
"484 165 LINE",
"445 155 OFFCURVE",
"405 150 OFFCURVE",
"359 150 CURVE SMOOTH",
"260 150 OFFCURVE",
"226 185 OFFCURVE",
"226 369 CURVE SMOOTH",
"226 553 OFFCURVE",
"261 590 OFFCURVE",
"359 590 CURVE SMOOTH",
"393 590 OFFCURVE",
"439 586 OFFCURVE",
"484 578 CURVE",
"484 731 LINE",
"430 743 OFFCURVE",
"378 749 OFFCURVE",
"329 749 CURVE SMOOTH",
"134 749 OFFCURVE",
"26 628 OFFCURVE",
"26 370 CURVE SMOOTH",
"26 112 OFFCURVE",
"131 -9 OFFCURVE",
"330 -9 CURVE SMOOTH"
);
}
);
width = 508;
},
{
anchors = (
{
name = bottom;
position = "{385, 0}";
},
{
name = top;
position = "{375, 760}";
}
);
background = {
paths = (
{
closed = 1;
nodes = (
"477 -9 OFFCURVE",
"540 0 OFFCURVE",
"604 23 CURVE",
"604 58 LINE",
"527 32 OFFCURVE",
"470 25 OFFCURVE",
"408 25 CURVE SMOOTH",
"214 25 OFFCURVE",
"100 121 OFFCURVE",
"100 371 CURVE SMOOTH",
"100 619 OFFCURVE",
"219 715 OFFCURVE",
"415 715 CURVE SMOOTH",
"479 715 OFFCURVE",
"543 705 OFFCURVE",
"604 687 CURVE",
"604 722 LINE",
"542 740 OFFCURVE",
"486 749 OFFCURVE",
"414 749 CURVE SMOOTH",
"200 749 OFFCURVE",
"64 637 OFFCURVE",
"64 369 CURVE SMOOTH",
"64 102 OFFCURVE",
"194 -9 OFFCURVE",
"407 -9 CURVE SMOOTH"
);
}
);
};
color = 4;
layerId = "E28BEEB5-BD92-4E7A-B4EA-FC5E5BBBF580";
paths = (
{
closed = 1;
nodes = (
"477 -9 OFFCURVE",
"540 0 OFFCURVE",
"604 23 CURVE",
"604 57 LINE",
"527 31 OFFCURVE",
"470 24 OFFCURVE",
"408 24 CURVE SMOOTH",
"214 24 OFFCURVE",
"100 121 OFFCURVE",
"100 371 CURVE SMOOTH",
"100 619 OFFCURVE",
"219 716 OFFCURVE",
"415 716 CURVE SMOOTH",
"479 716 OFFCURVE",
"543 706 OFFCURVE",
"604 688 CURVE",
"604 722 LINE",
"542 740 OFFCURVE",
"486 749 OFFCURVE",
"414 749 CURVE SMOOTH",
"200 749 OFFCURVE",
"64 637 OFFCURVE",
"64 369 CURVE SMOOTH",
"64 102 OFFCURVE",
"194 -9 OFFCURVE",
"407 -9 CURVE SMOOTH"
);
}
);
width = 618;
},
{
anchors = (
{
name = bottom;
position = "{412, -110}";
},
{
name = top;
position = "{377, 885}";
}
);
background = {
anchors = (
{
name = bottom;
position = "{412, -110}";
},
{
name = topUC;
position = "{377, 885}";
}
);
paths = (
{
closed = 1;
nodes = (
"456 -15 CURVE SMOOTH",
"508 -15 OFFCURVE",
"562 -10 OFFCURVE",
"618 0 CURVE",
"618 187 LINE",
"585 181 OFFCURVE",
"502 175 OFFCURVE",
"458 175 CURVE SMOOTH",
"305 175 OFFCURVE",
"274 208 OFFCURVE",
"274 369 CURVE SMOOTH",
"274 536 OFFCURVE",
"303 566 OFFCURVE",
"460 566 CURVE SMOOTH",
"496 566 OFFCURVE",
"516 565 OFFCURVE",
"618 556 CURVE",
"618 742 LINE",
"529 751 OFFCURVE",
"478 755 OFFCURVE",
"432 755 CURVE SMOOTH",
"162 755 OFFCURVE",
"32 630 OFFCURVE",
"32 369 CURVE SMOOTH",
"32 107 OFFCURVE",
"167 -15 OFFCURVE"
);
}
);
};
layerId = "1E90A949-97C4-49F5-AA9A-AF35B6FD63CF";
paths = (
{
closed = 1;
nodes = (
"508 -15 OFFCURVE",
"562 -10 OFFCURVE",
"618 0 CURVE",
"618 187 LINE",
"585 181 OFFCURVE",
"502 175 OFFCURVE",
"458 175 CURVE SMOOTH",
"305 175 OFFCURVE",
"274 208 OFFCURVE",
"274 369 CURVE SMOOTH",
"274 536 OFFCURVE",
"303 566 OFFCURVE",
"460 566 CURVE SMOOTH",
"496 566 OFFCURVE",
"516 565 OFFCURVE",
"618 556 CURVE",
"618 742 LINE",
"529 751 OFFCURVE",
"478 755 OFFCURVE",
"432 755 CURVE SMOOTH",
"162 755 OFFCURVE",
"32 630 OFFCURVE",
"32 369 CURVE SMOOTH",
"32 107 OFFCURVE",
"167 -15 OFFCURVE",
"456 -15 CURVE SMOOTH"
);
}
);
width = 652;
}
);
leftKerningGroup = KERN_O_2ND;
leftMetricsKey = O;
rightKerningGroup = KERN_C_1ST;
unicode = 0043;
userData = {
com.typemytype.robofont.layerData = {
};
};
},
{
color = 3;
glyphname = D;
lastChange = "2016-11-10 23:15:57 +0000";
layers = (
{
anchors = (
{
name = bottom;
position = "{260, 0}";
},
{
name = center;
position = "{291, 370}";
},
{
name = stroke;
position = "{84, 382}";
},
{
name = top;
position = "{260, 760}";
}
);
background = {
paths = (
{
closed = 1;
nodes = (
"919 -5 OFFCURVE",
"1031 103 OFFCURVE",
"1031 370 CURVE SMOOTH",
"1031 629 OFFCURVE",
"928 747 OFFCURVE",
"723 747 CURVE SMOOTH",
"682 747 OFFCURVE",
"628 742 OFFCURVE",
"584 732 CURVE",
"584 2 LINE",
"636 -3 OFFCURVE",
"671 -5 OFFCURVE",
"709 -5 CURVE SMOOTH"
);
},
{
closed = 1;
nodes = (
"679 28 OFFCURVE",
"651 29 OFFCURVE",
"618 33 CURVE",
"618 703 LINE",
"649 710 OFFCURVE",
"687 714 OFFCURVE",
"721 714 CURVE SMOOTH",
"910 714 OFFCURVE",
"995 612 OFFCURVE",
"995 370 CURVE SMOOTH",
"995 123 OFFCURVE",
"901 28 OFFCURVE",
"710 28 CURVE SMOOTH"
);
},
{
closed = 1;
nodes = (
"118 0 LINE",
"118 329 LINE",
"142 327 OFFCURVE",
"166 326 OFFCURVE",
"205 326 CURVE SMOOTH",
"389 326 OFFCURVE",
"484 398 OFFCURVE",
"482 540 CURVE SMOOTH",
"482 677 OFFCURVE",
"402 747 OFFCURVE",
"236 747 CURVE SMOOTH",
"176 747 OFFCURVE",
"129 741 OFFCURVE",
"84 734 CURVE",
"84 0 LINE"
);
},
{
closed = 1;
nodes = (
"542 0 LINE",
"292 349 LINE",
"251 349 LINE",
"501 0 LINE"
);
},
{
closed = 1;
nodes = (
"173 358 OFFCURVE",
"152 359 OFFCURVE",
"118 361 CURVE",
"118 705 LINE",
"156 711 OFFCURVE",
"189 714 OFFCURVE",
"233 714 CURVE SMOOTH",
"387 714 OFFCURVE",
"448 657 OFFCURVE",
"448 539 CURVE SMOOTH",
"448 416 OFFCURVE",
"375 358 OFFCURVE",
"202 358 CURVE SMOOTH"
);
}
);
};
color = 4;
layerId = "ECFF4977-BDCC-4836-B4AC-1801CF0EB460";
paths = (
{
closed = 1;
nodes = (
"419 -5 OFFCURVE",
"531 103 OFFCURVE",
"531 370 CURVE SMOOTH",
"531 629 OFFCURVE",
"428 747 OFFCURVE",
"223 747 CURVE SMOOTH",
"176 747 OFFCURVE",
"129 741 OFFCURVE",
"84 734 CURVE",
"84 2 LINE",
"136 -3 OFFCURVE",
"171 -5 OFFCURVE",
"209 -5 CURVE SMOOTH"
);
},
{
closed = 1;
nodes = (
"179 28 OFFCURVE",
"151 29 OFFCURVE",
"118 33 CURVE",
"118 705 LINE",
"156 711 OFFCURVE",
"189 714 OFFCURVE",
"221 714 CURVE SMOOTH",
"410 714 OFFCURVE",
"495 612 OFFCURVE",
"495 370 CURVE SMOOTH",
"495 123 OFFCURVE",
"401 28 OFFCURVE",
"210 28 CURVE SMOOTH"
);
}
);
width = 581;
},
{
anchors = (
{
name = bottom;
position = "{320, 0}";
},
{
name = top;
position = "{310, 805}";
}
);
background = {
anchors = (
{
name = bottom;
position = "{320, 0}";
},
{
name = topUC;
position = "{310, 805}";
}
);
paths = (
{
closed = 1;
nodes = (
"245 -12 CURVE SMOOTH",
"526 -12 OFFCURVE",
"628 90 OFFCURVE",
"628 369 CURVE SMOOTH",
"628 648 OFFCURVE",
"527 749 OFFCURVE",
"247 749 CURVE SMOOTH",
"196 749 OFFCURVE",
"141 746 OFFCURVE",
"50 740 CURVE",
"50 0 LINE",
"138 -8 OFFCURVE",
"195 -12 OFFCURVE"
);
},
{
closed = 1;
nodes = (
"314 144 CURVE SMOOTH",
"295 144 OFFCURVE",
"277 145 OFFCURVE",
"241 149 CURVE",
"241 591 LINE",
"251 594 OFFCURVE",
"262 595 OFFCURVE",
"285 595 CURVE SMOOTH",
"402 595 OFFCURVE",
"428 553 OFFCURVE",
"428 370 CURVE SMOOTH",
"428 183 OFFCURVE",
"408 144 OFFCURVE"
);
}
);
};
layerId = "C8FFBC04-9D7C-494A-A42D-BACB8E26599D";
paths = (
{
closed = 1;
nodes = (
"526 -12 OFFCURVE",
"628 90 OFFCURVE",
"628 369 CURVE SMOOTH",
"628 648 OFFCURVE",
"527 749 OFFCURVE",
"247 749 CURVE SMOOTH",
"196 749 OFFCURVE",
"141 746 OFFCURVE",
"50 740 CURVE",
"50 0 LINE",
"138 -8 OFFCURVE",
"195 -12 OFFCURVE",
"245 -12 CURVE SMOOTH"
);
},
{
closed = 1;
nodes = (
"295 144 OFFCURVE",
"277 145 OFFCURVE",
"241 149 CURVE",
"241 591 LINE",
"251 594 OFFCURVE",
"262 595 OFFCURVE",
"285 595 CURVE SMOOTH",
"402 595 OFFCURVE",
"428 553 OFFCURVE",
"428 370 CURVE SMOOTH",
"428 183 OFFCURVE",
"408 144 OFFCURVE",
"314 144 CURVE SMOOTH"
);
}
);
width = 654;
},
{
anchors = (
{
name = bottom;
position = "{350, 0}";
},
{
name = center;
position = "{379, 370}";
},
{
name = stroke;
position = "{105, 382}";
},
{
name = top;
position = "{350, 760}";
}
);
background = {
paths = (
{
closed = 1;
nodes = (
"559 -5 OFFCURVE",
"693 119 OFFCURVE",
"693 370 CURVE SMOOTH",
"693 621 OFFCURVE",
"559 747 OFFCURVE",
"302 747 CURVE SMOOTH",
"234 747 OFFCURVE",
"175 741 OFFCURVE",
"105 727 CURVE",
"105 8 LINE",
"182 -2 OFFCURVE",
"231 -5 OFFCURVE",
"298 -5 CURVE SMOOTH"
);
},
{
closed = 1;
nodes = (
"229 28 OFFCURVE",
"182 32 OFFCURVE",
"139 39 CURVE",
"139 699 LINE",
"198 709 OFFCURVE",
"240 714 OFFCURVE",
"299 714 CURVE SMOOTH",
"537 714 OFFCURVE",
"657 604 OFFCURVE",
"657 370 CURVE SMOOTH",
"657 136 OFFCURVE",
"537 28 OFFCURVE",
"299 28 CURVE SMOOTH"
);
}
);
};
color = 4;
layerId = "E28BEEB5-BD92-4E7A-B4EA-FC5E5BBBF580";
paths = (
{
closed = 1;
nodes = (
"559 -5 OFFCURVE",
"693 119 OFFCURVE",
"693 370 CURVE SMOOTH",
"693 621 OFFCURVE",
"559 747 OFFCURVE",
"305 747 CURVE SMOOTH",
"244 747 OFFCURVE",
"175 741 OFFCURVE",
"105 727 CURVE",
"105 8 LINE",
"182 -2 OFFCURVE",
"231 -5 OFFCURVE",
"298 -5 CURVE SMOOTH"
);
},
{
closed = 1;
nodes = (
"229 28 OFFCURVE",
"182 32 OFFCURVE",
"139 39 CURVE",
"139 699 LINE",
"198 709 OFFCURVE",
"250 714 OFFCURVE",
"302 714 CURVE SMOOTH",
"537 714 OFFCURVE",
"657 604 OFFCURVE",
"657 370 CURVE SMOOTH",
"657 136 OFFCURVE",
"537 28 OFFCURVE",
"299 28 CURVE SMOOTH"
);
}
);
width = 757;
},
{
anchors = (
{
name = bottom;
position = "{397, -110}";
},
{
name = top;
position = "{387, 885}";
}
);
background = {
anchors = (
{
name = bottom;
position = "{397, -110}";
},
{
name = topUC;
position = "{387, 885}";
}
);
paths = (
{
closed = 1;
nodes = (
"312 -10 CURVE SMOOTH",
"676 -10 OFFCURVE",
"818 96 OFFCURVE",
"818 369 CURVE SMOOTH",
"818 633 OFFCURVE",
"680 750 OFFCURVE",
"369 750 CURVE SMOOTH",
"298 750 OFFCURVE",
"204 746 OFFCURVE",
"65 738 CURVE",
"65 3 LINE",
"118 -5 OFFCURVE",
"220 -10 OFFCURVE"
);
},
{
closed = 1;
nodes = (
"410 173 CURVE SMOOTH",
"372 173 OFFCURVE",
"329 176 OFFCURVE",
"300 181 CURVE",
"300 561 LINE",
"352 565 OFFCURVE",
"380 566 OFFCURVE",
"404 566 CURVE SMOOTH",
"535 566 OFFCURVE",
"578 517 OFFCURVE",
"578 369 CURVE SMOOTH",
"578 217 OFFCURVE",
"540 173 OFFCURVE"
);
}
);
};
layerId = "1E90A949-97C4-49F5-AA9A-AF35B6FD63CF";
paths = (
{
closed = 1;
nodes = (
"676 -10 OFFCURVE",
"818 96 OFFCURVE",
"818 369 CURVE SMOOTH",
"818 633 OFFCURVE",
"680 750 OFFCURVE",
"369 750 CURVE SMOOTH",
"298 750 OFFCURVE",
"204 746 OFFCURVE",
"65 738 CURVE",
"65 3 LINE",
"118 -5 OFFCURVE",
"220 -10 OFFCURVE",
"312 -10 CURVE SMOOTH"
);
},
{
closed = 1;
nodes = (
"372 173 OFFCURVE",
"329 176 OFFCURVE",
"300 181 CURVE",
"300 561 LINE",
"352 565 OFFCURVE",
"380 566 OFFCURVE",
"404 566 CURVE SMOOTH",
"535 566 OFFCURVE",
"578 517 OFFCURVE",
"578 369 CURVE SMOOTH",
"578 217 OFFCURVE",
"540 173 OFFCURVE",
"410 173 CURVE SMOOTH"
);
}
);
width = 850;
}
);
leftKerningGroup = KERN_I_2ND;
leftMetricsKey = H;
rightKerningGroup = KERN_D_1ST;
rightMetricsKey = O;
unicode = 0044;
userData = {
com.typemytype.robofont.layerData = {
};
};
},
{
color = 3;
glyphname = Eth;
lastChange = "2016-11-10 23:16:07 +0000";
layers = (
{
background = {
components = (
{
name = D;
transform = "{1, 0, 0, 1, 10, 0}";
}
);
paths = (
{
closed = 1;
nodes = (
"1 351 LINE",
"288 351 LINE",
"288 385 LINE",
"1 385 LINE"
);
}
);
};
color = 4;
components = (
{
name = D;
},
{
name = strokeshortcomb_h;
transform = "{1, 0, 0, 1, -216, -158}";
}
);
layerId = "ECFF4977-BDCC-4836-B4AC-1801CF0EB460";
width = 581;
},
{
background = {
components = (
{
name = D;
transform = "{1, 0, 0, 1, 10, 0}";
}
);
paths = (
{
closed = 1;
nodes = (
"-19 301 LINE",
"322 301 LINE",
"322 446 LINE",
"-19 446 LINE"
);
}
);
};
components = (
{
name = D;
transform = "{1, 0, 0, 1, 10, 0}";
}
);
layerId = "C8FFBC04-9D7C-494A-A42D-BACB8E26599D";
paths = (
{
closed = 1;
nodes = (
"322 301 LINE",
"322 446 LINE",
"-19 446 LINE",
"-19 301 LINE"
);
}
);
width = 664;
},
{
background = {
components = (
{
name = D;
transform = "{1, 0, 0, 1, 10, 0}";
}
);
paths = (
{
closed = 1;
nodes = (
"13 351 LINE",
"385 351 LINE",
"385 385 LINE",
"13 385 LINE"
);
}
);
};
color = 4;
components = (
{
name = D;
},
{
name = strokeshortcomb_h;
transform = "{1, 0, 0, 1, -195, -158}";
}
);
layerId = "E28BEEB5-BD92-4E7A-B4EA-FC5E5BBBF580";
width = 757;
},
{
background = {
components = (
{
name = D;
transform = "{1, 0, 0, 1, 10, 0}";
}
);
paths = (
{
closed = 1;
nodes = (
"-13 288 LINE",
"408 288 LINE",
"408 462 LINE",
"-13 462 LINE"
);
}
);
};
components = (
{
name = D;
transform = "{1, 0, 0, 1, 10, 0}";
}
);
layerId = "1E90A949-97C4-49F5-AA9A-AF35B6FD63CF";
paths = (
{
closed = 1;
nodes = (
"408 288 LINE",
"408 462 LINE",
"-13 462 LINE",
"-13 288 LINE"
);
}
);
width = 860;
}
);
leftKerningGroup = KERN_I_2ND;
widthMetricsKey = "=D+10";
rightKerningGroup = KERN_D_1ST;
rightMetricsKey = O;
unicode = 00D0;
},
{
color = 6;
glyphname = Dcroat;
lastChange = "2016-11-11 08:29:40 +0000";
layers = (
{
background = {
components = (
{
name = D;
transform = "{1, 0, 0, 1, 9, 0}";
}
);
paths = (
{
closed = 1;
nodes = (
"0 351 LINE",
"287 351 LINE",
"287 385 LINE",
"0 385 LINE"
);
}
);
};
color = -1;
components = (
{
name = Eth;
}
);
layerId = "ECFF4977-BDCC-4836-B4AC-1801CF0EB460";
width = 581;
},
{
background = {
components = (
{
name = D;
transform = "{1, 0, 0, 1, 27, 0}";
}
);
paths = (
{
closed = 1;
nodes = (
"-2 301 LINE",
"339 301 LINE",
"339 446 LINE",
"-2 446 LINE"
);
}
);
};
components = (
{
name = Eth;
}
);
layerId = "C8FFBC04-9D7C-494A-A42D-BACB8E26599D";
width = 664;
},
{
background = {
components = (
{
name = D;
transform = "{1, 0, 0, 1, 4, 0}";
}
);
paths = (
{
closed = 1;
nodes = (
"7 351 LINE",
"379 351 LINE",
"379 385 LINE",
"7 385 LINE"
);
}
);
};
color = -1;
components = (
{
name = Eth;
}
);
layerId = "E28BEEB5-BD92-4E7A-B4EA-FC5E5BBBF580";
width = 757;
},
{
background = {
components = (
{
name = D;
transform = "{1, 0, 0, 1, 28, 0}";
}
);
paths = (
{
closed = 1;
nodes = (
"5 288 LINE",
"426 288 LINE",
"426 462 LINE",
"5 462 LINE"
);
}
);
};
components = (
{
name = Eth;
}
);
layerId = "1E90A949-97C4-49F5-AA9A-AF35B6FD63CF";
width = 860;
}
);
leftKerningGroup = KERN_I_2ND;
rightKerningGroup = KERN_D_1ST;
unicode = 0110;
},
{
color = 3;
glyphname = E;
lastChange = "2016-11-10 14:50:50 +0000";
layers = (
{
anchors = (
{
name = bottom;
position = "{271, 0}";
},
{
name = ogonek;
position = "{418, 0}";
},
{
name = top;
position = "{269, 760}";
},
{
name = topleft;
position = "{20, 740}";
}
);
background = {
anchors = (
{
name = bottom;
position = "{280, 0}";
},
{
name = ogonek;
position = "{451, 0}";
},
{
name = topUC;
position = "{260, 760}";
}
);
paths = (
{
closed = 1;
nodes = (
"118 0 LINE",
"118 364 LINE",
"496 364 LINE",
"496 0 LINE",
"530 0 LINE",
"530 740 LINE",
"496 740 LINE",
"496 397 LINE",
"118 397 LINE",
"118 740 LINE",
"84 740 LINE",
"84 0 LINE"
);
}
);
};
color = 4;
layerId = "ECFF4977-BDCC-4836-B4AC-1801CF0EB460";
paths = (
{
closed = 1;
nodes = (
"458 0 LINE",
"458 33 LINE",
"118 33 LINE",
"118 707 LINE",
"453 707 LINE",
"453 740 LINE",
"84 740 LINE",
"84 0 LINE"
);
},
{
closed = 1;
nodes = (
"408 364 LINE",
"408 397 LINE",
"114 397 LINE",
"114 364 LINE"
);
}
);
width = 488;
},
{
anchors = (
{
name = bottom;
position = "{294, 0}";
},
{
name = ogonek;
position = "{530, 0}";
},
{
name = top;
position = "{292, 805}";
}
);
background = {
anchors = (
{
name = bottom;
position = "{294, 0}";
},
{
name = ogonek;
position = "{530, 0}";
},
{
name = topUC;
position = "{292, 805}";
}
);
paths = (
{
closed = 1;
nodes = (
"50 0 LINE",
"530 0 LINE",
"530 162 LINE",
"245 162 LINE",
"245 578 LINE",
"521 578 LINE",
"521 740 LINE",
"50 740 LINE"
);
},
{
closed = 1;
nodes = (
"189 289 LINE",
"490 289 LINE",
"490 451 LINE",
"189 451 LINE"
);
}
);
};
layerId = "C8FFBC04-9D7C-494A-A42D-BACB8E26599D";
paths = (
{
closed = 1;
nodes = (
"530 0 LINE",
"530 162 LINE",
"245 162 LINE",
"245 578 LINE",
"521 578 LINE",
"521 740 LINE",
"50 740 LINE",
"50 0 LINE"
);
},
{
closed = 1;
nodes = (
"490 289 LINE",
"490 451 LINE",
"189 451 LINE",
"189 289 LINE"
);
}
);
width = 556;
},
{
anchors = (
{
name = bottom;
position = "{345, 0}";
},
{
name = ogonek;
position = "{545, 0}";
},
{
name = top;
position = "{343, 760}";
},
{
name = topleft;
position = "{20, 740}";
}
);
background = {
anchors = (
{
name = bottom;
position = "{351, 0}";
},
{
name = ogonek;
position = "{561, 0}";
},
{
name = topUC;
position = "{333, 760}";
}
);
paths = (
{
closed = 1;
nodes = (
"139 0 LINE",
"139 364 LINE",
"643 364 LINE",
"643 0 LINE",
"677 0 LINE",
"677 740 LINE",
"643 740 LINE",
"643 397 LINE",
"139 397 LINE",
"139 740 LINE",
"105 740 LINE",
"105 0 LINE"
);
}
);
};
color = 4;
layerId = "E28BEEB5-BD92-4E7A-B4EA-FC5E5BBBF580";
paths = (
{
closed = 1;
nodes = (
"585 0 LINE",
"585 33 LINE",
"139 33 LINE",
"139 707 LINE",
"580 707 LINE",
"580 740 LINE",
"105 740 LINE",
"105 0 LINE"
);
},
{
closed = 1;
nodes = (
"530 364 LINE",
"530 397 LINE",
"135 397 LINE",
"135 364 LINE"
);
}
);
width = 623;
},
{
anchors = (
{
name = bottom;
position = "{368, -110}";
},
{
name = ogonek;
position = "{583, 54}";
},
{
name = top;
position = "{377, 885}";
}
);
background = {
anchors = (
{
name = bottom;
position = "{368, -110}";
},
{
name = ogonek;
position = "{583, 54}";
},
{
name = topUC;
position = "{377, 885}";
}
);
paths = (
{
closed = 1;
nodes = (
"65 0 LINE",
"691 0 LINE",
"691 176 LINE",
"300 176 LINE",
"300 564 LINE",
"681 564 LINE",
"681 740 LINE",
"65 740 LINE"
);
},
{
closed = 1;
nodes = (
"179 282 LINE",
"641 282 LINE",
"641 458 LINE",
"179 458 LINE"
);
}
);
};
layerId = "1E90A949-97C4-49F5-AA9A-AF35B6FD63CF";
paths = (
{
closed = 1;
nodes = (
"691 0 LINE",
"691 176 LINE",
"300 176 LINE",
"300 564 LINE",
"681 564 LINE",
"681 740 LINE",
"65 740 LINE",
"65 0 LINE"
);
},
{
closed = 1;
nodes = (
"641 282 LINE",
"641 458 LINE",
"179 458 LINE",
"179 282 LINE"
);
}
);
width = 727;
}
);
leftKerningGroup = KERN_I_2ND;
leftMetricsKey = H;
rightKerningGroup = KERN_E_1ST;
unicode = 0045;
userData = {
com.typemytype.robofont.layerData = {
};
};
},
{
color = 3;
glyphname = F;
lastChange = "2016-11-10 14:51:37 +0000";
layers = (
{
anchors = (
{
name = bottom;
position = "{235, 0}";
},
{
name = top;
position = "{235, 740}";
}
);
background = {
paths = (
{
closed = 1;
nodes = (
"118 0 LINE",
"118 707 LINE",
"454 707 LINE",
"454 740 LINE",
"84 740 LINE",
"84 0 LINE"
);
},
{
closed = 1;
nodes = (
"409 364 LINE",
"409 397 LINE",
"114 397 LINE",
"114 364 LINE"
);
}
);
};
color = 4;
layerId = "ECFF4977-BDCC-4836-B4AC-1801CF0EB460";
paths = (
{
closed = 1;
nodes = (
"118 0 LINE",
"118 707 LINE",
"448 707 LINE",
"448 740 LINE",
"84 740 LINE",
"84 0 LINE"
);
},
{
closed = 1;
nodes = (
"403 364 LINE",
"403 397 LINE",
"114 397 LINE",
"114 364 LINE"
);
}
);
width = 469;
},
{
background = {
paths = (
{
closed = 1;
nodes = (
"50 0 LINE",
"245 0 LINE",
"245 578 LINE",
"511 578 LINE",
"511 740 LINE",
"50 740 LINE"
);
},
{
closed = 1;
nodes = (
"189 269 LINE",
"480 269 LINE",
"480 431 LINE",
"189 431 LINE"
);
}
);
};
layerId = "C8FFBC04-9D7C-494A-A42D-BACB8E26599D";
paths = (
{
closed = 1;
nodes = (
"245 0 LINE",
"245 578 LINE",
"511 578 LINE",
"511 740 LINE",
"50 740 LINE",
"50 0 LINE"
);
},
{
closed = 1;
nodes = (
"480 269 LINE",
"480 431 LINE",
"189 431 LINE",
"189 269 LINE"
);
}
);
width = 531;
},
{
anchors = (
{
name = bottom;
position = "{303, 0}";
},
{
name = top;
position = "{303, 740}";
}
);
background = {
paths = (
{
closed = 1;
nodes = (
"585 0 LINE",
"585 33 LINE",
"139 33 LINE",
"139 707 LINE",
"580 707 LINE",
"580 740 LINE",
"105 740 LINE",
"105 0 LINE"
);
},
{
closed = 1;
nodes = (
"535 364 LINE",
"535 397 LINE",
"135 397 LINE",
"135 364 LINE"
);
}
);
};
color = 4;
layerId = "E28BEEB5-BD92-4E7A-B4EA-FC5E5BBBF580";
paths = (
{
closed = 1;
nodes = (
"139 0 LINE",
"139 707 LINE",
"575 707 LINE",
"575 740 LINE",
"105 740 LINE",
"105 0 LINE"
);
},
{
closed = 1;
nodes = (
"525 364 LINE",
"525 397 LINE",
"135 397 LINE",
"135 364 LINE"
);
}
);
width = 606;
},
{
background = {
paths = (
{
closed = 1;
nodes = (
"65 0 LINE",
"300 0 LINE",
"300 564 LINE",
"681 564 LINE",
"681 740 LINE",
"65 740 LINE"
);
},
{
closed = 1;
nodes = (
"195 252 LINE",
"641 252 LINE",
"641 428 LINE",
"195 428 LINE"
);
}
);
};
layerId = "1E90A949-97C4-49F5-AA9A-AF35B6FD63CF";
paths = (
{
closed = 1;
nodes = (
"300 0 LINE",
"300 564 LINE",
"681 564 LINE",
"681 740 LINE",
"65 740 LINE",
"65 0 LINE"
);
},
{
closed = 1;
nodes = (
"641 252 LINE",
"641 428 LINE",
"195 428 LINE",
"195 252 LINE"
);
}
);
width = 706;
}
);
leftKerningGroup = KERN_I_2ND;
leftMetricsKey = H;
unicode = 0046;
userData = {
com.typemytype.robofont.layerData = {
};
};
},
{
color = 3;
glyphname = G;
lastChange = "2016-11-10 14:55:16 +0000";
layers = (
{
anchors = (
{
name = bottom;
position = "{310, 0}";
},
{
name = top;
position = "{310, 760}";
}
);
background = {
paths = (
{
closed = 1;
nodes = (
"405 -7 OFFCURVE",
"448 -2 OFFCURVE",
"493 8 CURVE",
"493 359 LINE",
"459 359 LINE",
"459 37 LINE",
"428 30 OFFCURVE",
"400 26 OFFCURVE",
"368 26 CURVE SMOOTH",
"171 26 OFFCURVE",
"86 104 OFFCURVE",
"86 369 CURVE SMOOTH",
"86 636 OFFCURVE",
"181 716 OFFCURVE",
"338 716 CURVE SMOOTH",
"376 716 OFFCURVE",
"422 713 OFFCURVE",
"480 695 CURVE",
"480 729 LINE",
"430 743 OFFCURVE",
"378 749 OFFCURVE",
"343 749 CURVE SMOOTH",
"156 749 OFFCURVE",
"50 649 OFFCURVE",
"50 369 CURVE SMOOTH",
"50 90 OFFCURVE",
"148 -7 OFFCURVE",
"366 -7 CURVE SMOOTH"
);
}
);
};
color = 4;
layerId = "ECFF4977-BDCC-4836-B4AC-1801CF0EB460";
paths = (
{
closed = 1;
nodes = (
"406 -5 OFFCURVE",
"441 -3 OFFCURVE",
"490 5 CURVE",
"490 359 LINE",
"456 359 LINE",
"456 35 LINE",
"426 29 OFFCURVE",
"398 28 OFFCURVE",
"366 28 CURVE SMOOTH",
"176 28 OFFCURVE",
"86 106 OFFCURVE",
"86 369 CURVE SMOOTH",
"86 636 OFFCURVE",
"181 716 OFFCURVE",
"338 716 CURVE SMOOTH",
"377 716 OFFCURVE",
"423 713 OFFCURVE",
"481 695 CURVE",
"481 729 LINE",
"431 743 OFFCURVE",
"379 749 OFFCURVE",
"343 749 CURVE SMOOTH",
"156 749 OFFCURVE",
"50 649 OFFCURVE",
"50 369 CURVE SMOOTH",
"50 92 OFFCURVE",
"153 -5 OFFCURVE",
"366 -5 CURVE SMOOTH"
);
}
);
width = 554;
},
{
anchors = (
{
name = bottom;
position = "{337, 0}";
},
{
name = top;
position = "{332, 805}";
}
);
background = {
anchors = (
{
name = bottom;
position = "{337, 0}";
},
{
name = topUC;
position = "{332, 805}";
}
);
paths = (
{
closed = 1;
nodes = (
"330 -9 CURVE SMOOTH",
"391 -9 OFFCURVE",
"457 -4 OFFCURVE",
"562 9 CURVE",
"484 165 LINE",
"444 155 OFFCURVE",
"404 150 OFFCURVE",
"359 150 CURVE SMOOTH",
"254 150 OFFCURVE",
"226 195 OFFCURVE",
"226 369 CURVE SMOOTH",
"226 538 OFFCURVE",
"267 591 OFFCURVE",
"398 591 CURVE SMOOTH",
"436 591 OFFCURVE",
"482 585 OFFCURVE",
"549 573 CURVE",
"549 726 LINE",
"487 742 OFFCURVE",
"432 749 OFFCURVE",
"379 749 CURVE SMOOTH",
"146 749 OFFCURVE",
"26 620 OFFCURVE",
"26 370 CURVE SMOOTH",
"26 117 OFFCURVE",
"127 -9 OFFCURVE"
);
},
{
closed = 1;
nodes = (
"388 24 LINE",
"562 9 LINE",
"562 376 LINE",
"388 376 LINE"
);
}
);
};
layerId = "C8FFBC04-9D7C-494A-A42D-BACB8E26599D";
paths = (
{
closed = 1;
nodes = (
"391 -9 OFFCURVE",
"457 -4 OFFCURVE",
"562 9 CURVE",
"484 165 LINE",
"444 155 OFFCURVE",
"404 150 OFFCURVE",
"359 150 CURVE SMOOTH",
"254 150 OFFCURVE",
"226 195 OFFCURVE",
"226 369 CURVE SMOOTH",
"226 538 OFFCURVE",
"267 591 OFFCURVE",
"398 591 CURVE SMOOTH",
"436 591 OFFCURVE",
"482 585 OFFCURVE",
"549 573 CURVE",
"549 726 LINE",
"487 742 OFFCURVE",
"432 749 OFFCURVE",
"379 749 CURVE SMOOTH",
"146 749 OFFCURVE",
"26 620 OFFCURVE",
"26 370 CURVE SMOOTH",
"26 117 OFFCURVE",
"127 -9 OFFCURVE",
"330 -9 CURVE SMOOTH"
);
},
{
closed = 1;
nodes = (
"562 376 LINE",
"388 376 LINE",
"388 24 LINE",
"562 9 LINE"
);
}
);
width = 597;
},
{
anchors = (
{
name = bottom;
position = "{395, 0}";
},
{
name = top;
position = "{395, 760}";
}
);
background = {
paths = (
{
closed = 1;
nodes = (
"518 -7 OFFCURVE",
"577 -1 OFFCURVE",
"649 13 CURVE",
"649 359 LINE",
"613 359 LINE",
"613 41 LINE",
"554 31 OFFCURVE",
"512 26 OFFCURVE",
"456 26 CURVE SMOOTH",
"223 26 OFFCURVE",
"101 139 OFFCURVE",
"100 371 CURVE SMOOTH",
"99 619 OFFCURVE",
"243 716 OFFCURVE",
"432 716 CURVE SMOOTH",
"486 716 OFFCURVE",
"543 710 OFFCURVE",
"622 688 CURVE",
"622 722 LINE",
"553 740 OFFCURVE",
"496 749 OFFCURVE",
"430 749 CURVE SMOOTH",
"224 749 OFFCURVE",
"63 637 OFFCURVE",
"64 369 CURVE SMOOTH",
"65 119 OFFCURVE",
"201 -7 OFFCURVE",
"453 -7 CURVE SMOOTH"
);
}
);
};
color = 4;
layerId = "E28BEEB5-BD92-4E7A-B4EA-FC5E5BBBF580";
paths = (
{
closed = 1;
nodes = (
"518 -5 OFFCURVE",
"567 -2 OFFCURVE",
"642 10 CURVE",
"642 359 LINE",
"608 359 LINE",
"608 41 LINE",
"567 32 OFFCURVE",
"520 28 OFFCURVE",
"456 28 CURVE SMOOTH",
"223 28 OFFCURVE",
"101 139 OFFCURVE",
"100 371 CURVE SMOOTH",
"99 619 OFFCURVE",
"243 716 OFFCURVE",
"432 716 CURVE SMOOTH",
"486 716 OFFCURVE",
"543 710 OFFCURVE",
"622 688 CURVE",
"622 722 LINE",
"553 740 OFFCURVE",
"496 749 OFFCURVE",
"430 749 CURVE SMOOTH",
"224 749 OFFCURVE",
"63 637 OFFCURVE",
"64 369 CURVE SMOOTH",
"65 119 OFFCURVE",
"201 -5 OFFCURVE",
"456 -5 CURVE SMOOTH"
);
}
);
width = 713;
},
{
anchors = (
{
name = bottom;
position = "{424, -110}";
},
{
name = top;
position = "{414, 885}";
}
);
background = {
anchors = (
{
name = bottom;
position = "{424, -110}";
},
{
name = topUC;
position = "{414, 885}";
}
);
paths = (
{
closed = 1;
nodes = (
"456 -15 CURVE SMOOTH",
"529 -15 OFFCURVE",
"643 5 OFFCURVE",
"724 31 CURVE",
"618 187 LINE",
"587 181 OFFCURVE",
"504 175 OFFCURVE",
"458 175 CURVE SMOOTH",
"305 175 OFFCURVE",
"274 208 OFFCURVE",
"274 369 CURVE SMOOTH",
"274 535 OFFCURVE",
"307 566 OFFCURVE",
"485 566 CURVE SMOOTH",
"535 566 OFFCURVE",
"616 559 OFFCURVE",
"713 545 CURVE",
"713 731 LINE",
"655 745 OFFCURVE",
"549 755 OFFCURVE",
"467 755 CURVE SMOOTH",
"174 755 OFFCURVE",
"32 629 OFFCURVE",
"32 369 CURVE SMOOTH",
"32 107 OFFCURVE",
"167 -15 OFFCURVE"
);
},
{
closed = 1;
nodes = (
"508 31 LINE",
"724 31 LINE",
"724 376 LINE",
"508 376 LINE"
);
}
);
};
layerId = "1E90A949-97C4-49F5-AA9A-AF35B6FD63CF";
paths = (
{
closed = 1;
nodes = (
"529 -15 OFFCURVE",
"643 5 OFFCURVE",
"724 31 CURVE",
"618 187 LINE",
"587 181 OFFCURVE",
"504 175 OFFCURVE",
"458 175 CURVE SMOOTH",
"305 175 OFFCURVE",
"274 208 OFFCURVE",
"274 369 CURVE SMOOTH",
"274 535 OFFCURVE",
"307 566 OFFCURVE",
"485 566 CURVE SMOOTH",
"535 566 OFFCURVE",
"616 559 OFFCURVE",
"713 545 CURVE",
"713 731 LINE",
"655 745 OFFCURVE",
"549 755 OFFCURVE",
"467 755 CURVE SMOOTH",
"174 755 OFFCURVE",
"32 629 OFFCURVE",
"32 369 CURVE SMOOTH",
"32 107 OFFCURVE",
"167 -15 OFFCURVE",
"456 -15 CURVE SMOOTH"
);
},
{
closed = 1;
nodes = (
"724 31 LINE",
"724 376 LINE",
"508 376 LINE",
"508 31 LINE"
);
}
);
width = 771;
}
);
leftKerningGroup = KERN_O_2ND;
leftMetricsKey = O;
rightKerningGroup = KERN_G_1ST;
unicode = 0047;
userData = {
com.typemytype.robofont.layerData = {
};
};
},
{
color = 3;
glyphname = H;
lastChange = "2016-11-10 15:03:53 +0000";
layers = (
{
anchors = (
{
name = bottom;
position = "{307, 0}";
},
{
name = center;
position = "{307, 570}";
},
{
name = top;
position = "{307, 760}";
},
{
name = topleft;
position = "{20, 740}";
}
);
background = {
paths = (
{
closed = 1;
nodes = (
"118 0 LINE",
"118 364 LINE",
"489 364 LINE",
"489 0 LINE",
"523 0 LINE",
"523 740 LINE",
"489 740 LINE",
"489 397 LINE",
"118 397 LINE",
"118 740 LINE",
"84 740 LINE",
"84 0 LINE"
);
}
);
};
color = 4;
layerId = "ECFF4977-BDCC-4836-B4AC-1801CF0EB460";
paths = (
{
closed = 1;
nodes = (
"118 0 LINE",
"118 364 LINE",
"496 364 LINE",
"496 0 LINE",
"530 0 LINE",
"530 740 LINE",
"496 740 LINE",
"496 397 LINE",
"118 397 LINE",
"118 740 LINE",
"84 740 LINE",
"84 0 LINE"
);
}
);
width = 614;
},
{
anchors = (
{
name = bottom;
position = "{345, 0}";
},
{
name = top;
position = "{345, 805}";
}
);
background = {
anchors = (
{
name = bottom;
position = "{345, 0}";
},
{
name = topUC;
position = "{345, 805}";
}
);
paths = (
{
closed = 1;
nodes = (
"50 0 LINE",
"245 0 LINE",
"245 297 LINE",
"445 297 LINE",
"445 0 LINE",
"640 0 LINE",
"640 740 LINE",
"445 740 LINE",
"445 459 LINE",
"245 459 LINE",
"245 740 LINE",
"50 740 LINE"
);
}
);
};
layerId = "C8FFBC04-9D7C-494A-A42D-BACB8E26599D";
paths = (
{
closed = 1;
nodes = (
"245 0 LINE",
"245 297 LINE",
"445 297 LINE",
"445 0 LINE",
"640 0 LINE",
"640 740 LINE",
"445 740 LINE",
"445 459 LINE",
"245 459 LINE",
"245 740 LINE",
"50 740 LINE",
"50 0 LINE"
);
}
);
width = 690;
},
{
anchors = (
{
name = bottom;
position = "{391, 0}";
},
{
name = center;
position = "{391, 570}";
},
{
name = top;
position = "{391, 760}";
},
{
name = topleft;
position = "{20, 740}";
}
);
background = {
anchors = (
{
name = bottom;
position = "{401, 0}";
},
{
name = topUC;
position = "{381, 760}";
}
);
paths = (
{
closed = 1;
nodes = (
"105 0 LINE",
"139 0 LINE",
"139 363 LINE",
"638 363 LINE",
"638 0 LINE",
"672 0 LINE",
"672 740 LINE",
"638 740 LINE",
"638 397 LINE",
"139 397 LINE",
"139 740 LINE",
"105 740 LINE"
);
}
);
};
color = 4;
layerId = "E28BEEB5-BD92-4E7A-B4EA-FC5E5BBBF580";
paths = (
{
closed = 1;
nodes = (
"139 0 LINE",
"139 364 LINE",
"643 364 LINE",
"643 0 LINE",
"677 0 LINE",
"677 740 LINE",
"643 740 LINE",
"643 397 LINE",
"139 397 LINE",
"139 740 LINE",
"105 740 LINE",
"105 0 LINE"
);
}
);
width = 782;
},
{
anchors = (
{
name = bottom;
position = "{447, -110}";
},
{
name = top;
position = "{447, 885}";
}
);
background = {
anchors = (
{
name = bottom;
position = "{447, -110}";
},
{
name = topUC;
position = "{447, 885}";
}
);
paths = (
{
closed = 1;
nodes = (
"65 0 LINE",
"300 0 LINE",
"300 292 LINE",
"598 292 LINE",
"598 0 LINE",
"833 0 LINE",
"833 740 LINE",
"598 740 LINE",
"598 468 LINE",
"300 468 LINE",
"300 740 LINE",
"65 740 LINE"
);
}
);
};
layerId = "1E90A949-97C4-49F5-AA9A-AF35B6FD63CF";
paths = (
{
closed = 1;
nodes = (
"300 0 LINE",
"300 292 LINE",
"598 292 LINE",
"598 0 LINE",
"833 0 LINE",
"833 740 LINE",
"598 740 LINE",
"598 468 LINE",
"300 468 LINE",
"300 740 LINE",
"65 740 LINE",
"65 0 LINE"
);
}
);
width = 898;
}
);
leftKerningGroup = KERN_I_2ND;
rightKerningGroup = KERN_I_1ST;
unicode = 0048;
userData = {
com.typemytype.robofont.layerData = {
};
};
},
{
color = 3;
glyphname = Hbar;
lastChange = "2016-11-11 10:56:50 +0000";
layers = (
{
background = {
components = (
{
name = H;
transform = "{1, 0, 0, 1, 19, 0}";
}
);
paths = (
{
closed = 1;
nodes = (
"1 550 LINE",
"637 550 LINE",
"637 575 LINE",
"1 575 LINE"
);
}
);
};
color = 4;
components = (
{
name = H;
},
{
name = strokelongcomb.case;
transform = "{1, 0, 0, 1, -12, 30}";
}
);
layerId = "ECFF4977-BDCC-4836-B4AC-1801CF0EB460";
width = 614;
},
{
background = {
components = (
{
name = H;
transform = "{1, 0, 0, 1, 9, 0}";
}
);
paths = (
{
closed = 1;
nodes = (
"-3 537 LINE",
"726 537 LINE",
"726 624 LINE",
"-3 624 LINE"
);
}
);
};
components = (
{
name = H;
},
{
name = strokelongcomb.case;
}
);
layerId = "C8FFBC04-9D7C-494A-A42D-BACB8E26599D";
width = 715;
},
{
background = {
components = (
{
name = H;
transform = "{1, 0, 0, 1, 4, 0}";
}
);
paths = (
{
closed = 1;
nodes = (
"9 550 LINE",
"779 550 LINE",
"779 584 LINE",
"9 584 LINE"
);
}
);
};
color = 4;
components = (
{
name = H;
},
{
name = strokelongcomb.case;
transform = "{1, 0, 0, 1, -23, 30}";
}
);
layerId = "E28BEEB5-BD92-4E7A-B4EA-FC5E5BBBF580";
width = 782;
},
{
background = {
components = (
{
name = H;
transform = "{1, 0, 0, 1, 7, 0}";
}
);
paths = (
{
closed = 1;
nodes = (
"8 534 LINE",
"907 534 LINE",
"907 637 LINE",
"8 637 LINE"
);
}
);
};
components = (
{
name = H;
},
{
name = strokelongcomb.case;
}
);
layerId = "1E90A949-97C4-49F5-AA9A-AF35B6FD63CF";
width = 914;
}
);
leftKerningGroup = KERN_I_2ND;
rightKerningGroup = KERN_I_1ST;
unicode = 0126;
},
{
color = 3;
glyphname = I;
lastChange = "2016-11-14 22:55:47 +0000";
layers = (
{
anchors = (
{
name = bottom;
position = "{101, 0}";
},
{
name = ogonek;
position = "{118, 0}";
},
{
name = top;
position = "{101, 760}";
}
);
background = {
anchors = (
{
name = bottom;
position = "{104, 0}";
},
{
name = ogonek;
position = "{118, 0}";
},
{
name = topUC;
position = "{104, 760}";
}
);
paths = (
{
closed = 1;
nodes = (
"84 0 LINE",
"118 0 LINE",
"118 740 LINE",
"84 740 LINE"
);
}
);
};
color = -1;
layerId = "ECFF4977-BDCC-4836-B4AC-1801CF0EB460";
paths = (
{
closed = 1;
nodes = (
"118 0 LINE",
"118 740 LINE",
"84 740 LINE",
"84 0 LINE"
);
}
);
width = 202;
},
{
anchors = (
{
name = bottom;
position = "{148, 0}";
},
{
name = ogonek;
position = "{245, 0}";
},
{
name = top;
position = "{148, 805}";
}
);
background = {
anchors = (
{
name = bottom;
position = "{148, 0}";
},
{
name = ogonek;
position = "{245, 0}";
},
{
name = topUC;
position = "{148, 805}";
}
);
paths = (
{
closed = 1;
nodes = (
"50 0 LINE",
"245 0 LINE",
"245 740 LINE",
"50 740 LINE"
);
}
);
};
layerId = "C8FFBC04-9D7C-494A-A42D-BACB8E26599D";
paths = (
{
closed = 1;
nodes = (
"245 0 LINE",
"245 740 LINE",
"50 740 LINE",
"50 0 LINE"
);
}
);
width = 295;
},
{
anchors = (
{
name = bottom;
position = "{122, 0}";
},
{
name = ogonek;
position = "{139, 0}";
},
{
name = top;
position = "{122, 760}";
}
);
background = {
anchors = (
{
name = bottom;
position = "{123, 0}";
},
{
name = ogonek;
position = "{139, 0}";
},
{
name = topUC;
position = "{123, 760}";
}
);
paths = (
{
closed = 1;
nodes = (
"105 0 LINE",
"139 0 LINE",
"139 740 LINE",
"105 740 LINE"
);
}
);
};
color = -1;
layerId = "E28BEEB5-BD92-4E7A-B4EA-FC5E5BBBF580";
paths = (
{
closed = 1;
nodes = (
"139 0 LINE",
"139 740 LINE",
"105 740 LINE",
"105 0 LINE"
);
}
);
width = 244;
},
{
anchors = (
{
name = bottom;
position = "{183, -110}";
},
{
name = ogonek;
position = "{183, 54}";
},
{
name = top;
position = "{188, 885}";
}
);
background = {
anchors = (
{
name = bottom;
position = "{183, -110}";
},
{
name = ogonek;
position = "{183, 54}";
},
{
name = topUC;
position = "{188, 885}";
}
);
paths = (
{
closed = 1;
nodes = (
"65 0 LINE",
"300 0 LINE",
"300 740 LINE",
"65 740 LINE"
);
}
);
};
layerId = "1E90A949-97C4-49F5-AA9A-AF35B6FD63CF";
paths = (
{
closed = 1;
nodes = (
"300 0 LINE",
"300 740 LINE",
"65 740 LINE",
"65 0 LINE"
);
}
);
width = 365;
}
);
leftKerningGroup = KERN_I_2ND;
leftMetricsKey = H;
rightKerningGroup = KERN_I_1ST;
rightMetricsKey = H;
unicode = 0049;
userData = {
com.typemytype.robofont.layerData = {
};
};
},
{
color = 3;
glyphname = J;
lastChange = "2016-11-10 15:06:02 +0000";
layers = (
{
anchors = (
{
name = bottom;
position = "{140, 0}";
},
{
name = top;
position = "{103, 760}";
}
);
background = {
anchors = (
{
name = topUC;
position = "{98, 760}";
}
);
paths = (
{
closed = 1;
nodes = (
"25 -175 LINE",
"90 -54 OFFCURVE",
"120 57 OFFCURVE",
"120 180 CURVE SMOOTH",
"120 740 LINE",
"86 740 LINE",
"86 180 LINE SMOOTH",
"86 50 OFFCURVE",
"70 -12 OFFCURVE",
"1 -159 CURVE"
);
}
);
};
color = 4;
layerId = "ECFF4977-BDCC-4836-B4AC-1801CF0EB460";
paths = (
{
closed = 1;
nodes = (
"91 -68 OFFCURVE",
"116 11 OFFCURVE",
"120 128 CURVE",
"120 740 LINE",
"86 740 LINE",
"86 143 LINE SMOOTH",
"86 18 OFFCURVE",
"61 -58 OFFCURVE",
"1 -153 CURVE",
"26 -170 LINE"
);
}
);
width = 204;
},
{
anchors = (
{
name = top;
position = "{153, 805}";
}
);
background = {
anchors = (
{
name = topUC;
position = "{153, 805}";
}
);
paths = (
{
closed = 1;
nodes = (
"99 -214 LINE",
"209 -62 OFFCURVE",
"247 40 OFFCURVE",
"247 180 CURVE SMOOTH",
"247 740 LINE",
"51 740 LINE",
"51 198 LINE SMOOTH",
"51 56 OFFCURVE",
"34 -28 OFFCURVE",
"-23 -160 CURVE"
);
}
);
};
layerId = "C8FFBC04-9D7C-494A-A42D-BACB8E26599D";
paths = (
{
closed = 1;
nodes = (
"209 -62 OFFCURVE",
"247 40 OFFCURVE",
"247 180 CURVE SMOOTH",
"247 740 LINE",
"51 740 LINE",
"51 198 LINE SMOOTH",
"51 56 OFFCURVE",
"34 -28 OFFCURVE",
"-23 -160 CURVE",
"99 -214 LINE"
);
}
);
width = 297;
},
{
anchors = (
{
name = bottom;
position = "{173, 0}";
},
{
name = top;
position = "{124, 760}";
}
);
background = {
paths = (
{
closed = 1;
nodes = (
"123 -28 OFFCURVE",
"141 48 OFFCURVE",
"141 180 CURVE SMOOTH",
"141 740 LINE",
"107 740 LINE",
"107 180 LINE SMOOTH",
"107 44 OFFCURVE",
"88 -40 OFFCURVE",
"28 -161 CURVE",
"57 -177 LINE"
);
}
);
};
color = 4;
layerId = "E28BEEB5-BD92-4E7A-B4EA-FC5E5BBBF580";
paths = (
{
closed = 1;
nodes = (
"105 -74 OFFCURVE",
"134 11 OFFCURVE",
"141 125 CURVE",
"141 740 LINE",
"107 740 LINE",
"107 143 LINE SMOOTH",
"107 28 OFFCURVE",
"74 -64 OFFCURVE",
"1 -152 CURVE",
"25 -170 LINE"
);
}
);
width = 246;
},
{
anchors = (
{
name = top;
position = "{184, 885}";
}
);
background = {
anchors = (
{
name = topUC;
position = "{184, 885}";
}
);
paths = (
{
closed = 1;
nodes = (
"141 -220 LINE",
"261 -62 OFFCURVE",
"302 42 OFFCURVE",
"302 184 CURVE SMOOTH",
"302 740 LINE",
"67 740 LINE",
"67 202 LINE SMOOTH",
"67 64 OFFCURVE",
"49 -21 OFFCURVE",
"-8 -156 CURVE"
);
}
);
};
layerId = "1E90A949-97C4-49F5-AA9A-AF35B6FD63CF";
paths = (
{
closed = 1;
nodes = (
"261 -62 OFFCURVE",
"302 42 OFFCURVE",
"302 184 CURVE SMOOTH",
"302 740 LINE",
"67 740 LINE",
"67 202 LINE SMOOTH",
"67 64 OFFCURVE",
"49 -21 OFFCURVE",
"-8 -156 CURVE",
"141 -220 LINE"
);
}
);
width = 367;
}
);
leftKerningGroup = KERN_J_2ND;
widthMetricsKey = "=I+2";
rightKerningGroup = KERN_J_1ST;
rightMetricsKey = H;
unicode = 004A;
userData = {
com.typemytype.robofont.layerData = {
};
};
},
{
color = 3;
glyphname = K;
lastChange = "2016-11-10 15:08:13 +0000";
layers = (
{
anchors = (
{
name = bottom;
position = "{280, 0}";
},
{
name = top;
position = "{280, 740}";
}
);
background = {
paths = (
{
closed = 1;
nodes = (
"200 381 LINE",
"499 0 LINE",
"540 0 LINE",
"263 353 LINE",
"237 376 LINE",
"237 380 LINE",
"261 405 LINE",
"520 740 LINE",
"477 740 LINE"
);
},
{
closed = 1;
nodes = (
"118 740 LINE",
"84 740 LINE",
"84 0 LINE",
"118 0 LINE"
);
},
{
closed = 1;
nodes = (
"110 364 LINE",
"226 364 LINE",
"218 397 LINE",
"110 397 LINE"
);
}
);
};
color = 4;
layerId = "ECFF4977-BDCC-4836-B4AC-1801CF0EB460";
paths = (
{
closed = 1;
nodes = (
"201 379 LINE",
"498 0 LINE",
"541 0 LINE",
"238 387 LINE",
"238 375 LINE",
"520 740 LINE",
"478 740 LINE"
);
},
{
closed = 1;
nodes = (
"118 740 LINE",
"84 740 LINE",
"84 0 LINE",
"118 0 LINE"
);
},
{
closed = 1;
nodes = (
"110 364 LINE",
"222 364 LINE",
"222 396 LINE",
"110 396 LINE"
);
}
);
width = 544;
},
{
anchors = (
{
name = bottom;
position = "{329, 0}";
}
);
background = {
anchors = (
{
name = bottom;
position = "{329, 0}";
}
);
paths = (
{
closed = 1;
nodes = (
"50 0 LINE",
"245 0 LINE",
"245 297 LINE",
"305 297 LINE",
"436 0 LINE",
"652 0 LINE",
"495 345 LINE",
"430 373 LINE",
"430 380 LINE",
"494 408 LINE",
"631 740 LINE",
"417 740 LINE",
"314 459 LINE",
"245 459 LINE",
"245 740 LINE",
"50 740 LINE"
);
}
);
};
layerId = "C8FFBC04-9D7C-494A-A42D-BACB8E26599D";
paths = (
{
closed = 1;
nodes = (
"245 0 LINE",
"245 297 LINE",
"305 297 LINE",
"436 0 LINE",
"652 0 LINE",
"495 345 LINE",
"430 373 LINE",
"430 380 LINE",
"494 408 LINE",
"631 740 LINE",
"417 740 LINE",
"314 459 LINE",
"245 459 LINE",
"245 740 LINE",
"50 740 LINE",
"50 0 LINE"
);
}
);
width = 641;
},
{
anchors = (
{
name = bottom;
position = "{335, 0}";
},
{
name = top;
position = "{335, 740}";
}
);
background = {
anchors = (
{
name = bottom;
position = "{346, 0}";
}
);
paths = (
{
closed = 1;
nodes = (
"105 0 LINE",
"139 0 LINE",
"139 362 LINE",
"332 362 LINE",
"600 0 LINE",
"643 0 LINE",
"382 352 LINE",
"356 376 LINE",
"356 382 LINE",
"379 406 LINE",
"626 740 LINE",
"583 740 LINE",
"328 396 LINE",
"139 396 LINE",
"139 740 LINE",
"105 740 LINE"
);
}
);
};
color = 4;
layerId = "E28BEEB5-BD92-4E7A-B4EA-FC5E5BBBF580";
paths = (
{
closed = 1;
nodes = (
"283 379 LINE",
"606 0 LINE",
"651 0 LINE",
"322 387 LINE",
"322 375 LINE",
"630 740 LINE",
"586 740 LINE"
);
},
{
closed = 1;
nodes = (
"139 740 LINE",
"105 740 LINE",
"105 0 LINE",
"139 0 LINE"
);
},
{
closed = 1;
nodes = (
"131 364 LINE",
"306 364 LINE",
"306 397 LINE",
"131 397 LINE"
);
}
);
width = 658;
},
{
anchors = (
{
name = bottom;
position = "{408, -110}";
}
);
background = {
anchors = (
{
name = bottom;
position = "{408, -110}";
}
);
paths = (
{
closed = 1;
nodes = (
"65 0 LINE",
"300 0 LINE",
"300 282 LINE",
"408 282 LINE",
"562 0 LINE",
"823 0 LINE",
"607 357 LINE",
"549 385 LINE",
"549 395 LINE",
"604 421 LINE",
"806 740 LINE",
"545 740 LINE",
"387 458 LINE",
"300 458 LINE",
"300 740 LINE",
"65 740 LINE"
);
}
);
};
layerId = "1E90A949-97C4-49F5-AA9A-AF35B6FD63CF";
paths = (
{
closed = 1;
nodes = (
"300 0 LINE",
"300 282 LINE",
"408 282 LINE",
"562 0 LINE",
"823 0 LINE",
"607 357 LINE",
"549 385 LINE",
"549 395 LINE",
"604 421 LINE",
"806 740 LINE",
"545 740 LINE",
"387 458 LINE",
"300 458 LINE",
"300 740 LINE",
"65 740 LINE",
"65 0 LINE"
);
}
);
width = 810;
}
);
leftKerningGroup = KERN_I_2ND;
leftMetricsKey = H;
rightKerningGroup = KERN_K_1ST;
unicode = 004B;
userData = {
com.typemytype.robofont.layerData = {
};
};
},
{
color = 3;
glyphname = L;
lastChange = "2016-11-10 15:15:37 +0000";
layers = (
{
anchors = (
{
name = bottom;
position = "{265, 0}";
},
{
name = caronalt;
position = "{343, 740}";
},
{
name = periodcentered;
position = "{282, 387}";
},
{
name = slash;
position = "{101, 387}";
},
{
name = top;
position = "{101, 760}";
}
);
background = {
anchors = (
{
name = bottom;
position = "{231, 0}";
},
{
name = caronalt;
position = "{335, 740}";
},
{
name = periodcentered;
position = "{287, 370}";
},
{
name = topUC;
position = "{117, 760}";
}
);
paths = (
{
closed = 1;
nodes = (
"458 0 LINE",
"458 33 LINE",
"118 33 LINE",
"118 707 LINE",
"453 707 LINE",
"453 740 LINE",
"84 740 LINE",
"84 0 LINE"
);
},
{
closed = 1;
nodes = (
"408 364 LINE",
"408 397 LINE",
"114 397 LINE",
"114 364 LINE"
);
}
);
};
color = 4;
layerId = "ECFF4977-BDCC-4836-B4AC-1801CF0EB460";
paths = (
{
closed = 1;
nodes = (
"445 0 LINE",
"445 33 LINE",
"118 33 LINE",
"118 740 LINE",
"84 740 LINE",
"84 0 LINE"
);
}
);
width = 453;
},
{
anchors = (
{
name = bottom;
position = "{259, 0}";
},
{
name = caronalt;
position = "{399, 674}";
},
{
name = periodcentered;
position = "{399, 370}";
},
{
name = slash;
position = "{152, 387}";
},
{
name = top;
position = "{152, 805}";
}
);
background = {
anchors = (
{
name = bottom;
position = "{259, 0}";
},
{
name = caronalt;
position = "{399, 674}";
},
{
name = periodcentered;
position = "{399, 370}";
},
{
name = topUC;
position = "{152, 805}";
}
);
paths = (
{
closed = 1;
nodes = (
"50 0 LINE",
"468 0 LINE",
"468 162 LINE",
"245 162 LINE",
"245 740 LINE",
"50 740 LINE"
);
}
);
};
layerId = "C8FFBC04-9D7C-494A-A42D-BACB8E26599D";
paths = (
{
closed = 1;
nodes = (
"468 0 LINE",
"468 162 LINE",
"245 162 LINE",
"245 740 LINE",
"50 740 LINE",
"50 0 LINE"
);
}
);
width = 480;
},
{
anchors = (
{
name = bottom;
position = "{337, 0}";
},
{
name = caronalt;
position = "{446, 740}";
},
{
name = periodcentered;
position = "{354, 387}";
},
{
name = slash;
position = "{122, 387}";
},
{
name = top;
position = "{122, 760}";
}
);
background = {
anchors = (
{
name = bottom;
position = "{315, 0}";
},
{
name = caronalt;
position = "{446, 740}";
},
{
name = periodcentered;
position = "{446, 370}";
},
{
name = topUC;
position = "{125, 760}";
}
);
paths = (
{
closed = 1;
nodes = (
"585 0 LINE",
"585 33 LINE",
"139 33 LINE",
"139 707 LINE",
"580 707 LINE",
"580 740 LINE",
"105 740 LINE",
"105 0 LINE"
);
},
{
closed = 1;
nodes = (
"530 364 LINE",
"530 397 LINE",
"135 397 LINE",
"135 364 LINE"
);
}
);
};
color = 4;
layerId = "E28BEEB5-BD92-4E7A-B4EA-FC5E5BBBF580";
paths = (
{
closed = 1;
nodes = (
"568 0 LINE",
"568 33 LINE",
"139 33 LINE",
"139 740 LINE",
"105 740 LINE",
"105 0 LINE"
);
}
);
width = 575;
},
{
anchors = (
{
name = bottom;
position = "{333, -110}";
},
{
name = caronalt;
position = "{547, 674}";
},
{
name = periodcentered;
position = "{547, 370}";
},
{
name = slash;
position = "{185, 387}";
},
{
name = top;
position = "{185, 885}";
}
);
background = {
anchors = (
{
name = bottom;
position = "{333, -110}";
},
{
name = caronalt;
position = "{547, 674}";
},
{
name = periodcentered;
position = "{547, 370}";
},
{
name = topUC;
position = "{185, 885}";
}
);
paths = (
{
closed = 1;
nodes = (
"65 0 LINE",
"631 0 LINE",
"631 175 LINE",
"300 175 LINE",
"300 740 LINE",
"65 740 LINE"
);
}
);
};
layerId = "1E90A949-97C4-49F5-AA9A-AF35B6FD63CF";
paths = (
{
closed = 1;
nodes = (
"631 0 LINE",
"631 175 LINE",
"300 175 LINE",
"300 740 LINE",
"65 740 LINE",
"65 0 LINE"
);
}
);
width = 644;
}
);
leftKerningGroup = KERN_I_2ND;
leftMetricsKey = H;
rightKerningGroup = KERN_L_1ST;
unicode = 004C;
userData = {
com.typemytype.robofont.layerData = {
};
};
},
{
color = 3;
glyphname = Lslash;
lastChange = "2016-11-11 10:56:50 +0000";
layers = (
{
background = {
components = (
{
name = L;
transform = "{1, 0, 0, 1, 25, 0}";
}
);
paths = (
{
closed = 1;
nodes = (
"13 220 LINE",
"237 440 LINE",
"237 487 LINE",
"13 267 LINE"
);
}
);
};
color = 4;
components = (
{
name = L;
},
{
name = slashshortcomb.case;
transform = "{1, 0, 0, 1, -99, 0}";
}
);
layerId = "ECFF4977-BDCC-4836-B4AC-1801CF0EB460";
width = 453;
},
{
background = {
components = (
{
name = L;
transform = "{1, 0, 0, 1, 15, 0}";
}
);
paths = (
{
closed = 1;
nodes = (
"6 226 LINE",
"362 419 LINE",
"362 556 LINE",
"6 363 LINE"
);
}
);
};
components = (
{
name = L;
},
{
name = slashshortcomb.case;
transform = "{1, 0, 0, 1, -48, 37}";
}
);
layerId = "C8FFBC04-9D7C-494A-A42D-BACB8E26599D";
width = 480;
},
{
background = {
components = (
{
name = L;
transform = "{1, 0, 0, 1, 22, 0}";
}
);
paths = (
{
closed = 1;
nodes = (
"18 225 LINE",
"361 447 LINE",
"361 486 LINE",
"18 264 LINE"
);
}
);
};
color = 4;
components = (
{
name = L;
},
{
name = slashshortcomb.case;
transform = "{1, 0, 0, 1, -78, 0}";
}
);
layerId = "E28BEEB5-BD92-4E7A-B4EA-FC5E5BBBF580";
width = 575;
},
{
background = {
components = (
{
name = L;
transform = "{1, 0, 0, 1, 18, 0}";
}
);
paths = (
{
closed = 1;
nodes = (
"11 226 LINE",
"449 412 LINE",
"449 576 LINE",
"11 390 LINE"
);
}
);
};
components = (
{
name = L;
},
{
name = slashshortcomb.case;
transform = "{1, 0, 0, 1, -15, 37}";
}
);
layerId = "1E90A949-97C4-49F5-AA9A-AF35B6FD63CF";
width = 644;
}
);
leftKerningGroup = KERN_I_2ND;
rightKerningGroup = KERN_L_1ST;
unicode = 0141;
},
{
color = 3;
glyphname = M;
lastChange = "2016-11-10 15:46:11 +0000";
layers = (
{
anchors = (
{
name = bottom;
position = "{381, 0}";
},
{
name = top;
position = "{381, 740}";
}
);
background = {
paths = (
{
closed = 1;
nodes = (
"120 0 LINE",
"120 710 LINE",
"101 710 LINE",
"362 100 LINE",
"400 100 LINE",
"660 710 LINE",
"642 710 LINE",
"642 0 LINE",
"676 0 LINE",
"676 740 LINE",
"638 740 LINE",
"373 116 LINE",
"390 116 LINE",
"124 740 LINE",
"86 740 LINE",
"86 0 LINE"
);
}
);
};
color = 4;
layerId = "ECFF4977-BDCC-4836-B4AC-1801CF0EB460";
paths = (
{
closed = 1;
nodes = (
"119 0 LINE",
"119 710 LINE",
"101 710 LINE",
"362 100 LINE",
"400 100 LINE",
"660 710 LINE",
"643 710 LINE",
"643 0 LINE",
"676 0 LINE",
"676 740 LINE",
"638 740 LINE",
"374 116 LINE",
"390 116 LINE",
"124 740 LINE",
"86 740 LINE",
"86 0 LINE"
);
}
);
width = 762;
},
{
background = {
paths = (
{
closed = 1;
nodes = (
"52 0 LINE",
"230 0 LINE",
"230 510 LINE",
"236 510 LINE",
"270 379 LINE",
"370 40 LINE",
"531 40 LINE",
"633 379 LINE",
"665 510 LINE",
"671 510 LINE",
"671 0 LINE",
"853 0 LINE",
"853 740 LINE",
"572 740 LINE",
"477 419 LINE",
"456 289 LINE",
"448 289 LINE",
"427 419 LINE",
"333 740 LINE",
"52 740 LINE"
);
}
);
};
layerId = "C8FFBC04-9D7C-494A-A42D-BACB8E26599D";
paths = (
{
closed = 1;
nodes = (
"230 0 LINE",
"230 510 LINE",
"236 510 LINE",
"270 379 LINE",
"370 40 LINE",
"531 40 LINE",
"633 379 LINE",
"665 510 LINE",
"671 510 LINE",
"671 0 LINE",
"853 0 LINE",
"853 740 LINE",
"572 740 LINE",
"477 419 LINE",
"456 289 LINE",
"448 289 LINE",
"427 419 LINE",
"333 740 LINE",
"52 740 LINE",
"52 0 LINE"
);
}
);
width = 905;
},
{
anchors = (
{
name = bottom;
position = "{464, 0}";
},
{
name = top;
position = "{464, 740}";
}
);
background = {
paths = (
{
closed = 1;
nodes = (
"141 0 LINE",
"141 712 LINE",
"120 712 LINE",
"445 100 LINE",
"483 100 LINE",
"807 712 LINE",
"787 712 LINE",
"787 0 LINE",
"821 0 LINE",
"821 740 LINE",
"784 740 LINE",
"456 116 LINE",
"473 116 LINE",
"144 740 LINE",
"107 740 LINE",
"107 0 LINE"
);
}
);
};
color = 4;
layerId = "E28BEEB5-BD92-4E7A-B4EA-FC5E5BBBF580";
paths = (
{
closed = 1;
nodes = (
"140 0 LINE",
"140 712 LINE",
"120 712 LINE",
"445 100 LINE",
"483 100 LINE",
"807 712 LINE",
"788 712 LINE",
"788 0 LINE",
"821 0 LINE",
"821 740 LINE",
"784 740 LINE",
"457 116 LINE",
"473 116 LINE",
"144 740 LINE",
"107 740 LINE",
"107 0 LINE"
);
}
);
width = 928;
},
{
background = {
paths = (
{
closed = 1;
nodes = (
"67 0 LINE",
"271 0 LINE",
"271 492 LINE",
"281 492 LINE",
"351 269 LINE",
"452 27 LINE",
"636 27 LINE",
"737 269 LINE",
"807 492 LINE",
"817 492 LINE",
"817 0 LINE",
"1021 0 LINE",
"1021 740 LINE",
"706 740 LINE",
"591 445 LINE",
"547 290 LINE",
"541 290 LINE",
"497 445 LINE",
"382 740 LINE",
"67 740 LINE"
);
}
);
};
layerId = "1E90A949-97C4-49F5-AA9A-AF35B6FD63CF";
paths = (
{
closed = 1;
nodes = (
"271 0 LINE",
"271 492 LINE",
"281 492 LINE",
"351 269 LINE",
"452 27 LINE",
"636 27 LINE",
"737 269 LINE",
"807 492 LINE",
"817 492 LINE",
"817 0 LINE",
"1021 0 LINE",
"1021 740 LINE",
"706 740 LINE",
"591 445 LINE",
"547 290 LINE",
"541 290 LINE",
"497 445 LINE",
"382 740 LINE",
"67 740 LINE",
"67 0 LINE"
);
}
);
width = 1088;
}
);
leftKerningGroup = KERN_I_2ND;
leftMetricsKey = "=H+2";
rightKerningGroup = KERN_I_1ST;
rightMetricsKey = "=H+2";
unicode = 004D;
userData = {
com.typemytype.robofont.layerData = {
};
};
},
{
color = 3;
glyphname = N;
lastChange = "2016-11-10 15:47:09 +0000";
layers = (
{
anchors = (
{
name = bottom;
position = "{314, 0}";
},
{
name = top;
position = "{314, 760}";
}
);
background = {
paths = (
{
closed = 1;
nodes = (
"118 0 LINE",
"118 710 LINE",
"101 710 LINE",
"506 0 LINE",
"544 0 LINE",
"544 740 LINE",
"510 740 LINE",
"510 30 LINE",
"527 30 LINE",
"122 740 LINE",
"84 740 LINE",
"84 0 LINE"
);
}
);
};
color = 4;
layerId = "ECFF4977-BDCC-4836-B4AC-1801CF0EB460";
paths = (
{
closed = 1;
nodes = (
"117 0 LINE",
"117 710 LINE",
"101 710 LINE",
"506 0 LINE",
"544 0 LINE",
"544 740 LINE",
"511 740 LINE",
"511 30 LINE",
"527 30 LINE",
"122 740 LINE",
"84 740 LINE",
"84 0 LINE"
);
}
);
width = 628;
},
{
anchors = (
{
name = bottom;
position = "{347, 0}";
},
{
name = top;
position = "{332, 805}";
}
);
background = {
anchors = (
{
name = bottom;
position = "{347, 0}";
},
{
name = topUC;
position = "{332, 805}";
}
);
paths = (
{
closed = 1;
nodes = (
"50 0 LINE",
"220 0 LINE",
"220 402 LINE",
"231 402 LINE",
"266 327 LINE",
"480 0 LINE",
"639 0 LINE",
"639 740 LINE",
"469 740 LINE",
"469 341 LINE",
"458 341 LINE",
"421 418 LINE",
"210 740 LINE",
"50 740 LINE"
);
}
);
};
layerId = "C8FFBC04-9D7C-494A-A42D-BACB8E26599D";
paths = (
{
closed = 1;
nodes = (
"220 0 LINE",
"220 402 LINE",
"231 402 LINE",
"266 327 LINE",
"480 0 LINE",
"639 0 LINE",
"639 740 LINE",
"469 740 LINE",
"469 341 LINE",
"458 341 LINE",
"421 418 LINE",
"210 740 LINE",
"50 740 LINE",
"50 0 LINE"
);
}
);
width = 689;
},
{
anchors = (
{
name = bottom;
position = "{399, 0}";
},
{
name = top;
position = "{399, 760}";
}
);
background = {
paths = (
{
closed = 1;
nodes = (
"139 0 LINE",
"139 710 LINE",
"121 710 LINE",
"655 0 LINE",
"692 0 LINE",
"692 740 LINE",
"658 740 LINE",
"658 30 LINE",
"676 30 LINE",
"142 740 LINE",
"105 740 LINE",
"105 0 LINE"
);
}
);
};
color = 4;
layerId = "E28BEEB5-BD92-4E7A-B4EA-FC5E5BBBF580";
paths = (
{
closed = 1;
nodes = (
"138 0 LINE",
"138 710 LINE",
"122 710 LINE",
"655 0 LINE",
"692 0 LINE",
"692 740 LINE",
"659 740 LINE",
"659 30 LINE",
"675 30 LINE",
"142 740 LINE",
"105 740 LINE",
"105 0 LINE"
);
}
);
width = 797;
},
{
anchors = (
{
name = bottom;
position = "{456, -110}";
},
{
name = top;
position = "{456, 885}";
}
);
background = {
anchors = (
{
name = bottom;
position = "{456, -110}";
},
{
name = topUC;
position = "{456, 885}";
}
);
paths = (
{
closed = 1;
nodes = (
"65 0 LINE",
"269 0 LINE",
"269 412 LINE",
"279 412 LINE",
"360 312 LINE",
"635 0 LINE",
"817 0 LINE",
"817 740 LINE",
"613 740 LINE",
"613 328 LINE",
"603 328 LINE",
"536 412 LINE",
"247 740 LINE",
"65 740 LINE"
);
}
);
};
layerId = "1E90A949-97C4-49F5-AA9A-AF35B6FD63CF";
paths = (
{
closed = 1;
nodes = (
"269 0 LINE",
"269 412 LINE",
"279 412 LINE",
"360 312 LINE",
"635 0 LINE",
"817 0 LINE",
"817 740 LINE",
"613 740 LINE",
"613 328 LINE",
"603 328 LINE",
"536 412 LINE",
"247 740 LINE",
"65 740 LINE",
"65 0 LINE"
);
}
);
width = 882;
}
);
leftKerningGroup = KERN_I_2ND;
leftMetricsKey = H;
rightKerningGroup = KERN_I_1ST;
rightMetricsKey = H;
unicode = 004E;
userData = {
com.typemytype.robofont.layerData = {
};
};
},
{
color = 3;
glyphname = Eng;
lastChange = "2016-11-10 23:14:20 +0000";
layers = (
{
background = {
paths = (
{
closed = 1;
nodes = (
"117 0 LINE",
"117 710 LINE",
"101 710 LINE",
"506 0 LINE",
"544 0 LINE",
"544 740 LINE",
"511 740 LINE",
"511 30 LINE",
"527 30 LINE",
"122 740 LINE",
"84 740 LINE",
"84 0 LINE"
);
},
{
closed = 1;
nodes = (
"516 -128 OFFCURVE",
"540 -49 OFFCURVE",
"544 68 CURVE",
"544 540 LINE",
"511 540 LINE",
"511 83 LINE SMOOTH",
"511 -42 OFFCURVE",
"486 -118 OFFCURVE",
"426 -213 CURVE",
"451 -230 LINE"
);
}
);
};
color = 4;
layerId = "ECFF4977-BDCC-4836-B4AC-1801CF0EB460";
paths = (
{
closed = 1;
nodes = (
"117 0 LINE",
"117 710 LINE",
"101 710 LINE",
"515 -16 LINE",
"536 14 LINE",
"122 740 LINE",
"84 740 LINE",
"84 0 LINE"
);
},
{
closed = 1;
nodes = (
"516 -128 OFFCURVE",
"540 -49 OFFCURVE",
"544 68 CURVE",
"544 740 LINE",
"511 740 LINE",
"511 83 LINE SMOOTH",
"511 -42 OFFCURVE",
"486 -118 OFFCURVE",
"426 -213 CURVE",
"451 -230 LINE"
);
}
);
width = 628;
},
{
background = {
paths = (
{
closed = 1;
nodes = (
"506 -212 LINE",
"581 -95 OFFCURVE",
"639 55 OFFCURVE",
"639 132 CURVE",
"639 740 LINE",
"466 740 LINE",
"466 338 LINE",
"455 338 LINE",
"420 418 LINE",
"208 740 LINE",
"50 740 LINE",
"50 0 LINE",
"223 0 LINE",
"223 405 LINE",
"234 405 LINE",
"267 327 LINE",
"435 72 LINE",
"427 -6 OFFCURVE",
"409 -88 OFFCURVE",
"382 -171 CURVE"
);
}
);
};
layerId = "C8FFBC04-9D7C-494A-A42D-BACB8E26599D";
paths = (
{
closed = 1;
nodes = (
"581 -95 OFFCURVE",
"639 55 OFFCURVE",
"639 132 CURVE",
"639 740 LINE",
"466 740 LINE",
"466 338 LINE",
"455 338 LINE",
"420 418 LINE",
"208 740 LINE",
"50 740 LINE",
"50 0 LINE",
"223 0 LINE",
"223 405 LINE",
"234 405 LINE",
"267 327 LINE",
"435 72 LINE",
"427 -6 OFFCURVE",
"409 -88 OFFCURVE",
"382 -171 CURVE",
"506 -212 LINE"
);
}
);
width = 689;
},
{
background = {
paths = (
{
closed = 1;
nodes = (
"138 0 LINE",
"138 710 LINE",
"122 710 LINE",
"655 0 LINE",
"692 0 LINE",
"692 740 LINE",
"659 740 LINE",
"659 30 LINE",
"675 30 LINE",
"142 740 LINE",
"105 740 LINE",
"105 0 LINE"
);
}
);
};
color = 4;
layerId = "E28BEEB5-BD92-4E7A-B4EA-FC5E5BBBF580";
paths = (
{
closed = 1;
nodes = (
"138 0 LINE",
"138 710 LINE",
"122 710 LINE",
"659 -5 LINE",
"679 25 LINE",
"142 740 LINE",
"105 740 LINE",
"105 0 LINE"
);
},
{
closed = 1;
nodes = (
"657 -134 OFFCURVE",
"685 -49 OFFCURVE",
"692 65 CURVE",
"692 740 LINE",
"659 740 LINE",
"659 83 LINE SMOOTH",
"659 -32 OFFCURVE",
"626 -124 OFFCURVE",
"553 -212 CURVE",
"577 -230 LINE"
);
}
);
width = 797;
},
{
background = {
paths = (
{
closed = 1;
nodes = (
"672 -220 LINE",
"753 -108 OFFCURVE",
"817 50 OFFCURVE",
"817 137 CURVE",
"817 740 LINE",
"610 740 LINE",
"610 327 LINE",
"600 327 LINE",
"533 412 LINE",
"242 740 LINE",
"65 740 LINE",
"65 0 LINE",
"272 0 LINE",
"272 413 LINE",
"282 413 LINE",
"363 312 LINE",
"595 51 LINE",
"587 -17 OFFCURVE",
"568 -71 OFFCURVE",
"519 -169 CURVE"
);
}
);
};
layerId = "1E90A949-97C4-49F5-AA9A-AF35B6FD63CF";
paths = (
{
closed = 1;
nodes = (
"753 -108 OFFCURVE",
"817 50 OFFCURVE",
"817 137 CURVE",
"817 740 LINE",
"610 740 LINE",
"610 327 LINE",
"600 327 LINE",
"533 412 LINE",
"242 740 LINE",
"65 740 LINE",
"65 0 LINE",
"272 0 LINE",
"272 413 LINE",
"282 413 LINE",
"363 312 LINE",
"595 51 LINE",
"587 -17 OFFCURVE",
"568 -71 OFFCURVE",
"519 -169 CURVE",
"672 -220 LINE"
);
}
);
width = 882;
}
);
leftKerningGroup = KERN_I_2ND;
leftMetricsKey = H;
rightKerningGroup = KERN_I_1ST;
rightMetricsKey = H;
unicode = 014A;
},
{
color = 3;
glyphname = O;
lastChange = "2016-11-11 10:19:41 +0000";
layers = (
{
anchors = (
{
name = bottom;
position = "{292, 0}";
},
{
name = center;
position = "{292, 370}";
},
{
name = ogonek;
position = "{362, 0}";
},
{
name = top;
position = "{292, 760}";
},
{
name = topleft;
position = "{20, 740}";
},
{
name = topright;
position = "{362, 740}";
}
);
background = {
paths = (
{
closed = 1;
nodes = (
"438 -9 OFFCURVE",
"534 91 OFFCURVE",
"534 370 CURVE SMOOTH",
"534 649 OFFCURVE",
"440 749 OFFCURVE",
"292 749 CURVE SMOOTH",
"144 749 OFFCURVE",
"50 649 OFFCURVE",
"50 370 CURVE SMOOTH",
"50 91 OFFCURVE",
"146 -9 OFFCURVE",
"292 -9 CURVE SMOOTH"
);
},
{
closed = 1;
nodes = (
"168 24 OFFCURVE",
"86 103 OFFCURVE",
"86 372 CURVE SMOOTH",
"86 637 OFFCURVE",
"168 716 OFFCURVE",
"292 716 CURVE SMOOTH",
"416 716 OFFCURVE",
"498 637 OFFCURVE",
"498 368 CURVE SMOOTH",
"498 103 OFFCURVE",
"416 24 OFFCURVE",
"292 24 CURVE SMOOTH"
);
}
);
};
color = 4;
layerId = "ECFF4977-BDCC-4836-B4AC-1801CF0EB460";
paths = (
{
closed = 1;
nodes = (
"438 -9 OFFCURVE",
"534 91 OFFCURVE",
"534 370 CURVE SMOOTH",
"534 649 OFFCURVE",
"440 749 OFFCURVE",
"292 749 CURVE SMOOTH",
"144 749 OFFCURVE",
"50 649 OFFCURVE",
"50 370 CURVE SMOOTH",
"50 91 OFFCURVE",
"146 -9 OFFCURVE",
"292 -9 CURVE SMOOTH"
);
},
{
closed = 1;
nodes = (
"168 24 OFFCURVE",
"86 103 OFFCURVE",
"86 372 CURVE SMOOTH",
"86 637 OFFCURVE",
"168 716 OFFCURVE",
"292 716 CURVE SMOOTH",
"416 716 OFFCURVE",
"498 637 OFFCURVE",
"498 368 CURVE SMOOTH",
"498 103 OFFCURVE",
"416 24 OFFCURVE",
"292 24 CURVE SMOOTH"
);
}
);
width = 584;
},
{
anchors = (
{
name = bottom;
position = "{349, 0}";
},
{
name = ogonek;
position = "{444, 8}";
},
{
name = top;
position = "{344, 805}";
}
);
background = {
anchors = (
{
name = bottom;
position = "{349, 0}";
},
{
name = ogonek;
position = "{444, 8}";
},
{
name = topUC;
position = "{344, 805}";
}
);
paths = (
{
closed = 1;
nodes = (
"343 -10 CURVE SMOOTH",
"560 -10 OFFCURVE",
"662 111 OFFCURVE",
"662 369 CURVE SMOOTH",
"662 628 OFFCURVE",
"560 750 OFFCURVE",
"343 750 CURVE SMOOTH",
"130 750 OFFCURVE",
"26 625 OFFCURVE",
"26 369 CURVE SMOOTH",
"26 114 OFFCURVE",
"130 -10 OFFCURVE"
);
},
{
closed = 1;
nodes = (
"343 149 CURVE SMOOTH",
"255 149 OFFCURVE",
"226 204 OFFCURVE",
"226 369 CURVE SMOOTH",
"226 537 OFFCURVE",
"255 591 OFFCURVE",
"343 591 CURVE SMOOTH",
"435 591 OFFCURVE",
"462 540 OFFCURVE",
"462 369 CURVE SMOOTH",
"462 202 OFFCURVE",
"433 149 OFFCURVE"
);
}
);
};
layerId = "C8FFBC04-9D7C-494A-A42D-BACB8E26599D";
paths = (
{
closed = 1;
nodes = (
"560 -10 OFFCURVE",
"662 111 OFFCURVE",
"662 369 CURVE SMOOTH",
"662 628 OFFCURVE",
"560 750 OFFCURVE",
"343 750 CURVE SMOOTH",
"130 750 OFFCURVE",
"26 625 OFFCURVE",
"26 369 CURVE SMOOTH",
"26 114 OFFCURVE",
"130 -10 OFFCURVE",
"343 -10 CURVE SMOOTH"
);
},
{
closed = 1;
nodes = (
"255 149 OFFCURVE",
"226 204 OFFCURVE",
"226 369 CURVE SMOOTH",
"226 537 OFFCURVE",
"255 591 OFFCURVE",
"343 591 CURVE SMOOTH",
"435 591 OFFCURVE",
"462 540 OFFCURVE",
"462 369 CURVE SMOOTH",
"462 202 OFFCURVE",
"433 149 OFFCURVE",
"343 149 CURVE SMOOTH"
);
}
);
width = 688;
},
{
anchors = (
{
name = bottom;
position = "{388, 0}";
},
{
name = center;
position = "{388, 370}";
},
{
name = ogonek;
position = "{478, 0}";
},
{
name = top;
position = "{388, 760}";
},
{
name = topleft;
position = "{20, 740}";
},
{
name = topright;
position = "{477, 740}";
}
);
background = {
paths = (
{
closed = 1;
nodes = (
"579 -9 OFFCURVE",
"712 98 OFFCURVE",
"712 370 CURVE SMOOTH",
"712 642 OFFCURVE",
"576 749 OFFCURVE",
"388 749 CURVE SMOOTH",
"200 749 OFFCURVE",
"64 636 OFFCURVE",
"64 370 CURVE SMOOTH",
"64 104 OFFCURVE",
"197 -9 OFFCURVE",
"388 -9 CURVE SMOOTH"
);
},
{
closed = 1;
nodes = (
"218 25 OFFCURVE",
"100 121 OFFCURVE",
"100 372 CURVE SMOOTH",
"100 619 OFFCURVE",
"218 715 OFFCURVE",
"388 715 CURVE SMOOTH",
"558 715 OFFCURVE",
"676 619 OFFCURVE",
"676 368 CURVE SMOOTH",
"676 121 OFFCURVE",
"558 25 OFFCURVE",
"388 25 CURVE SMOOTH"
);
}
);
};
color = 4;
layerId = "E28BEEB5-BD92-4E7A-B4EA-FC5E5BBBF580";
paths = (
{
closed = 1;
nodes = (
"579 -9 OFFCURVE",
"712 98 OFFCURVE",
"712 370 CURVE SMOOTH",
"712 642 OFFCURVE",
"576 749 OFFCURVE",
"388 749 CURVE SMOOTH",
"200 749 OFFCURVE",
"64 636 OFFCURVE",
"64 370 CURVE SMOOTH",
"64 104 OFFCURVE",
"197 -9 OFFCURVE",
"388 -9 CURVE SMOOTH"
);
},
{
closed = 1;
nodes = (
"218 25 OFFCURVE",
"100 121 OFFCURVE",
"100 372 CURVE SMOOTH",
"100 619 OFFCURVE",
"218 715 OFFCURVE",
"388 715 CURVE SMOOTH",
"558 715 OFFCURVE",
"676 619 OFFCURVE",
"676 368 CURVE SMOOTH",
"676 121 OFFCURVE",
"558 25 OFFCURVE",
"388 25 CURVE SMOOTH"
);
}
);
width = 776;
},
{
anchors = (
{
name = bottom;
position = "{364, -110}";
},
{
name = ogonek;
position = "{364, 54}";
},
{
name = top;
position = "{432, 885}";
}
);
background = {
anchors = (
{
name = bottom;
position = "{364, -110}";
},
{
name = ogonek;
position = "{364, 54}";
},
{
name = topUC;
position = "{432, 885}";
}
);
paths = (
{
closed = 1;
nodes = (
"433 -10 CURVE",
"692 -10 OFFCURVE",
"834 124 OFFCURVE",
"834 369 CURVE SMOOTH",
"834 615 OFFCURVE",
"692 750 OFFCURVE",
"433 750 CURVE SMOOTH",
"172 750 OFFCURVE",
"32 617 OFFCURVE",
"32 369 CURVE SMOOTH",
"32 123 OFFCURVE",
"173 -10 OFFCURVE"
);
},
{
closed = 1;
nodes = (
"433 174 CURVE SMOOTH",
"306 174 OFFCURVE",
"272 207 OFFCURVE",
"272 369 CURVE SMOOTH",
"272 529 OFFCURVE",
"309 566 OFFCURVE",
"433 566 CURVE SMOOTH",
"556 566 OFFCURVE",
"594 526 OFFCURVE",
"594 369 CURVE SMOOTH",
"594 206 OFFCURVE",
"562 174 OFFCURVE"
);
}
);
};
layerId = "1E90A949-97C4-49F5-AA9A-AF35B6FD63CF";
paths = (
{
closed = 1;
nodes = (
"692 -10 OFFCURVE",
"834 124 OFFCURVE",
"834 369 CURVE SMOOTH",
"834 615 OFFCURVE",
"692 750 OFFCURVE",
"433 750 CURVE SMOOTH",
"172 750 OFFCURVE",
"32 617 OFFCURVE",
"32 369 CURVE SMOOTH",
"32 123 OFFCURVE",
"173 -10 OFFCURVE",
"433 -10 CURVE"
);
},
{
closed = 1;
nodes = (
"306 174 OFFCURVE",
"272 207 OFFCURVE",
"272 369 CURVE SMOOTH",
"272 529 OFFCURVE",
"309 566 OFFCURVE",
"433 566 CURVE SMOOTH",
"556 566 OFFCURVE",
"594 526 OFFCURVE",
"594 369 CURVE SMOOTH",
"594 206 OFFCURVE",
"562 174 OFFCURVE",
"433 174 CURVE SMOOTH"
);
}
);
width = 866;
}
);
leftKerningGroup = KERN_O_2ND;
rightKerningGroup = KERN_O_1ST;
unicode = 004F;
userData = {
com.typemytype.robofont.layerData = {
};
};
},
{
color = 3;
glyphname = Ohorn;
lastChange = "2016-11-11 10:55:09 +0000";
layers = (
{
anchors = (
{
name = bottom;
position = "{292, 0}";
},
{
name = top;
position = "{292, 760}";
}
);
color = 4;
components = (
{
name = O;
}
);
layerId = "ECFF4977-BDCC-4836-B4AC-1801CF0EB460";
paths = (
{
closed = 1;
nodes = (
"401 707 LINE SMOOTH",
"485 707 OFFCURVE",
"535 752 OFFCURVE",
"535 826 CURVE SMOOTH",
"535 856 OFFCURVE",
"531 875 OFFCURVE",
"523 898 CURVE",
"490 898 LINE",
"497 875 OFFCURVE",
"502 855 OFFCURVE",
"502 827 CURVE SMOOTH",
"502 769 OFFCURVE",
"463 740 OFFCURVE",
"393 740 CURVE SMOOTH",
"373 740 OFFCURVE",
"332 749 OFFCURVE",
"292 749 CURVE",
"362 707 LINE"
);
}
);
width = 584;
},
{
components = (
{
name = O;
},
{
name = horncomb;
transform = "{1, 0, 0, 1, 26, 0}";
}
);
layerId = "C8FFBC04-9D7C-494A-A42D-BACB8E26599D";
width = 688;
},
{
anchors = (
{
name = bottom;
position = "{388, 0}";
},
{
name = top;
position = "{388, 760}";
}
);
color = 4;
components = (
{
name = O;
}
);
layerId = "E28BEEB5-BD92-4E7A-B4EA-FC5E5BBBF580";
paths = (
{
closed = 1;
nodes = (
"542 707 LINE SMOOTH",
"646 707 OFFCURVE",
"696 752 OFFCURVE",
"696 826 CURVE SMOOTH",
"696 856 OFFCURVE",
"692 875 OFFCURVE",
"683 898 CURVE",
"650 898 LINE",
"658 875 OFFCURVE",
"663 855 OFFCURVE",
"663 827 CURVE SMOOTH",
"663 769 OFFCURVE",
"624 740 OFFCURVE",
"534 740 CURVE SMOOTH",
"485 740 OFFCURVE",
"456 749 OFFCURVE",
"388 749 CURVE",
"477 707 LINE"
);
}
);
width = 776;
},
{
components = (
{
name = O;
},
{
name = horncomb;
transform = "{1, 0, 0, 1, 32, 0}";
}
);
layerId = "1E90A949-97C4-49F5-AA9A-AF35B6FD63CF";
width = 866;
}
);
leftMetricsKey = O;
widthMetricsKey = O;
unicode = 01A0;
},
{
color = 3;
glyphname = Oslash;
lastChange = "2016-11-11 10:56:25 +0000";
layers = (
{
anchors = (
{
name = bottom;
position = "{292, 0}";
},
{
name = top;
position = "{292, 760}";
}
);
background = {
anchors = (
{
name = topUC;
position = "{297, 760}";
}
);
paths = (
{
closed = 1;
nodes = (
"300 -10 CURVE SMOOTH",
"462 -10 OFFCURVE",
"544 117 OFFCURVE",
"544 369 CURVE SMOOTH",
"544 624 OFFCURVE",
"463 750 OFFCURVE",
"300 750 CURVE SMOOTH",
"136 750 OFFCURVE",
"56 625 OFFCURVE",
"56 369 CURVE SMOOTH",
"56 115 OFFCURVE",
"136 -10 OFFCURVE"
);
},
{
closed = 1;
nodes = (
"300 24 CURVE SMOOTH",
"154 24 OFFCURVE",
"90 129 OFFCURVE",
"90 369 CURVE SMOOTH",
"90 609 OFFCURVE",
"155 716 OFFCURVE",
"300 716 CURVE SMOOTH",
"442 716 OFFCURVE",
"510 604 OFFCURVE",
"510 369 CURVE SMOOTH",
"510 131 OFFCURVE",
"445 24 OFFCURVE"
);
},
{
closed = 1;
nodes = (
"25 0 LINE",
"65 0 LINE",
"575 740 LINE",
"536 740 LINE"
);
}
);
};
color = 4;
components = (
{
name = O;
},
{
name = slashcomb.case;
transform = "{1, 0, 0, 1, -8, 0}";
}
);
layerId = "ECFF4977-BDCC-4836-B4AC-1801CF0EB460";
width = 584;
},
{
anchors = (
{
name = top;
position = "{345, 805}";
}
);
background = {
anchors = (
{
name = topUC;
position = "{345, 805}";
}
);
paths = (
{
closed = 1;
nodes = (
"344 -10 CURVE SMOOTH",
"561 -10 OFFCURVE",
"663 111 OFFCURVE",
"663 369 CURVE SMOOTH",
"663 628 OFFCURVE",
"561 750 OFFCURVE",
"344 750 CURVE SMOOTH",
"131 750 OFFCURVE",
"27 625 OFFCURVE",
"27 369 CURVE SMOOTH",
"27 114 OFFCURVE",
"131 -10 OFFCURVE"
);
},
{
closed = 1;
nodes = (
"344 149 CURVE SMOOTH",
"256 149 OFFCURVE",
"227 204 OFFCURVE",
"227 369 CURVE SMOOTH",
"227 537 OFFCURVE",
"256 591 OFFCURVE",
"344 591 CURVE SMOOTH",
"436 591 OFFCURVE",
"463 540 OFFCURVE",
"463 369 CURVE SMOOTH",
"463 202 OFFCURVE",
"434 149 OFFCURVE"
);
},
{
closed = 1;
nodes = (
"-1 0 LINE",
"139 0 LINE",
"693 740 LINE",
"553 740 LINE"
);
}
);
};
components = (
{
name = slashcomb.case;
}
);
layerId = "C8FFBC04-9D7C-494A-A42D-BACB8E26599D";
paths = (
{
closed = 1;
nodes = (
"561 -10 OFFCURVE",
"663 111 OFFCURVE",
"663 369 CURVE SMOOTH",
"663 628 OFFCURVE",
"561 750 OFFCURVE",
"344 750 CURVE SMOOTH",
"131 750 OFFCURVE",
"27 625 OFFCURVE",
"27 369 CURVE SMOOTH",
"27 114 OFFCURVE",
"131 -10 OFFCURVE",
"344 -10 CURVE SMOOTH"
);
},
{
closed = 1;
nodes = (
"256 149 OFFCURVE",
"227 204 OFFCURVE",
"227 369 CURVE SMOOTH",
"227 537 OFFCURVE",
"256 591 OFFCURVE",
"344 591 CURVE SMOOTH",
"436 591 OFFCURVE",
"463 540 OFFCURVE",
"463 369 CURVE SMOOTH",
"463 202 OFFCURVE",
"434 149 OFFCURVE",
"344 149 CURVE SMOOTH"
);
}
);
width = 690;
},
{
anchors = (
{
name = bottom;
position = "{388, 0}";
},
{
name = top;
position = "{388, 760}";
}
);
background = {
anchors = (
{
name = topUC;
position = "{379, 760}";
}
);
paths = (
{
closed = 1;
nodes = (
"380 -10 CURVE",
"578 -10 OFFCURVE",
"697 122 OFFCURVE",
"697 369 CURVE SMOOTH",
"697 616 OFFCURVE",
"578 750 OFFCURVE",
"380 750 CURVE SMOOTH",
"182 750 OFFCURVE",
"63 616 OFFCURVE",
"63 369 CURVE SMOOTH",
"63 122 OFFCURVE",
"182 -10 OFFCURVE"
);
},
{
closed = 1;
nodes = (
"380 24 CURVE",
"202 24 OFFCURVE",
"97 152 OFFCURVE",
"97 369 CURVE SMOOTH",
"97 589 OFFCURVE",
"201 716 OFFCURVE",
"380 716 CURVE SMOOTH",
"559 716 OFFCURVE",
"663 589 OFFCURVE",
"663 369 CURVE SMOOTH",
"663 154 OFFCURVE",
"557 24 OFFCURVE"
);
},
{
closed = 1;
nodes = (
"61 0 LINE",
"104 0 LINE",
"694 740 LINE",
"650 740 LINE"
);
}
);
};
color = 4;
components = (
{
name = O;
},
{
name = slashcomb.case;
transform = "{1, 0, 0, 1, -12, 0}";
}
);
layerId = "E28BEEB5-BD92-4E7A-B4EA-FC5E5BBBF580";
width = 776;
},
{
anchors = (
{
name = top;
position = "{434, 885}";
}
);
background = {
anchors = (
{
name = topUC;
position = "{434, 885}";
}
);
paths = (
{
closed = 1;
nodes = (
"434 -10 CURVE",
"693 -10 OFFCURVE",
"835 124 OFFCURVE",
"835 369 CURVE SMOOTH",
"835 615 OFFCURVE",
"693 750 OFFCURVE",
"434 750 CURVE SMOOTH",
"173 750 OFFCURVE",
"33 617 OFFCURVE",
"33 369 CURVE SMOOTH",
"33 123 OFFCURVE",
"174 -10 OFFCURVE"
);
},
{
closed = 1;
nodes = (
"434 174 CURVE SMOOTH",
"307 174 OFFCURVE",
"273 207 OFFCURVE",
"273 369 CURVE SMOOTH",
"273 529 OFFCURVE",
"310 566 OFFCURVE",
"434 566 CURVE SMOOTH",
"557 566 OFFCURVE",
"595 526 OFFCURVE",
"595 369 CURVE SMOOTH",
"595 206 OFFCURVE",
"563 174 OFFCURVE"
);
},
{
closed = 1;
nodes = (
"5 0 LINE",
"166 0 LINE",
"863 740 LINE",
"702 740 LINE"
);
}
);
};
components = (
{
name = slashcomb.case;
}
);
layerId = "1E90A949-97C4-49F5-AA9A-AF35B6FD63CF";
paths = (
{
closed = 1;
nodes = (
"693 -10 OFFCURVE",
"835 124 OFFCURVE",
"835 369 CURVE SMOOTH",
"835 615 OFFCURVE",
"693 750 OFFCURVE",
"434 750 CURVE SMOOTH",
"173 750 OFFCURVE",
"33 617 OFFCURVE",
"33 369 CURVE SMOOTH",
"33 123 OFFCURVE",
"174 -10 OFFCURVE",
"434 -10 CURVE"
);
},
{
closed = 1;
nodes = (
"307 174 OFFCURVE",
"273 207 OFFCURVE",
"273 369 CURVE SMOOTH",
"273 529 OFFCURVE",
"310 566 OFFCURVE",
"434 566 CURVE SMOOTH",
"557 566 OFFCURVE",
"595 526 OFFCURVE",
"595 369 CURVE SMOOTH",
"595 206 OFFCURVE",
"563 174 OFFCURVE",
"434 174 CURVE SMOOTH"
);
}
);
width = 868;
}
);
leftKerningGroup = KERN_O_2ND;
rightKerningGroup = KERN_O_1ST;
unicode = 00D8;
userData = {
com.typemytype.robofont.layerData = {
};
};
},
{
color = 3;
glyphname = OE;
lastChange = "2016-11-10 20:49:43 +0000";
layers = (
{
anchors = (
{
name = bottom;
position = "{468, 0}";
},
{
name = top;
position = "{468, 760}";
}
);
background = {
paths = (
{
closed = 1;
nodes = (
"410 -5 OFFCURVE",
"445 -3 OFFCURVE",
"497 2 CURVE",
"497 734 LINE",
"452 741 OFFCURVE",
"405 747 OFFCURVE",
"358 747 CURVE SMOOTH",
"153 747 OFFCURVE",
"50 629 OFFCURVE",
"50 370 CURVE SMOOTH",
"50 103 OFFCURVE",
"162 -5 OFFCURVE",
"372 -5 CURVE SMOOTH"
);
},
{
closed = 1;
nodes = (
"180 28 OFFCURVE",
"86 123 OFFCURVE",
"86 370 CURVE SMOOTH",
"86 612 OFFCURVE",
"171 714 OFFCURVE",
"360 714 CURVE SMOOTH",
"392 714 OFFCURVE",
"425 711 OFFCURVE",
"463 705 CURVE",
"463 33 LINE",
"430 29 OFFCURVE",
"402 28 OFFCURVE",
"371 28 CURVE SMOOTH"
);
},
{
closed = 1;
nodes = (
"837 0 LINE",
"837 33 LINE",
"497 33 LINE",
"497 707 LINE",
"832 707 LINE",
"832 740 LINE",
"463 740 LINE",
"463 0 LINE"
);
},
{
closed = 1;
nodes = (
"787 364 LINE",
"787 397 LINE",
"493 397 LINE",
"493 364 LINE"
);
}
);
};
color = 4;
layerId = "ECFF4977-BDCC-4836-B4AC-1801CF0EB460";
paths = (
{
closed = 1;
nodes = (
"417 -5 OFFCURVE",
"444 0 OFFCURVE",
"474 0 CURVE SMOOTH",
"813 0 LINE",
"813 33 LINE",
"485 33 LINE",
"485 707 LINE",
"808 707 LINE",
"808 740 LINE",
"471 740 LINE SMOOTH",
"442 740 OFFCURVE",
"406 747 OFFCURVE",
"351 747 CURVE SMOOTH",
"153 747 OFFCURVE",
"50 629 OFFCURVE",
"50 370 CURVE SMOOTH",
"50 103 OFFCURVE",
"162 -5 OFFCURVE",
"365 -5 CURVE SMOOTH"
);
},
{
closed = 1;
nodes = (
"180 28 OFFCURVE",
"86 123 OFFCURVE",
"86 370 CURVE SMOOTH",
"86 612 OFFCURVE",
"171 714 OFFCURVE",
"353 714 CURVE SMOOTH",
"385 714 OFFCURVE",
"418 712 OFFCURVE",
"451 707 CURVE",
"451 33 LINE",
"423 29 OFFCURVE",
"395 28 OFFCURVE",
"364 28 CURVE SMOOTH"
);
},
{
closed = 1;
nodes = (
"763 364 LINE",
"763 397 LINE",
"481 397 LINE",
"481 364 LINE"
);
}
);
width = 843;
},
{
background = {
paths = (
{
closed = 1;
nodes = (
"362 -10 CURVE SMOOTH",
"403 -10 OFFCURVE",
"437 -8 OFFCURVE",
"470 0 CURVE",
"926 0 LINE",
"926 161 LINE",
"665 161 LINE",
"665 303 LINE",
"908 303 LINE",
"908 454 LINE",
"665 454 LINE",
"665 579 LINE",
"917 579 LINE",
"917 740 LINE",
"470 740 LINE",
"437 744 OFFCURVE",
"403 750 OFFCURVE",
"362 750 CURVE SMOOTH",
"151 750 OFFCURVE",
"26 622 OFFCURVE",
"26 370 CURVE SMOOTH",
"26 117 OFFCURVE",
"150 -10 OFFCURVE"
);
},
{
closed = 1;
nodes = (
"389 152 CURVE SMOOTH",
"256 152 OFFCURVE",
"222 203 OFFCURVE",
"222 369 CURVE SMOOTH",
"222 534 OFFCURVE",
"256 587 OFFCURVE",
"387 587 CURVE SMOOTH",
"413 587 OFFCURVE",
"436 585 OFFCURVE",
"470 579 CURVE",
"470 160 LINE",
"439 153 OFFCURVE",
"415 152 OFFCURVE"
);
}
);
};
layerId = "C8FFBC04-9D7C-494A-A42D-BACB8E26599D";
paths = (
{
closed = 1;
nodes = (
"403 -10 OFFCURVE",
"437 -8 OFFCURVE",
"470 0 CURVE",
"926 0 LINE",
"926 161 LINE",
"665 161 LINE",
"665 303 LINE",
"908 303 LINE",
"908 454 LINE",
"665 454 LINE",
"665 579 LINE",
"917 579 LINE",
"917 740 LINE",
"470 740 LINE",
"437 744 OFFCURVE",
"403 750 OFFCURVE",
"362 750 CURVE SMOOTH",
"151 750 OFFCURVE",
"26 622 OFFCURVE",
"26 370 CURVE SMOOTH",
"26 117 OFFCURVE",
"150 -10 OFFCURVE",
"362 -10 CURVE SMOOTH"
);
},
{
closed = 1;
nodes = (
"256 152 OFFCURVE",
"222 203 OFFCURVE",
"222 369 CURVE SMOOTH",
"222 534 OFFCURVE",
"256 587 OFFCURVE",
"387 587 CURVE SMOOTH",
"413 587 OFFCURVE",
"436 585 OFFCURVE",
"470 579 CURVE",
"470 160 LINE",
"439 153 OFFCURVE",
"415 152 OFFCURVE",
"389 152 CURVE SMOOTH"
);
}
);
width = 952;
},
{
anchors = (
{
name = bottom;
position = "{615, 0}";
},
{
name = top;
position = "{615, 760}";
}
);
background = {
paths = (
{
closed = 1;
nodes = (
"1098 0 LINE",
"1098 33 LINE",
"652 33 LINE",
"652 707 LINE",
"1093 707 LINE",
"1093 740 LINE",
"618 740 LINE",
"618 0 LINE"
);
},
{
closed = 1;
nodes = (
"1043 364 LINE",
"1043 397 LINE",
"648 397 LINE",
"648 364 LINE"
);
},
{
closed = 1;
nodes = (
"526 -5 OFFCURVE",
"575 -2 OFFCURVE",
"652 8 CURVE",
"652 727 LINE",
"582 741 OFFCURVE",
"523 747 OFFCURVE",
"455 747 CURVE SMOOTH",
"198 747 OFFCURVE",
"64 621 OFFCURVE",
"64 370 CURVE SMOOTH",
"64 119 OFFCURVE",
"198 -5 OFFCURVE",
"459 -5 CURVE SMOOTH"
);
},
{
closed = 1;
nodes = (
"220 28 OFFCURVE",
"100 136 OFFCURVE",
"100 370 CURVE SMOOTH",
"100 604 OFFCURVE",
"220 714 OFFCURVE",
"458 714 CURVE SMOOTH",
"517 714 OFFCURVE",
"559 709 OFFCURVE",
"618 699 CURVE",
"618 39 LINE",
"575 32 OFFCURVE",
"528 28 OFFCURVE",
"458 28 CURVE SMOOTH"
);
}
);
};
color = 4;
layerId = "E28BEEB5-BD92-4E7A-B4EA-FC5E5BBBF580";
paths = (
{
closed = 1;
nodes = (
"506 -5 OFFCURVE",
"589 0 OFFCURVE",
"638 0 CURVE SMOOTH",
"1058 0 LINE",
"1058 33 LINE",
"632 33 LINE",
"632 707 LINE",
"1053 707 LINE",
"1053 740 LINE",
"628 740 LINE SMOOTH",
"572 740 OFFCURVE",
"502 747 OFFCURVE",
"445 747 CURVE SMOOTH",
"198 747 OFFCURVE",
"64 621 OFFCURVE",
"64 370 CURVE SMOOTH",
"64 119 OFFCURVE",
"198 -5 OFFCURVE",
"449 -5 CURVE SMOOTH"
);
},
{
closed = 1;
nodes = (
"220 28 OFFCURVE",
"100 136 OFFCURVE",
"100 370 CURVE SMOOTH",
"100 604 OFFCURVE",
"220 714 OFFCURVE",
"448 714 CURVE SMOOTH",
"507 714 OFFCURVE",
"549 711 OFFCURVE",
"598 706 CURVE",
"598 34 LINE",
"565 30 OFFCURVE",
"518 28 OFFCURVE",
"448 28 CURVE SMOOTH"
);
},
{
closed = 1;
nodes = (
"1003 364 LINE",
"1003 397 LINE",
"628 397 LINE",
"628 364 LINE"
);
}
);
width = 1096;
},
{
background = {
paths = (
{
closed = 1;
nodes = (
"433 -10 CURVE SMOOTH",
"485 -10 OFFCURVE",
"528 -7 OFFCURVE",
"574 0 CURVE",
"1200 0 LINE",
"1200 176 LINE",
"809 176 LINE",
"809 282 LINE",
"1150 282 LINE",
"1150 458 LINE",
"809 458 LINE",
"809 564 LINE",
"1190 564 LINE",
"1190 740 LINE",
"574 740 LINE",
"532 746 OFFCURVE",
"490 750 OFFCURVE",
"433 750 CURVE SMOOTH",
"172 750 OFFCURVE",
"32 617 OFFCURVE",
"32 369 CURVE SMOOTH",
"32 123 OFFCURVE",
"173 -10 OFFCURVE"
);
},
{
closed = 1;
nodes = (
"433 174 CURVE SMOOTH",
"306 174 OFFCURVE",
"272 207 OFFCURVE",
"272 369 CURVE SMOOTH",
"272 529 OFFCURVE",
"309 566 OFFCURVE",
"433 566 CURVE SMOOTH",
"495 566 OFFCURVE",
"539 563 OFFCURVE",
"574 560 CURVE",
"574 180 LINE",
"539 175 OFFCURVE",
"493 174 OFFCURVE"
);
}
);
};
layerId = "1E90A949-97C4-49F5-AA9A-AF35B6FD63CF";
paths = (
{
closed = 1;
nodes = (
"485 -10 OFFCURVE",
"528 -7 OFFCURVE",
"574 0 CURVE",
"1200 0 LINE",
"1200 176 LINE",
"809 176 LINE",
"809 282 LINE",
"1150 282 LINE",
"1150 458 LINE",
"809 458 LINE",
"809 564 LINE",
"1190 564 LINE",
"1190 740 LINE",
"574 740 LINE",
"532 746 OFFCURVE",
"490 750 OFFCURVE",
"433 750 CURVE SMOOTH",
"172 750 OFFCURVE",
"32 617 OFFCURVE",
"32 369 CURVE SMOOTH",
"32 123 OFFCURVE",
"173 -10 OFFCURVE",
"433 -10 CURVE SMOOTH"
);
},
{
closed = 1;
nodes = (
"306 174 OFFCURVE",
"272 207 OFFCURVE",
"272 369 CURVE SMOOTH",
"272 529 OFFCURVE",
"309 566 OFFCURVE",
"433 566 CURVE SMOOTH",
"495 566 OFFCURVE",
"539 563 OFFCURVE",
"574 560 CURVE",
"574 180 LINE",
"539 175 OFFCURVE",
"493 174 OFFCURVE",
"433 174 CURVE SMOOTH"
);
}
);
width = 1236;
}
);
leftKerningGroup = KERN_O_2ND;
leftMetricsKey = O;
rightKerningGroup = KERN_E_1ST;
rightMetricsKey = E;
unicode = 0152;
},
{
color = 3;
glyphname = P;
lastChange = "2016-11-10 20:49:34 +0000";
layers = (
{
anchors = (
{
name = bottom;
position = "{259, 0}";
},
{
name = top;
position = "{259, 760}";
}
);
background = {
paths = (
{
closed = 1;
nodes = (
"666 747 OFFCURVE",
"627 742 OFFCURVE",
"584 735 CURVE",
"584 0 LINE",
"618 0 LINE",
"618 262 LINE",
"647 260 OFFCURVE",
"675 259 OFFCURVE",
"699 259 CURVE SMOOTH",
"884 259 OFFCURVE",
"969 343 OFFCURVE",
"969 502 CURVE SMOOTH",
"969 672 OFFCURVE",
"884 747 OFFCURVE",
"710 747 CURVE SMOOTH"
);
},
{
closed = 1;
nodes = (
"668 292 OFFCURVE",
"648 293 OFFCURVE",
"618 296 CURVE",
"618 705 LINE",
"656 712 OFFCURVE",
"689 714 OFFCURVE",
"710 714 CURVE SMOOTH",
"864 714 OFFCURVE",
"933 650 OFFCURVE",
"933 500 CURVE SMOOTH",
"933 359 OFFCURVE",
"859 292 OFFCURVE",
"702 292 CURVE SMOOTH"
);
},
{
closed = 1;
nodes = (
"118 0 LINE",
"118 329 LINE",
"142 327 OFFCURVE",
"166 326 OFFCURVE",
"205 326 CURVE SMOOTH",
"389 326 OFFCURVE",
"484 398 OFFCURVE",
"482 540 CURVE SMOOTH",
"482 677 OFFCURVE",
"402 747 OFFCURVE",
"236 747 CURVE SMOOTH",
"176 747 OFFCURVE",
"129 741 OFFCURVE",
"84 734 CURVE",
"84 0 LINE"
);
},
{
closed = 1;
nodes = (
"542 0 LINE",
"292 349 LINE",
"251 349 LINE",
"501 0 LINE"
);
},
{
closed = 1;
nodes = (
"173 358 OFFCURVE",
"152 359 OFFCURVE",
"118 361 CURVE",
"118 705 LINE",
"156 711 OFFCURVE",
"189 714 OFFCURVE",
"233 714 CURVE SMOOTH",
"387 714 OFFCURVE",
"448 657 OFFCURVE",
"448 539 CURVE SMOOTH",
"448 416 OFFCURVE",
"375 358 OFFCURVE",
"202 358 CURVE SMOOTH"
);
}
);
};
color = 4;
layerId = "ECFF4977-BDCC-4836-B4AC-1801CF0EB460";
paths = (
{
closed = 1;
nodes = (
"176 747 OFFCURVE",
"129 741 OFFCURVE",
"84 734 CURVE",
"84 0 LINE",
"118 0 LINE",
"118 262 LINE",
"147 260 OFFCURVE",
"175 259 OFFCURVE",
"199 259 CURVE SMOOTH",
"384 259 OFFCURVE",
"469 343 OFFCURVE",
"469 502 CURVE SMOOTH",
"469 670 OFFCURVE",
"384 747 OFFCURVE",
"220 747 CURVE SMOOTH"
);
},
{
closed = 1;
nodes = (
"168 292 OFFCURVE",
"148 293 OFFCURVE",
"118 296 CURVE",
"118 705 LINE",
"156 711 OFFCURVE",
"189 714 OFFCURVE",
"220 714 CURVE SMOOTH",
"364 714 OFFCURVE",
"433 650 OFFCURVE",
"433 500 CURVE SMOOTH",
"433 359 OFFCURVE",
"359 292 OFFCURVE",
"202 292 CURVE SMOOTH"
);
}
);
width = 517;
},
{
background = {
paths = (
{
closed = 1;
nodes = (
"265 220 CURVE SMOOTH",
"498 220 OFFCURVE",
"596 298 OFFCURVE",
"596 482 CURVE SMOOTH",
"596 671 OFFCURVE",
"495 750 OFFCURVE",
"250 750 CURVE SMOOTH",
"183 750 OFFCURVE",
"113 745 OFFCURVE",
"50 735 CURVE",
"50 232 LINE",
"110 224 OFFCURVE",
"187 220 OFFCURVE"
);
},
{
closed = 1;
nodes = (
"286 374 CURVE SMOOTH",
"275 374 OFFCURVE",
"254 375 OFFCURVE",
"245 376 CURVE",
"245 589 LINE",
"249 590 OFFCURVE",
"268 592 OFFCURVE",
"280 592 CURVE SMOOTH",
"373 592 OFFCURVE",
"396 566 OFFCURVE",
"396 482 CURVE SMOOTH",
"396 398 OFFCURVE",
"372 374 OFFCURVE"
);
},
{
closed = 1;
nodes = (
"50 0 LINE",
"245 0 LINE",
"245 690 LINE",
"50 690 LINE"
);
}
);
};
layerId = "C8FFBC04-9D7C-494A-A42D-BACB8E26599D";
paths = (
{
closed = 1;
nodes = (
"498 220 OFFCURVE",
"596 298 OFFCURVE",
"596 482 CURVE SMOOTH",
"596 671 OFFCURVE",
"495 750 OFFCURVE",
"250 750 CURVE SMOOTH",
"183 750 OFFCURVE",
"113 745 OFFCURVE",
"50 735 CURVE",
"50 232 LINE",
"110 224 OFFCURVE",
"187 220 OFFCURVE",
"265 220 CURVE SMOOTH"
);
},
{
closed = 1;
nodes = (
"245 0 LINE",
"245 690 LINE",
"50 690 LINE",
"50 0 LINE"
);
},
{
closed = 1;
nodes = (
"275 374 OFFCURVE",
"254 375 OFFCURVE",
"245 376 CURVE",
"245 589 LINE",
"249 590 OFFCURVE",
"268 592 OFFCURVE",
"280 592 CURVE SMOOTH",
"373 592 OFFCURVE",
"396 566 OFFCURVE",
"396 482 CURVE SMOOTH",
"396 398 OFFCURVE",
"372 374 OFFCURVE",
"286 374 CURVE SMOOTH"
);
}
);
width = 610;
},
{
anchors = (
{
name = bottom;
position = "{312, 0}";
},
{
name = top;
position = "{312, 760}";
}
);
background = {
paths = (
{
closed = 1;
nodes = (
"831 1010 OFFCURVE",
"778 1004 OFFCURVE",
"705 990 CURVE",
"705 263 LINE",
"739 263 LINE",
"739 535 LINE",
"791 527 OFFCURVE",
"833 522 OFFCURVE",
"890 522 CURVE SMOOTH",
"1074 522 OFFCURVE",
"1181 597 OFFCURVE",
"1181 767 CURVE SMOOTH",
"1181 935 OFFCURVE",
"1074 1010 OFFCURVE",
"890 1010 CURVE SMOOTH"
);
},
{
closed = 1;
nodes = (
"836 555 OFFCURVE",
"789 560 OFFCURVE",
"739 570 CURVE",
"739 962 LINE",
"789 972 OFFCURVE",
"836 977 OFFCURVE",
"887 977 CURVE SMOOTH",
"1056 977 OFFCURVE",
"1145 913 OFFCURVE",
"1145 766 CURVE SMOOTH",
"1145 619 OFFCURVE",
"1056 555 OFFCURVE",
"887 555 CURVE SMOOTH"
);
},
{
closed = 1;
nodes = (
"533 258 OFFCURVE",
"622 329 OFFCURVE",
"622 463 CURVE SMOOTH",
"622 562 OFFCURVE",
"565 628 OFFCURVE",
"453 647 CURVE",
"450 640 LINE",
"550 662 OFFCURVE",
"600 723 OFFCURVE",
"600 816 CURVE SMOOTH",
"600 945 OFFCURVE",
"516 1007 OFFCURVE",
"313 1010 CURVE SMOOTH",
"236 1011 OFFCURVE",
"178 1004 OFFCURVE",
"105 990 CURVE",
"105 269 LINE",
"182 261 OFFCURVE",
"231 258 OFFCURVE",
"298 258 CURVE SMOOTH"
);
},
{
closed = 1;
nodes = (
"229 291 OFFCURVE",
"182 295 OFFCURVE",
"139 300 CURVE",
"139 962 LINE",
"189 972 OFFCURVE",
"246 978 OFFCURVE",
"314 977 CURVE SMOOTH",
"494 974 OFFCURVE",
"566 931 OFFCURVE",
"566 816 CURVE SMOOTH",
"566 706 OFFCURVE",
"493 658 OFFCURVE",
"347 659 CURVE SMOOTH",
"131 660 LINE",
"131 627 LINE",
"354 626 LINE SMOOTH",
"511 625 OFFCURVE",
"587 578 OFFCURVE",
"587 465 CURVE SMOOTH",
"587 350 OFFCURVE",
"521 291 OFFCURVE",
"299 291 CURVE SMOOTH"
);
}
);
};
color = 4;
layerId = "E28BEEB5-BD92-4E7A-B4EA-FC5E5BBBF580";
paths = (
{
closed = 1;
nodes = (
"231 747 OFFCURVE",
"178 741 OFFCURVE",
"105 727 CURVE",
"105 0 LINE",
"139 0 LINE",
"139 266 LINE",
"189 261 OFFCURVE",
"217 259 OFFCURVE",
"265 259 CURVE SMOOTH",
"486 259 OFFCURVE",
"581 348 OFFCURVE",
"581 505 CURVE SMOOTH",
"581 673 OFFCURVE",
"474 747 OFFCURVE",
"292 747 CURVE SMOOTH"
);
},
{
closed = 1;
nodes = (
"213 292 OFFCURVE",
"182 295 OFFCURVE",
"139 301 CURVE",
"139 699 LINE",
"189 709 OFFCURVE",
"238 714 OFFCURVE",
"292 714 CURVE SMOOTH",
"456 714 OFFCURVE",
"545 650 OFFCURVE",
"545 504 CURVE SMOOTH",
"545 365 OFFCURVE",
"465 292 OFFCURVE",
"265 292 CURVE SMOOTH"
);
}
);
width = 623;
},
{
background = {
paths = (
{
closed = 1;
nodes = (
"329 191 CURVE SMOOTH",
"612 191 OFFCURVE",
"757 286 OFFCURVE",
"757 472 CURVE SMOOTH",
"757 668 OFFCURVE",
"629 750 OFFCURVE",
"325 750 CURVE SMOOTH",
"246 750 OFFCURVE",
"160 745 OFFCURVE",
"65 735 CURVE",
"65 208 LINE",
"203 195 OFFCURVE",
"265 191 OFFCURVE"
);
},
{
closed = 1;
nodes = (
"371 370 CURVE SMOOTH",
"346 370 OFFCURVE",
"323 372 OFFCURVE",
"300 376 CURVE",
"300 568 LINE",
"319 570 OFFCURVE",
"358 572 OFFCURVE",
"383 572 CURVE SMOOTH",
"494 572 OFFCURVE",
"518 550 OFFCURVE",
"518 472 CURVE SMOOTH",
"518 392 OFFCURVE",
"486 370 OFFCURVE"
);
},
{
closed = 1;
nodes = (
"65 0 LINE",
"300 0 LINE",
"300 690 LINE",
"65 690 LINE"
);
}
);
};
layerId = "1E90A949-97C4-49F5-AA9A-AF35B6FD63CF";
paths = (
{
closed = 1;
nodes = (
"612 191 OFFCURVE",
"757 286 OFFCURVE",
"757 472 CURVE SMOOTH",
"757 668 OFFCURVE",
"629 750 OFFCURVE",
"325 750 CURVE SMOOTH",
"246 750 OFFCURVE",
"160 745 OFFCURVE",
"65 735 CURVE",
"65 208 LINE",
"203 195 OFFCURVE",
"265 191 OFFCURVE",
"329 191 CURVE SMOOTH"
);
},
{
closed = 1;
nodes = (
"300 0 LINE",
"300 690 LINE",
"65 690 LINE",
"65 0 LINE"
);
},
{
closed = 1;
nodes = (
"346 370 OFFCURVE",
"323 372 OFFCURVE",
"300 376 CURVE",
"300 568 LINE",
"319 570 OFFCURVE",
"358 572 OFFCURVE",
"383 572 CURVE SMOOTH",
"494 572 OFFCURVE",
"518 550 OFFCURVE",
"518 472 CURVE SMOOTH",
"518 392 OFFCURVE",
"486 370 OFFCURVE",
"371 370 CURVE SMOOTH"
);
}
);
width = 774;
}
);
leftKerningGroup = KERN_I_2ND;
leftMetricsKey = H;
unicode = 0050;
userData = {
com.typemytype.robofont.layerData = {
};
};
},
{
color = 3;
glyphname = Thorn;
lastChange = "2016-11-09 23:14:41 +0000";
layers = (
{
background = {
paths = (
{
closed = 1;
nodes = (
"166 624 OFFCURVE",
"127 619 OFFCURVE",
"84 612 CURVE",
"84 -123 LINE",
"118 -123 LINE",
"118 139 LINE",
"147 137 OFFCURVE",
"175 136 OFFCURVE",
"199 136 CURVE SMOOTH",
"384 136 OFFCURVE",
"469 220 OFFCURVE",
"469 379 CURVE SMOOTH",
"469 549 OFFCURVE",
"384 624 OFFCURVE",
"210 624 CURVE SMOOTH"
);
},
{
closed = 1;
nodes = (
"168 169 OFFCURVE",
"148 170 OFFCURVE",
"118 173 CURVE",
"118 582 LINE",
"156 589 OFFCURVE",
"189 591 OFFCURVE",
"210 591 CURVE SMOOTH",
"364 591 OFFCURVE",
"433 527 OFFCURVE",
"433 377 CURVE SMOOTH",
"433 236 OFFCURVE",
"359 169 OFFCURVE",
"202 169 CURVE SMOOTH"
);
}
);
};
color = 4;
layerId = "ECFF4977-BDCC-4836-B4AC-1801CF0EB460";
paths = (
{
closed = 1;
nodes = (
"178 624 OFFCURVE",
"148 621 OFFCURVE",
"118 617 CURVE",
"118 740 LINE",
"84 740 LINE",
"84 0 LINE",
"118 0 LINE",
"118 139 LINE",
"147 137 OFFCURVE",
"175 136 OFFCURVE",
"199 136 CURVE SMOOTH",
"384 136 OFFCURVE",
"469 220 OFFCURVE",
"469 379 CURVE SMOOTH",
"469 549 OFFCURVE",
"384 624 OFFCURVE",
"210 624 CURVE SMOOTH"
);
},
{
closed = 1;
nodes = (
"168 169 OFFCURVE",
"148 170 OFFCURVE",
"118 173 CURVE",
"118 582 LINE",
"156 589 OFFCURVE",
"189 591 OFFCURVE",
"210 591 CURVE SMOOTH",
"364 591 OFFCURVE",
"433 527 OFFCURVE",
"433 377 CURVE SMOOTH",
"433 236 OFFCURVE",
"359 169 OFFCURVE",
"202 169 CURVE SMOOTH"
);
}
);
width = 521;
},
{
background = {
paths = (
{
closed = 1;
nodes = (
"265 102 CURVE SMOOTH",
"498 102 OFFCURVE",
"596 180 OFFCURVE",
"596 364 CURVE SMOOTH",
"596 553 OFFCURVE",
"495 632 OFFCURVE",
"250 632 CURVE SMOOTH",
"183 632 OFFCURVE",
"113 627 OFFCURVE",
"50 617 CURVE",
"50 114 LINE",
"110 106 OFFCURVE",
"187 102 OFFCURVE"
);
},
{
closed = 1;
nodes = (
"286 256 CURVE SMOOTH",
"245 256 LINE",
"245 474 LINE",
"280 474 LINE SMOOTH",
"373 474 OFFCURVE",
"396 448 OFFCURVE",
"396 364 CURVE SMOOTH",
"396 280 OFFCURVE",
"372 256 OFFCURVE"
);
},
{
closed = 1;
nodes = (
"50 0 LINE",
"245 0 LINE",
"245 740 LINE",
"50 740 LINE"
);
}
);
};
layerId = "C8FFBC04-9D7C-494A-A42D-BACB8E26599D";
paths = (
{
closed = 1;
nodes = (
"498 102 OFFCURVE",
"596 180 OFFCURVE",
"596 364 CURVE SMOOTH",
"596 553 OFFCURVE",
"495 632 OFFCURVE",
"250 632 CURVE SMOOTH",
"183 632 OFFCURVE",
"113 627 OFFCURVE",
"50 617 CURVE",
"50 114 LINE",
"110 106 OFFCURVE",
"187 102 OFFCURVE",
"265 102 CURVE SMOOTH"
);
},
{
closed = 1;
nodes = (
"245 0 LINE",
"245 740 LINE",
"50 740 LINE",
"50 0 LINE"
);
},
{
closed = 1;
nodes = (
"245 474 LINE",
"280 474 LINE SMOOTH",
"373 474 OFFCURVE",
"396 448 OFFCURVE",
"396 364 CURVE SMOOTH",
"396 280 OFFCURVE",
"372 256 OFFCURVE",
"286 256 CURVE SMOOTH",
"245 256 LINE"
);
}
);
width = 610;
},
{
background = {
paths = (
{
closed = 1;
nodes = (
"231 624 OFFCURVE",
"178 618 OFFCURVE",
"105 604 CURVE",
"105 -123 LINE",
"139 -123 LINE",
"139 142 LINE",
"179 138 OFFCURVE",
"217 136 OFFCURVE",
"260 136 CURVE SMOOTH",
"486 136 OFFCURVE",
"581 224 OFFCURVE",
"581 382 CURVE SMOOTH",
"581 550 OFFCURVE",
"474 624 OFFCURVE",
"292 624 CURVE SMOOTH"
);
},
{
closed = 1;
nodes = (
"211 169 OFFCURVE",
"182 172 OFFCURVE",
"139 176 CURVE",
"139 576 LINE",
"189 586 OFFCURVE",
"236 591 OFFCURVE",
"292 591 CURVE SMOOTH",
"456 591 OFFCURVE",
"545 527 OFFCURVE",
"545 381 CURVE SMOOTH",
"545 244 OFFCURVE",
"465 169 OFFCURVE",
"262 169 CURVE SMOOTH"
);
}
);
};
color = 4;
layerId = "E28BEEB5-BD92-4E7A-B4EA-FC5E5BBBF580";
paths = (
{
closed = 1;
nodes = (
"231 624 OFFCURVE",
"183 618 OFFCURVE",
"139 610 CURVE",
"139 741 LINE",
"105 741 LINE",
"105 0 LINE",
"139 0 LINE",
"139 142 LINE",
"179 138 OFFCURVE",
"217 136 OFFCURVE",
"260 136 CURVE SMOOTH",
"486 136 OFFCURVE",
"581 224 OFFCURVE",
"581 382 CURVE SMOOTH",
"581 550 OFFCURVE",
"474 624 OFFCURVE",
"292 624 CURVE SMOOTH"
);
},
{
closed = 1;
nodes = (
"211 169 OFFCURVE",
"182 172 OFFCURVE",
"139 176 CURVE",
"139 576 LINE",
"189 586 OFFCURVE",
"236 591 OFFCURVE",
"292 591 CURVE SMOOTH",
"456 591 OFFCURVE",
"545 527 OFFCURVE",
"545 381 CURVE SMOOTH",
"545 244 OFFCURVE",
"465 169 OFFCURVE",
"262 169 CURVE SMOOTH"
);
}
);
width = 636;
},
{
background = {
paths = (
{
closed = 1;
nodes = (
"340 109 CURVE SMOOTH",
"633 109 OFFCURVE",
"759 187 OFFCURVE",
"759 368 CURVE SMOOTH",
"759 549 OFFCURVE",
"633 627 OFFCURVE",
"340 627 CURVE SMOOTH",
"255 627 OFFCURVE",
"164 622 OFFCURVE",
"65 612 CURVE",
"65 124 LINE",
"164 114 OFFCURVE",
"255 109 OFFCURVE"
);
},
{
closed = 1;
nodes = (
"354 301 CURVE SMOOTH",
"300 301 LINE",
"300 435 LINE",
"354 435 LINE SMOOTH",
"503 435 OFFCURVE",
"523 435 OFFCURVE",
"523 368 CURVE SMOOTH",
"523 301 OFFCURVE",
"503 301 OFFCURVE"
);
},
{
closed = 1;
nodes = (
"65 0 LINE",
"300 0 LINE",
"300 740 LINE",
"65 740 LINE"
);
}
);
};
layerId = "1E90A949-97C4-49F5-AA9A-AF35B6FD63CF";
paths = (
{
closed = 1;
nodes = (
"633 109 OFFCURVE",
"759 187 OFFCURVE",
"759 368 CURVE SMOOTH",
"759 549 OFFCURVE",
"633 627 OFFCURVE",
"340 627 CURVE SMOOTH",
"255 627 OFFCURVE",
"164 622 OFFCURVE",
"65 612 CURVE",
"65 124 LINE",
"164 114 OFFCURVE",
"255 109 OFFCURVE",
"340 109 CURVE SMOOTH"
);
},
{
closed = 1;
nodes = (
"300 0 LINE",
"300 740 LINE",
"65 740 LINE",
"65 0 LINE"
);
},
{
closed = 1;
nodes = (
"300 435 LINE",
"354 435 LINE SMOOTH",
"503 435 OFFCURVE",
"523 435 OFFCURVE",
"523 368 CURVE SMOOTH",
"523 301 OFFCURVE",
"503 301 OFFCURVE",
"354 301 CURVE SMOOTH",
"300 301 LINE"
);
}
);
width = 776;
}
);
leftKerningGroup = KERN_I_2ND;
leftMetricsKey = H;
unicode = 00DE;
userData = {
com.typemytype.robofont.layerData = {
};
};
},
{
color = 3;
glyphname = Q;
lastChange = "2016-11-10 20:49:18 +0000";
layers = (
{
anchors = (
{
name = bottom;
position = "{292, 0}";
},
{
name = top;
position = "{292, 760}";
}
);
background = {
paths = (
{
closed = 1;
nodes = (
"438 -9 OFFCURVE",
"534 91 OFFCURVE",
"534 370 CURVE SMOOTH",
"534 649 OFFCURVE",
"440 749 OFFCURVE",
"292 749 CURVE SMOOTH",
"144 749 OFFCURVE",
"50 649 OFFCURVE",
"50 370 CURVE SMOOTH",
"50 91 OFFCURVE",
"146 -9 OFFCURVE",
"292 -9 CURVE SMOOTH"
);
},
{
closed = 1;
nodes = (
"168 24 OFFCURVE",
"86 103 OFFCURVE",
"86 372 CURVE SMOOTH",
"86 637 OFFCURVE",
"168 716 OFFCURVE",
"292 716 CURVE SMOOTH",
"416 716 OFFCURVE",
"498 637 OFFCURVE",
"498 368 CURVE SMOOTH",
"498 103 OFFCURVE",
"416 24 OFFCURVE",
"292 24 CURVE SMOOTH"
);
},
{
closed = 1;
nodes = (
"1122 -57 LINE",
"1030 -48 OFFCURVE",
"925 -28 OFFCURVE",
"854 10 CURVE",
"857 -6 LINE",
"1044 -25 OFFCURVE",
"1134 98 OFFCURVE",
"1134 370 CURVE SMOOTH",
"1134 649 OFFCURVE",
"1040 749 OFFCURVE",
"892 749 CURVE SMOOTH",
"744 749 OFFCURVE",
"650 649 OFFCURVE",
"650 370 CURVE SMOOTH",
"650 54 OFFCURVE",
"760 -49 OFFCURVE",
"1117 -91 CURVE"
);
},
{
closed = 1;
nodes = (
"768 24 OFFCURVE",
"686 103 OFFCURVE",
"686 372 CURVE SMOOTH",
"686 637 OFFCURVE",
"768 716 OFFCURVE",
"892 716 CURVE SMOOTH",
"1016 716 OFFCURVE",
"1098 637 OFFCURVE",
"1098 368 CURVE SMOOTH",
"1098 103 OFFCURVE",
"1016 24 OFFCURVE",
"892 24 CURVE SMOOTH"
);
}
);
};
color = 4;
layerId = "ECFF4977-BDCC-4836-B4AC-1801CF0EB460";
paths = (
{
closed = 1;
nodes = (
"522 -57 LINE",
"430 -48 OFFCURVE",
"324 -29 OFFCURVE",
"247 11 CURVE",
"257 -4 LINE",
"443 -30 OFFCURVE",
"534 101 OFFCURVE",
"534 370 CURVE SMOOTH",
"534 649 OFFCURVE",
"440 749 OFFCURVE",
"292 749 CURVE SMOOTH",
"144 749 OFFCURVE",
"50 649 OFFCURVE",
"50 370 CURVE SMOOTH",
"50 54 OFFCURVE",
"158 -45 OFFCURVE",
"517 -91 CURVE"
);
},
{
closed = 1;
nodes = (
"168 24 OFFCURVE",
"86 103 OFFCURVE",
"86 372 CURVE SMOOTH",
"86 637 OFFCURVE",
"168 716 OFFCURVE",
"292 716 CURVE SMOOTH",
"416 716 OFFCURVE",
"498 637 OFFCURVE",
"498 368 CURVE SMOOTH",
"498 103 OFFCURVE",
"416 24 OFFCURVE",
"292 24 CURVE SMOOTH"
);
}
);
width = 584;
},
{
background = {
paths = (
{
closed = 1;
nodes = (
"565 -149 CURVE",
"688 0 LINE",
"564 5 OFFCURVE",
"511 13 OFFCURVE",
"436 38 CURVE",
"436 53 LINE",
"589 103 OFFCURVE",
"661 204 OFFCURVE",
"661 369 CURVE SMOOTH",
"661 628 OFFCURVE",
"560 750 OFFCURVE",
"343 750 CURVE SMOOTH",
"127 750 OFFCURVE",
"26 628 OFFCURVE",
"26 369 CURVE SMOOTH",
"26 90 OFFCURVE",
"154 -33 OFFCURVE"
);
},
{
closed = 1;
nodes = (
"343 144 CURVE SMOOTH",
"248 144 OFFCURVE",
"221 194 OFFCURVE",
"221 369 CURVE SMOOTH",
"221 546 OFFCURVE",
"248 596 OFFCURVE",
"343 596 CURVE SMOOTH",
"439 596 OFFCURVE",
"466 547 OFFCURVE",
"466 369 CURVE SMOOTH",
"466 194 OFFCURVE",
"439 144 OFFCURVE"
);
}
);
};
layerId = "C8FFBC04-9D7C-494A-A42D-BACB8E26599D";
paths = (
{
closed = 1;
nodes = (
"688 0 LINE",
"564 5 OFFCURVE",
"511 13 OFFCURVE",
"436 38 CURVE",
"436 53 LINE",
"589 103 OFFCURVE",
"661 204 OFFCURVE",
"661 369 CURVE SMOOTH",
"661 628 OFFCURVE",
"560 750 OFFCURVE",
"343 750 CURVE SMOOTH",
"127 750 OFFCURVE",
"26 628 OFFCURVE",
"26 369 CURVE SMOOTH",
"26 90 OFFCURVE",
"154 -33 OFFCURVE",
"565 -149 CURVE"
);
},
{
closed = 1;
nodes = (
"248 144 OFFCURVE",
"221 194 OFFCURVE",
"221 369 CURVE SMOOTH",
"221 546 OFFCURVE",
"248 596 OFFCURVE",
"343 596 CURVE SMOOTH",
"439 596 OFFCURVE",
"466 547 OFFCURVE",
"466 369 CURVE SMOOTH",
"466 194 OFFCURVE",
"439 144 OFFCURVE",
"343 144 CURVE SMOOTH"
);
}
);
width = 688;
},
{
anchors = (
{
name = bottom;
position = "{388, 0}";
},
{
name = top;
position = "{388, 760}";
}
);
background = {
paths = (
{
closed = 1;
nodes = (
"-221 -9 OFFCURVE",
"-88 98 OFFCURVE",
"-88 370 CURVE SMOOTH",
"-88 642 OFFCURVE",
"-224 749 OFFCURVE",
"-412 749 CURVE SMOOTH",
"-600 749 OFFCURVE",
"-736 636 OFFCURVE",
"-736 370 CURVE SMOOTH",
"-736 104 OFFCURVE",
"-603 -9 OFFCURVE",
"-412 -9 CURVE SMOOTH"
);
},
{
closed = 1;
nodes = (
"-582 25 OFFCURVE",
"-700 121 OFFCURVE",
"-700 372 CURVE SMOOTH",
"-700 619 OFFCURVE",
"-582 715 OFFCURVE",
"-412 715 CURVE SMOOTH",
"-242 715 OFFCURVE",
"-124 619 OFFCURVE",
"-124 368 CURVE SMOOTH",
"-124 121 OFFCURVE",
"-242 25 OFFCURVE",
"-412 25 CURVE SMOOTH"
);
},
{
closed = 1;
nodes = (
"696 -57 LINE",
"575 -49 OFFCURVE",
"434 -28 OFFCURVE",
"348 5 CURVE",
"344 -7 LINE",
"581 -24 OFFCURVE",
"712 98 OFFCURVE",
"712 370 CURVE SMOOTH",
"712 642 OFFCURVE",
"576 749 OFFCURVE",
"388 749 CURVE SMOOTH",
"200 749 OFFCURVE",
"64 636 OFFCURVE",
"64 370 CURVE SMOOTH",
"64 73 OFFCURVE",
"213 -55 OFFCURVE",
"693 -91 CURVE"
);
},
{
closed = 1;
nodes = (
"218 25 OFFCURVE",
"100 121 OFFCURVE",
"100 372 CURVE SMOOTH",
"100 619 OFFCURVE",
"218 715 OFFCURVE",
"388 715 CURVE SMOOTH",
"558 715 OFFCURVE",
"676 619 OFFCURVE",
"676 368 CURVE SMOOTH",
"676 121 OFFCURVE",
"558 25 OFFCURVE",
"388 25 CURVE SMOOTH"
);
}
);
};
color = 4;
layerId = "E28BEEB5-BD92-4E7A-B4EA-FC5E5BBBF580";
paths = (
{
closed = 1;
nodes = (
"696 -57 LINE",
"575 -49 OFFCURVE",
"432 -30 OFFCURVE",
"344 5 CURVE",
"339 -4 LINE",
"578 -28 OFFCURVE",
"712 98 OFFCURVE",
"712 370 CURVE SMOOTH",
"712 642 OFFCURVE",
"576 749 OFFCURVE",
"388 749 CURVE SMOOTH",
"200 749 OFFCURVE",
"64 636 OFFCURVE",
"64 370 CURVE SMOOTH",
"64 73 OFFCURVE",
"207 -49 OFFCURVE",
"693 -91 CURVE"
);
},
{
closed = 1;
nodes = (
"218 25 OFFCURVE",
"100 121 OFFCURVE",
"100 372 CURVE SMOOTH",
"100 619 OFFCURVE",
"218 715 OFFCURVE",
"388 715 CURVE SMOOTH",
"558 715 OFFCURVE",
"676 619 OFFCURVE",
"676 368 CURVE SMOOTH",
"676 121 OFFCURVE",
"558 25 OFFCURVE",
"388 25 CURVE SMOOTH"
);
}
);
width = 776;
},
{
background = {
paths = (
{
closed = 1;
nodes = (
"779 -193 CURVE",
"807 -5 LINE",
"733 3 OFFCURVE",
"725 6 OFFCURVE",
"513 40 CURVE",
"513 54 LINE",
"711 25 OFFCURVE",
"838 153 OFFCURVE",
"838 369 CURVE SMOOTH",
"838 608 OFFCURVE",
"687 750 OFFCURVE",
"435 750 CURVE SMOOTH",
"184 750 OFFCURVE",
"32 607 OFFCURVE",
"32 369 CURVE SMOOTH",
"32 85 OFFCURVE",
"196 -34 OFFCURVE"
);
},
{
closed = 1;
nodes = (
"435 174 CURVE SMOOTH",
"312 174 OFFCURVE",
"272 224 OFFCURVE",
"272 369 CURVE SMOOTH",
"272 513 OFFCURVE",
"315 566 OFFCURVE",
"435 566 CURVE SMOOTH",
"556 566 OFFCURVE",
"598 515 OFFCURVE",
"598 369 CURVE SMOOTH",
"598 219 OFFCURVE",
"559 174 OFFCURVE"
);
}
);
};
layerId = "1E90A949-97C4-49F5-AA9A-AF35B6FD63CF";
paths = (
{
closed = 1;
nodes = (
"807 -5 LINE",
"733 3 OFFCURVE",
"725 6 OFFCURVE",
"513 40 CURVE",
"513 54 LINE",
"711 25 OFFCURVE",
"838 153 OFFCURVE",
"838 369 CURVE SMOOTH",
"838 608 OFFCURVE",
"687 750 OFFCURVE",
"435 750 CURVE SMOOTH",
"184 750 OFFCURVE",
"32 607 OFFCURVE",
"32 369 CURVE SMOOTH",
"32 85 OFFCURVE",
"196 -34 OFFCURVE",
"779 -193 CURVE"
);
},
{
closed = 1;
nodes = (
"312 174 OFFCURVE",
"272 224 OFFCURVE",
"272 369 CURVE SMOOTH",
"272 513 OFFCURVE",
"315 566 OFFCURVE",
"435 566 CURVE SMOOTH",
"556 566 OFFCURVE",
"598 515 OFFCURVE",
"598 369 CURVE SMOOTH",
"598 219 OFFCURVE",
"559 174 OFFCURVE",
"435 174 CURVE SMOOTH"
);
}
);
width = 866;
}
);
leftKerningGroup = KERN_O_2ND;
leftMetricsKey = O;
widthMetricsKey = O;
rightKerningGroup = KERN_O_1ST;
unicode = 0051;
userData = {
com.typemytype.robofont.layerData = {
};
};
},
{
color = 3;
glyphname = R;
lastChange = "2016-11-10 14:27:24 +0000";
layers = (
{
anchors = (
{
name = bottom;
position = "{270, 0}";
},
{
name = top;
position = "{265, 760}";
}
);
background = {
guideLines = (
{
position = "{228, 315}";
}
);
paths = (
{
closed = 1;
nodes = (
"2168 0 LINE",
"2168 331 LINE",
"2192 330 OFFCURVE",
"2216 329 OFFCURVE",
"2237 329 CURVE SMOOTH",
"2432 329 OFFCURVE",
"2519 407 OFFCURVE",
"2519 540 CURVE SMOOTH",
"2519 682 OFFCURVE",
"2433 747 OFFCURVE",
"2270 747 CURVE SMOOTH",
"2216 747 OFFCURVE",
"2177 742 OFFCURVE",
"2134 735 CURVE",
"2134 0 LINE"
);
},
{
closed = 1;
nodes = (
"2577 0 LINE",
"2362 356 LINE",
"2323 356 LINE",
"2538 0 LINE"
);
},
{
closed = 1;
nodes = (
"2218 362 OFFCURVE",
"2194 363 OFFCURVE",
"2168 365 CURVE",
"2168 705 LINE",
"2206 712 OFFCURVE",
"2239 714 OFFCURVE",
"2269 714 CURVE SMOOTH",
"2418 714 OFFCURVE",
"2483 659 OFFCURVE",
"2483 538 CURVE SMOOTH",
"2483 422 OFFCURVE",
"2414 362 OFFCURVE",
"2239 362 CURVE SMOOTH"
);
},
{
closed = 1;
nodes = (
"1668 0 LINE",
"1668 364 LINE",
"1692 364 OFFCURVE",
"1766 364 OFFCURVE",
"1797 364 CURVE SMOOTH",
"1948 364 OFFCURVE",
"2035 424 OFFCURVE",
"2035 555 CURVE SMOOTH",
"2035 687 OFFCURVE",
"1962 747 OFFCURVE",
"1790 747 CURVE SMOOTH",
"1738 747 OFFCURVE",
"1687 742 OFFCURVE",
"1634 732 CURVE",
"1634 0 LINE"
);
},
{
closed = 1;
nodes = (
"2077 0 LINE",
"1850 376 LINE",
"1811 376 LINE",
"2038 0 LINE"
);
},
{
closed = 1;
nodes = (
"1774 397 OFFCURVE",
"1694 397 OFFCURVE",
"1668 397 CURVE",
"1668 703 LINE",
"1708 711 OFFCURVE",
"1746 714 OFFCURVE",
"1788 714 CURVE SMOOTH",
"1942 714 OFFCURVE",
"1999 669 OFFCURVE",
"1999 555 CURVE SMOOTH",
"1999 456 OFFCURVE",
"1952 397 OFFCURVE",
"1795 397 CURVE SMOOTH"
);
},
{
closed = 1;
nodes = (
"1168 0 LINE",
"1168 345 LINE",
"1192 345 OFFCURVE",
"1256 345 OFFCURVE",
"1297 345 CURVE SMOOTH",
"1469 345 OFFCURVE",
"1556 416 OFFCURVE",
"1556 549 CURVE SMOOTH",
"1556 679 OFFCURVE",
"1476 747 OFFCURVE",
"1290 747 CURVE SMOOTH",
"1238 747 OFFCURVE",
"1187 742 OFFCURVE",
"1134 732 CURVE",
"1134 0 LINE"
);
},
{
closed = 1;
nodes = (
"1577 0 LINE",
"1350 357 LINE",
"1311 357 LINE",
"1538 0 LINE"
);
},
{
closed = 1;
nodes = (
"1264 378 OFFCURVE",
"1194 378 OFFCURVE",
"1168 378 CURVE",
"1168 703 LINE",
"1208 711 OFFCURVE",
"1246 714 OFFCURVE",
"1288 714 CURVE SMOOTH",
"1454 714 OFFCURVE",
"1520 662 OFFCURVE",
"1520 547 CURVE SMOOTH",
"1520 436 OFFCURVE",
"1457 378 OFFCURVE",
"1305 378 CURVE SMOOTH"
);
},
{
closed = 1;
nodes = (
"618 0 LINE",
"618 345 LINE",
"642 345 OFFCURVE",
"706 345 OFFCURVE",
"747 345 CURVE SMOOTH",
"919 345 OFFCURVE",
"1006 416 OFFCURVE",
"1006 549 CURVE SMOOTH",
"1006 679 OFFCURVE",
"926 747 OFFCURVE",
"740 747 CURVE SMOOTH",
"688 747 OFFCURVE",
"637 742 OFFCURVE",
"584 732 CURVE",
"584 0 LINE"
);
},
{
closed = 1;
nodes = (
"1027 0 LINE",
"800 357 LINE",
"761 357 LINE",
"988 0 LINE"
);
},
{
closed = 1;
nodes = (
"714 378 OFFCURVE",
"644 378 OFFCURVE",
"618 378 CURVE",
"618 703 LINE",
"658 711 OFFCURVE",
"696 714 OFFCURVE",
"738 714 CURVE SMOOTH",
"904 714 OFFCURVE",
"970 662 OFFCURVE",
"970 547 CURVE SMOOTH",
"970 436 OFFCURVE",
"907 378 OFFCURVE",
"755 378 CURVE SMOOTH"
);
},
{
closed = 1;
nodes = (
"118 0 LINE",
"118 329 LINE",
"142 327 OFFCURVE",
"166 326 OFFCURVE",
"205 326 CURVE SMOOTH",
"389 326 OFFCURVE",
"484 398 OFFCURVE",
"482 540 CURVE SMOOTH",
"482 677 OFFCURVE",
"402 747 OFFCURVE",
"236 747 CURVE SMOOTH",
"176 747 OFFCURVE",
"129 741 OFFCURVE",
"84 732 CURVE",
"84 0 LINE"
);
},
{
closed = 1;
nodes = (
"542 0 LINE",
"302 354 LINE",
"261 354 LINE",
"501 0 LINE"
);
},
{
closed = 1;
nodes = (
"173 358 OFFCURVE",
"152 359 OFFCURVE",
"118 361 CURVE",
"118 703 LINE",
"156 711 OFFCURVE",
"189 714 OFFCURVE",
"233 714 CURVE SMOOTH",
"387 714 OFFCURVE",
"448 657 OFFCURVE",
"448 539 CURVE SMOOTH",
"448 416 OFFCURVE",
"375 358 OFFCURVE",
"202 358 CURVE SMOOTH"
);
}
);
};
color = 4;
layerId = "ECFF4977-BDCC-4836-B4AC-1801CF0EB460";
paths = (
{
closed = 1;
nodes = (
"118 0 LINE",
"118 329 LINE",
"142 327 OFFCURVE",
"166 326 OFFCURVE",
"205 326 CURVE SMOOTH",
"389 326 OFFCURVE",
"484 398 OFFCURVE",
"482 540 CURVE SMOOTH",
"482 677 OFFCURVE",
"402 747 OFFCURVE",
"236 747 CURVE SMOOTH",
"176 747 OFFCURVE",
"129 741 OFFCURVE",
"84 734 CURVE",
"84 0 LINE"
);
},
{
closed = 1;
nodes = (
"542 0 LINE",
"292 349 LINE",
"251 349 LINE",
"501 0 LINE"
);
},
{
closed = 1;
nodes = (
"173 358 OFFCURVE",
"152 359 OFFCURVE",
"118 361 CURVE",
"118 705 LINE",
"156 711 OFFCURVE",
"189 714 OFFCURVE",
"233 714 CURVE SMOOTH",
"387 714 OFFCURVE",
"448 657 OFFCURVE",
"448 539 CURVE SMOOTH",
"448 416 OFFCURVE",
"375 358 OFFCURVE",
"202 358 CURVE SMOOTH"
);
}
);
width = 563;
},
{
anchors = (
{
name = bottom;
position = "{327, 0}";
},
{
name = top;
position = "{317, 805}";
}
);
background = {
anchors = (
{
name = bottom;
position = "{327, 0}";
},
{
name = topUC;
position = "{317, 805}";
}
);
paths = (
{
closed = 1;
nodes = (
"50 0 LINE",
"245 0 LINE",
"245 245 LINE",
"285 245 LINE SMOOTH",
"498 245 OFFCURVE",
"596 323 OFFCURVE",
"596 492 CURVE SMOOTH",
"596 674 OFFCURVE",
"494 750 OFFCURVE",
"250 750 CURVE SMOOTH",
"177 750 OFFCURVE",
"107 745 OFFCURVE",
"50 735 CURVE"
);
},
{
closed = 1;
nodes = (
"286 394 CURVE SMOOTH",
"275 394 OFFCURVE",
"254 395 OFFCURVE",
"245 396 CURVE",
"245 589 LINE",
"252 590 OFFCURVE",
"273 592 OFFCURVE",
"280 592 CURVE SMOOTH",
"371 592 OFFCURVE",
"396 570 OFFCURVE",
"396 492 CURVE SMOOTH",
"396 416 OFFCURVE",
"372 394 OFFCURVE"
);
},
{
closed = 1;
nodes = (
"420 0 LINE",
"621 0 LINE",
"444 351 LINE",
"289 289 LINE"
);
}
);
};
layerId = "C8FFBC04-9D7C-494A-A42D-BACB8E26599D";
paths = (
{
closed = 1;
nodes = (
"245 0 LINE",
"245 245 LINE",
"285 245 LINE SMOOTH",
"498 245 OFFCURVE",
"596 323 OFFCURVE",
"596 492 CURVE SMOOTH",
"596 674 OFFCURVE",
"494 750 OFFCURVE",
"250 750 CURVE SMOOTH",
"177 750 OFFCURVE",
"107 745 OFFCURVE",
"50 735 CURVE",
"50 0 LINE"
);
},
{
closed = 1;
nodes = (
"621 0 LINE",
"444 351 LINE",
"289 289 LINE",
"420 0 LINE"
);
},
{
closed = 1;
nodes = (
"275 394 OFFCURVE",
"254 395 OFFCURVE",
"245 396 CURVE",
"245 589 LINE",
"252 590 OFFCURVE",
"273 592 OFFCURVE",
"280 592 CURVE SMOOTH",
"371 592 OFFCURVE",
"396 570 OFFCURVE",
"396 492 CURVE SMOOTH",
"396 416 OFFCURVE",
"372 394 OFFCURVE",
"286 394 CURVE SMOOTH"
);
}
);
width = 621;
},
{
anchors = (
{
name = bottom;
position = "{341, 0}";
},
{
name = top;
position = "{336, 760}";
}
);
background = {
paths = (
{
closed = 1;
nodes = (
"849 -38 LINE",
"849 265 LINE",
"905 258 OFFCURVE",
"952 256 OFFCURVE",
"993 256 CURVE SMOOTH",
"1205 256 OFFCURVE",
"1300 322 OFFCURVE",
"1300 483 CURVE SMOOTH",
"1300 643 OFFCURVE",
"1201 712 OFFCURVE",
"983 712 CURVE SMOOTH",
"929 712 OFFCURVE",
"872 707 OFFCURVE",
"815 697 CURVE",
"815 -38 LINE"
);
},
{
closed = 1;
nodes = (
"1334 -38 LINE",
"1120 281 LINE",
"1085 273 LINE",
"1294 -38 LINE"
);
},
{
closed = 1;
nodes = (
"935 288 OFFCURVE",
"867 294 OFFCURVE",
"849 300 CURVE",
"849 668 LINE",
"882 674 OFFCURVE",
"936 678 OFFCURVE",
"982 678 CURVE SMOOTH",
"1177 678 OFFCURVE",
"1266 619 OFFCURVE",
"1266 483 CURVE SMOOTH",
"1266 343 OFFCURVE",
"1186 288 OFFCURVE",
"993 288 CURVE SMOOTH"
);
},
{
closed = 1;
nodes = (
"533 -5 OFFCURVE",
"622 66 OFFCURVE",
"622 200 CURVE SMOOTH",
"622 299 OFFCURVE",
"565 365 OFFCURVE",
"453 384 CURVE",
"450 377 LINE",
"550 399 OFFCURVE",
"600 460 OFFCURVE",
"600 553 CURVE SMOOTH",
"600 682 OFFCURVE",
"516 747 OFFCURVE",
"313 747 CURVE SMOOTH",
"236 747 OFFCURVE",
"178 741 OFFCURVE",
"105 727 CURVE",
"105 6 LINE",
"182 -2 OFFCURVE",
"231 -5 OFFCURVE",
"298 -5 CURVE SMOOTH"
);
},
{
closed = 1;
nodes = (
"229 28 OFFCURVE",
"182 32 OFFCURVE",
"139 37 CURVE",
"139 699 LINE",
"189 709 OFFCURVE",
"246 714 OFFCURVE",
"314 714 CURVE SMOOTH",
"494 714 OFFCURVE",
"566 668 OFFCURVE",
"566 553 CURVE SMOOTH",
"566 443 OFFCURVE",
"493 396 OFFCURVE",
"347 396 CURVE SMOOTH",
"131 396 LINE",
"131 363 LINE",
"354 363 LINE SMOOTH",
"511 363 OFFCURVE",
"587 315 OFFCURVE",
"587 202 CURVE SMOOTH",
"587 87 OFFCURVE",
"521 28 OFFCURVE",
"299 28 CURVE SMOOTH"
);
}
);
};
color = 4;
layerId = "E28BEEB5-BD92-4E7A-B4EA-FC5E5BBBF580";
paths = (
{
closed = 1;
nodes = (
"139 0 LINE",
"139 332 LINE",
"189 328 OFFCURVE",
"228 325 OFFCURVE",
"285 325 CURVE SMOOTH",
"502 325 OFFCURVE",
"604 396 OFFCURVE",
"604 538 CURVE SMOOTH",
"604 687 OFFCURVE",
"511 747 OFFCURVE",
"308 747 CURVE SMOOTH",
"220 747 OFFCURVE",
"161 738 OFFCURVE",
"105 727 CURVE",
"105 0 LINE"
);
},
{
closed = 1;
nodes = (
"654 0 LINE",
"355 354 LINE",
"311 354 LINE",
"610 0 LINE"
);
},
{
closed = 1;
nodes = (
"221 358 OFFCURVE",
"193 360 OFFCURVE",
"139 365 CURVE",
"139 699 LINE",
"189 708 OFFCURVE",
"232 714 OFFCURVE",
"307 714 CURVE SMOOTH",
"492 714 OFFCURVE",
"570 670 OFFCURVE",
"570 536 CURVE SMOOTH",
"570 418 OFFCURVE",
"489 358 OFFCURVE",
"286 358 CURVE SMOOTH"
);
}
);
width = 686;
},
{
anchors = (
{
name = bottom;
position = "{408, -110}";
},
{
name = top;
position = "{398, 885}";
}
);
background = {
anchors = (
{
name = bottom;
position = "{408, -110}";
},
{
name = topUC;
position = "{398, 885}";
}
);
paths = (
{
closed = 1;
nodes = (
"65 0 LINE",
"300 0 LINE",
"300 221 LINE",
"329 221 LINE SMOOTH",
"613 221 OFFCURVE",
"757 311 OFFCURVE",
"757 487 CURVE SMOOTH",
"757 672 OFFCURVE",
"628 750 OFFCURVE",
"325 750 CURVE SMOOTH",
"246 750 OFFCURVE",
"160 745 OFFCURVE",
"65 735 CURVE"
);
},
{
closed = 1;
nodes = (
"371 398 CURVE SMOOTH",
"331 398 OFFCURVE",
"316 399 OFFCURVE",
"300 404 CURVE",
"300 568 LINE",
"321 570 OFFCURVE",
"360 572 OFFCURVE",
"383 572 CURVE SMOOTH",
"491 572 OFFCURVE",
"518 554 OFFCURVE",
"518 486 CURVE SMOOTH",
"518 418 OFFCURVE",
"486 398 OFFCURVE"
);
},
{
closed = 1;
nodes = (
"530 0 LINE",
"799 0 LINE",
"524 391 LINE",
"376 276 LINE"
);
}
);
};
layerId = "1E90A949-97C4-49F5-AA9A-AF35B6FD63CF";
paths = (
{
closed = 1;
nodes = (
"300 0 LINE",
"300 221 LINE",
"329 221 LINE SMOOTH",
"613 221 OFFCURVE",
"757 311 OFFCURVE",
"757 487 CURVE SMOOTH",
"757 672 OFFCURVE",
"628 750 OFFCURVE",
"325 750 CURVE SMOOTH",
"246 750 OFFCURVE",
"160 745 OFFCURVE",
"65 735 CURVE",
"65 0 LINE"
);
},
{
closed = 1;
nodes = (
"799 0 LINE",
"524 391 LINE",
"376 276 LINE",
"530 0 LINE"
);
},
{
closed = 1;
nodes = (
"331 398 OFFCURVE",
"316 399 OFFCURVE",
"300 404 CURVE",
"300 568 LINE",
"321 570 OFFCURVE",
"360 572 OFFCURVE",
"383 572 CURVE SMOOTH",
"491 572 OFFCURVE",
"518 554 OFFCURVE",
"518 486 CURVE SMOOTH",
"518 418 OFFCURVE",
"486 398 OFFCURVE",
"371 398 CURVE SMOOTH"
);
}
);
width = 793;
}
);
leftKerningGroup = KERN_I_2ND;
leftMetricsKey = H;
rightKerningGroup = KERN_R_1ST;
unicode = 0052;
userData = {
com.typemytype.robofont.layerData = {
};
};
},
{
color = 3;
glyphname = S;
lastChange = "2016-11-11 22:43:50 +0000";
layers = (
{
anchors = (
{
name = bottom;
position = "{225, 0}";
},
{
name = top;
position = "{225, 760}";
}
);
background = {
guideLines = (
{
position = "{203, 749}";
}
);
paths = (
{
closed = 1;
nodes = (
"829 -9 OFFCURVE",
"909 66 OFFCURVE",
"909 192 CURVE SMOOTH",
"909 288 OFFCURVE",
"869 353 OFFCURVE",
"737 395 CURVE SMOOTH",
"615 434 OFFCURVE",
"580 470 OFFCURVE",
"580 561 CURVE SMOOTH",
"580 652 OFFCURVE",
"639 704 OFFCURVE",
"742 704 CURVE SMOOTH",
"788 704 OFFCURVE",
"830 697 OFFCURVE",
"877 682 CURVE",
"877 729 LINE",
"838 741 OFFCURVE",
"792 749 OFFCURVE",
"743 749 CURVE SMOOTH",
"615 749 OFFCURVE",
"534 677 OFFCURVE",
"534 561 CURVE SMOOTH",
"534 452 OFFCURVE",
"581 392 OFFCURVE",
"715 353 CURVE SMOOTH",
"824 321 OFFCURVE",
"863 280 OFFCURVE",
"863 190 CURVE SMOOTH",
"863 90 OFFCURVE",
"801 36 OFFCURVE",
"691 36 CURVE SMOOTH",
"646 36 OFFCURVE",
"602 43 OFFCURVE",
"546 62 CURVE",
"546 15 LINE",
"590 -1 OFFCURVE",
"639 -9 OFFCURVE",
"693 -9 CURVE SMOOTH"
);
},
{
closed = 1;
nodes = (
"355 -9 OFFCURVE",
"453 90 OFFCURVE",
"453 369 CURVE SMOOTH",
"453 649 OFFCURVE",
"355 749 OFFCURVE",
"178 749 CURVE SMOOTH",
"138 749 OFFCURVE",
"92 743 OFFCURVE",
"46 729 CURVE",
"46 695 LINE",
"100 713 OFFCURVE",
"142 716 OFFCURVE",
"182 716 CURVE SMOOTH",
"332 716 OFFCURVE",
"417 636 OFFCURVE",
"417 371 CURVE SMOOTH",
"417 104 OFFCURVE",
"332 24 OFFCURVE",
"186 24 CURVE SMOOTH",
"142 24 OFFCURVE",
"100 31 OFFCURVE",
"46 50 CURVE",
"46 16 LINE",
"90 0 OFFCURVE",
"138 -9 OFFCURVE",
"185 -9 CURVE SMOOTH"
);
}
);
};
color = 4;
layerId = "ECFF4977-BDCC-4836-B4AC-1801CF0EB460";
paths = (
{
closed = 1;
nodes = (
"326 -9 OFFCURVE",
"404 61 OFFCURVE",
"404 189 CURVE SMOOTH",
"404 292 OFFCURVE",
"349 353 OFFCURVE",
"237 389 CURVE SMOOTH",
"112 429 OFFCURVE",
"75 469 OFFCURVE",
"75 562 CURVE SMOOTH",
"75 662 OFFCURVE",
"137 716 OFFCURVE",
"242 716 CURVE SMOOTH",
"291 716 OFFCURVE",
"330 710 OFFCURVE",
"377 695 CURVE",
"377 729 LINE",
"332 743 OFFCURVE",
"287 749 OFFCURVE",
"245 749 CURVE SMOOTH",
"120 749 OFFCURVE",
"39 682 OFFCURVE",
"39 560 CURVE SMOOTH",
"39 454 OFFCURVE",
"86 401 OFFCURVE",
"215 359 CURVE SMOOTH",
"329 323 OFFCURVE",
"368 280 OFFCURVE",
"368 186 CURVE SMOOTH",
"368 81 OFFCURVE",
"306 24 OFFCURVE",
"190 24 CURVE SMOOTH",
"142 24 OFFCURVE",
"100 32 OFFCURVE",
"46 50 CURVE",
"46 16 LINE",
"92 -1 OFFCURVE",
"140 -9 OFFCURVE",
"187 -9 CURVE SMOOTH"
);
}
);
width = 443;
},
{
anchors = (
{
name = bottom;
position = "{268, 0}";
},
{
name = top;
position = "{262, 805}";
}
);
background = {
anchors = (
{
name = bottom;
position = "{268, 0}";
},
{
name = topUC;
position = "{262, 805}";
}
);
paths = (
{
closed = 1;
nodes = (
"253 -12 CURVE SMOOTH",
"410 -12 OFFCURVE",
"508 79 OFFCURVE",
"508 225 CURVE SMOOTH",
"508 364 OFFCURVE",
"433 410 OFFCURVE",
"361 439 CURVE SMOOTH",
"293 466 OFFCURVE",
"227 477 OFFCURVE",
"227 535 CURVE SMOOTH",
"227 574 OFFCURVE",
"252 592 OFFCURVE",
"306 592 CURVE SMOOTH",
"346 592 OFFCURVE",
"423 579 OFFCURVE",
"473 564 CURVE",
"473 719 LINE",
"410 739 OFFCURVE",
"348 748 OFFCURVE",
"289 748 CURVE SMOOTH",
"127 748 OFFCURVE",
"32 669 OFFCURVE",
"32 535 CURVE SMOOTH",
"32 357 OFFCURVE",
"121 316 OFFCURVE",
"199 294 CURVE SMOOTH",
"260 277 OFFCURVE",
"313 270 OFFCURVE",
"313 218 CURVE SMOOTH",
"313 172 OFFCURVE",
"281 149 OFFCURVE",
"215 149 CURVE SMOOTH",
"159 149 OFFCURVE",
"77 168 OFFCURVE",
"28 191 CURVE",
"28 28 LINE",
"113 0 OFFCURVE",
"183 -12 OFFCURVE"
);
}
);
};
layerId = "C8FFBC04-9D7C-494A-A42D-BACB8E26599D";
paths = (
{
closed = 1;
nodes = (
"410 -12 OFFCURVE",
"508 79 OFFCURVE",
"508 225 CURVE SMOOTH",
"508 364 OFFCURVE",
"433 410 OFFCURVE",
"361 439 CURVE SMOOTH",
"293 466 OFFCURVE",
"227 477 OFFCURVE",
"227 535 CURVE SMOOTH",
"227 574 OFFCURVE",
"252 592 OFFCURVE",
"306 592 CURVE SMOOTH",
"346 592 OFFCURVE",
"423 579 OFFCURVE",
"473 564 CURVE",
"473 719 LINE",
"410 739 OFFCURVE",
"348 748 OFFCURVE",
"289 748 CURVE SMOOTH",
"127 748 OFFCURVE",
"32 669 OFFCURVE",
"32 535 CURVE SMOOTH",
"32 357 OFFCURVE",
"121 316 OFFCURVE",
"199 294 CURVE SMOOTH",
"260 277 OFFCURVE",
"313 270 OFFCURVE",
"313 218 CURVE SMOOTH",
"313 172 OFFCURVE",
"281 149 OFFCURVE",
"215 149 CURVE SMOOTH",
"159 149 OFFCURVE",
"77 168 OFFCURVE",
"28 191 CURVE",
"28 28 LINE",
"113 0 OFFCURVE",
"183 -12 OFFCURVE",
"253 -12 CURVE SMOOTH"
);
}
);
width = 524;
},
{
anchors = (
{
name = bottom;
position = "{285, 0}";
},
{
name = top;
position = "{285, 760}";
}
);
background = {
guideLines = (
{
position = "{213, 749}";
}
);
paths = (
{
closed = 1;
nodes = (
"420 -9 OFFCURVE",
"516 66 OFFCURVE",
"516 194 CURVE SMOOTH",
"516 301 OFFCURVE",
"454 355 OFFCURVE",
"288 386 CURVE SMOOTH",
"126 417 OFFCURVE",
"83 458 OFFCURVE",
"83 548 CURVE SMOOTH",
"83 658 OFFCURVE",
"162 716 OFFCURVE",
"303 716 CURVE SMOOTH",
"361 716 OFFCURVE",
"422 706 OFFCURVE",
"481 688 CURVE",
"481 722 LINE",
"430 739 OFFCURVE",
"364 749 OFFCURVE",
"303 749 CURVE SMOOTH",
"141 749 OFFCURVE",
"46 676 OFFCURVE",
"47 546 CURVE SMOOTH",
"48 439 OFFCURVE",
"111 384 OFFCURVE",
"281 352 CURVE SMOOTH",
"431 324 OFFCURVE",
"480 284 OFFCURVE",
"480 192 CURVE SMOOTH",
"480 79 OFFCURVE",
"400 24 OFFCURVE",
"255 24 CURVE SMOOTH",
"185 24 OFFCURVE",
"128 33 OFFCURVE",
"54 57 CURVE",
"54 23 LINE",
"116 1 OFFCURVE",
"177 -9 OFFCURVE",
"253 -9 CURVE SMOOTH"
);
}
);
};
color = 4;
layerId = "E28BEEB5-BD92-4E7A-B4EA-FC5E5BBBF580";
paths = (
{
closed = 1;
nodes = (
"420 -9 OFFCURVE",
"519 63 OFFCURVE",
"519 194 CURVE SMOOTH",
"519 294 OFFCURVE",
"459 354 OFFCURVE",
"288 386 CURVE SMOOTH",
"132 416 OFFCURVE",
"80 457 OFFCURVE",
"80 552 CURVE SMOOTH",
"80 658 OFFCURVE",
"156 716 OFFCURVE",
"303 716 CURVE SMOOTH",
"363 716 OFFCURVE",
"424 707 OFFCURVE",
"484 688 CURVE",
"484 722 LINE",
"433 739 OFFCURVE",
"366 749 OFFCURVE",
"303 749 CURVE SMOOTH",
"134 749 OFFCURVE",
"44 676 OFFCURVE",
"44 550 CURVE SMOOTH",
"44 445 OFFCURVE",
"107 386 OFFCURVE",
"281 352 CURVE SMOOTH",
"432 322 OFFCURVE",
"483 283 OFFCURVE",
"483 192 CURVE SMOOTH",
"483 82 OFFCURVE",
"404 24 OFFCURVE",
"250 24 CURVE SMOOTH",
"190 24 OFFCURVE",
"123 33 OFFCURVE",
"51 57 CURVE",
"51 23 LINE",
"115 1 OFFCURVE",
"186 -9 OFFCURVE",
"247 -9 CURVE SMOOTH"
);
}
);
width = 563;
},
{
anchors = (
{
name = bottom;
position = "{366, -34}";
},
{
name = top;
position = "{368, 884}";
}
);
background = {
anchors = (
{
name = bottom;
position = "{366, -34}";
},
{
name = topUC;
position = "{368, 884}";
}
);
paths = (
{
closed = 1;
nodes = (
"351 -12 CURVE SMOOTH",
"583 -12 OFFCURVE",
"695 67 OFFCURVE",
"695 231 CURVE SMOOTH",
"695 358 OFFCURVE",
"613 424 OFFCURVE",
"415 454 CURVE SMOOTH",
"324 468 OFFCURVE",
"292 486 OFFCURVE",
"292 524 CURVE SMOOTH",
"292 556 OFFCURVE",
"330 571 OFFCURVE",
"409 571 CURVE SMOOTH",
"482 571 OFFCURVE",
"578 557 OFFCURVE",
"652 535 CURVE",
"652 720 LINE",
"515 744 OFFCURVE",
"454 751 OFFCURVE",
"381 751 CURVE SMOOTH",
"170 751 OFFCURVE",
"44 664 OFFCURVE",
"44 517 CURVE SMOOTH",
"44 369 OFFCURVE",
"134 292 OFFCURVE",
"334 269 CURVE SMOOTH",
"417 259 OFFCURVE",
"447 243 OFFCURVE",
"447 208 CURVE SMOOTH",
"447 178 OFFCURVE",
"419 168 OFFCURVE",
"335 168 CURVE SMOOTH",
"254 168 OFFCURVE",
"165 178 OFFCURVE",
"37 203 CURVE",
"37 17 LINE",
"131 0 OFFCURVE",
"262 -12 OFFCURVE"
);
}
);
};
layerId = "1E90A949-97C4-49F5-AA9A-AF35B6FD63CF";
paths = (
{
closed = 1;
nodes = (
"583 -12 OFFCURVE",
"695 67 OFFCURVE",
"695 231 CURVE SMOOTH",
"695 358 OFFCURVE",
"613 424 OFFCURVE",
"415 454 CURVE SMOOTH",
"324 468 OFFCURVE",
"292 486 OFFCURVE",
"292 524 CURVE SMOOTH",
"292 556 OFFCURVE",
"330 571 OFFCURVE",
"409 571 CURVE SMOOTH",
"482 571 OFFCURVE",
"578 557 OFFCURVE",
"652 535 CURVE",
"652 720 LINE",
"515 744 OFFCURVE",
"454 751 OFFCURVE",
"381 751 CURVE SMOOTH",
"170 751 OFFCURVE",
"44 664 OFFCURVE",
"44 517 CURVE SMOOTH",
"44 369 OFFCURVE",
"134 292 OFFCURVE",
"334 269 CURVE SMOOTH",
"417 259 OFFCURVE",
"447 243 OFFCURVE",
"447 208 CURVE SMOOTH",
"447 178 OFFCURVE",
"419 168 OFFCURVE",
"335 168 CURVE SMOOTH",
"254 168 OFFCURVE",
"165 178 OFFCURVE",
"37 203 CURVE",
"37 17 LINE",
"131 0 OFFCURVE",
"262 -12 OFFCURVE",
"351 -12 CURVE SMOOTH"
);
}
);
width = 719;
}
);
leftKerningGroup = KERN_S;
rightKerningGroup = KERN_S;
unicode = 0053;
userData = {
com.typemytype.robofont.layerData = {
};
};
},
{
color = 3;
glyphname = Germandbls;
lastChange = "2016-11-11 10:00:03 +0000";
layers = (
{
background = {
paths = (
{
closed = 1;
nodes = (
"150 749 OFFCURVE",
"84 667 OFFCURVE",
"84 494 CURVE SMOOTH",
"84 0 LINE",
"118 0 LINE",
"118 499 LINE SMOOTH",
"118 645 OFFCURVE",
"171 716 OFFCURVE",
"306 716 CURVE SMOOTH",
"441 716 OFFCURVE",
"494 645 OFFCURVE",
"494 499 CURVE SMOOTH",
"494 0 LINE",
"528 0 LINE",
"528 494 LINE SMOOTH",
"528 667 OFFCURVE",
"462 749 OFFCURVE",
"306 749 CURVE SMOOTH"
);
}
);
};
color = 4;
layerId = "ECFF4977-BDCC-4836-B4AC-1801CF0EB460";
paths = (
{
closed = 1;
nodes = (
"606 -9 OFFCURVE",
"684 61 OFFCURVE",
"684 189 CURVE SMOOTH",
"684 292 OFFCURVE",
"629 353 OFFCURVE",
"517 389 CURVE SMOOTH",
"392 429 OFFCURVE",
"355 469 OFFCURVE",
"355 562 CURVE SMOOTH",
"355 662 OFFCURVE",
"417 716 OFFCURVE",
"522 716 CURVE SMOOTH",
"571 716 OFFCURVE",
"610 710 OFFCURVE",
"657 695 CURVE",
"657 729 LINE",
"612 743 OFFCURVE",
"567 749 OFFCURVE",
"525 749 CURVE SMOOTH",
"400 749 OFFCURVE",
"319 682 OFFCURVE",
"319 560 CURVE SMOOTH",
"319 454 OFFCURVE",
"366 401 OFFCURVE",
"495 359 CURVE SMOOTH",
"609 322 OFFCURVE",
"648 280 OFFCURVE",
"648 186 CURVE SMOOTH",
"648 81 OFFCURVE",
"586 24 OFFCURVE",
"470 24 CURVE SMOOTH",
"422 24 OFFCURVE",
"380 32 OFFCURVE",
"326 50 CURVE",
"326 16 LINE",
"372 -1 OFFCURVE",
"420 -9 OFFCURVE",
"467 -9 CURVE SMOOTH"
);
},
{
closed = 1;
nodes = (
"436 718 LINE",
"402 738 OFFCURVE",
"358 749 OFFCURVE",
"306 749 CURVE SMOOTH",
"150 749 OFFCURVE",
"84 667 OFFCURVE",
"84 494 CURVE SMOOTH",
"84 0 LINE",
"118 0 LINE",
"118 499 LINE SMOOTH",
"118 645 OFFCURVE",
"171 716 OFFCURVE",
"306 716 CURVE SMOOTH",
"345 716 OFFCURVE",
"377 710 OFFCURVE",
"405 697 CURVE"
);
}
);
width = 723;
},
{
layerId = "C8FFBC04-9D7C-494A-A42D-BACB8E26599D";
width = 600;
},
{
background = {
paths = (
{
closed = 1;
nodes = (
"197 749 OFFCURVE",
"105 663 OFFCURVE",
"105 457 CURVE SMOOTH",
"105 0 LINE",
"139 0 LINE",
"139 462 LINE SMOOTH",
"139 641 OFFCURVE",
"218 716 OFFCURVE",
"388 716 CURVE SMOOTH",
"558 716 OFFCURVE",
"637 641 OFFCURVE",
"637 462 CURVE SMOOTH",
"637 0 LINE",
"671 0 LINE",
"671 457 LINE SMOOTH",
"671 663 OFFCURVE",
"579 749 OFFCURVE",
"388 749 CURVE SMOOTH"
);
},
{
closed = 1;
nodes = (
"818 -9 OFFCURVE",
"917 63 OFFCURVE",
"917 194 CURVE SMOOTH",
"917 294 OFFCURVE",
"857 354 OFFCURVE",
"686 386 CURVE SMOOTH",
"530 415 OFFCURVE",
"478 457 OFFCURVE",
"478 552 CURVE SMOOTH",
"478 658 OFFCURVE",
"554 716 OFFCURVE",
"701 716 CURVE SMOOTH",
"761 716 OFFCURVE",
"822 707 OFFCURVE",
"882 688 CURVE",
"882 722 LINE",
"831 739 OFFCURVE",
"764 749 OFFCURVE",
"701 749 CURVE SMOOTH",
"532 749 OFFCURVE",
"441 676 OFFCURVE",
"442 550 CURVE SMOOTH",
"443 445 OFFCURVE",
"505 387 OFFCURVE",
"679 352 CURVE SMOOTH",
"830 322 OFFCURVE",
"881 283 OFFCURVE",
"881 192 CURVE SMOOTH",
"881 82 OFFCURVE",
"802 24 OFFCURVE",
"648 24 CURVE SMOOTH",
"588 24 OFFCURVE",
"521 33 OFFCURVE",
"449 57 CURVE",
"449 23 LINE",
"513 1 OFFCURVE",
"584 -9 OFFCURVE",
"645 -9 CURVE SMOOTH"
);
}
);
};
color = 4;
layerId = "E28BEEB5-BD92-4E7A-B4EA-FC5E5BBBF580";
paths = (
{
closed = 1;
nodes = (
"769 -9 OFFCURVE",
"868 63 OFFCURVE",
"868 194 CURVE SMOOTH",
"868 294 OFFCURVE",
"808 354 OFFCURVE",
"637 386 CURVE SMOOTH",
"481 415 OFFCURVE",
"429 457 OFFCURVE",
"429 552 CURVE SMOOTH",
"429 658 OFFCURVE",
"505 716 OFFCURVE",
"652 716 CURVE SMOOTH",
"712 716 OFFCURVE",
"773 707 OFFCURVE",
"833 688 CURVE",
"833 722 LINE",
"782 739 OFFCURVE",
"715 749 OFFCURVE",
"652 749 CURVE SMOOTH",
"483 749 OFFCURVE",
"392 676 OFFCURVE",
"393 550 CURVE SMOOTH",
"394 445 OFFCURVE",
"456 387 OFFCURVE",
"630 352 CURVE SMOOTH",
"781 322 OFFCURVE",
"832 283 OFFCURVE",
"832 192 CURVE SMOOTH",
"832 82 OFFCURVE",
"753 24 OFFCURVE",
"599 24 CURVE SMOOTH",
"539 24 OFFCURVE",
"472 33 OFFCURVE",
"400 57 CURVE",
"400 23 LINE",
"464 1 OFFCURVE",
"535 -9 OFFCURVE",
"596 -9 CURVE SMOOTH"
);
},
{
closed = 1;
nodes = (
"548 716 LINE",
"507 739 OFFCURVE",
"454 749 OFFCURVE",
"388 749 CURVE SMOOTH",
"197 749 OFFCURVE",
"105 663 OFFCURVE",
"105 457 CURVE SMOOTH",
"105 0 LINE",
"139 0 LINE",
"139 462 LINE SMOOTH",
"139 641 OFFCURVE",
"218 716 OFFCURVE",
"388 716 CURVE SMOOTH",
"436 716 OFFCURVE",
"476 710 OFFCURVE",
"510 698 CURVE"
);
}
);
width = 912;
},
{
layerId = "1E90A949-97C4-49F5-AA9A-AF35B6FD63CF";
width = 600;
}
);
leftMetricsKey = H;
rightMetricsKey = S;
unicode = 1E9E;
},
{
color = 3;
glyphname = Schwa;
lastChange = "2016-11-10 20:52:21 +0000";
layers = (
{
anchors = (
{
name = bottom;
position = "{293, 0}";
},
{
name = top;
position = "{293, 760}";
}
);
background = {
paths = (
{
closed = 1;
nodes = (
"1039 -9 OFFCURVE",
"1135 91 OFFCURVE",
"1135 370 CURVE SMOOTH",
"1135 649 OFFCURVE",
"1041 749 OFFCURVE",
"893 749 CURVE SMOOTH",
"745 749 OFFCURVE",
"651 649 OFFCURVE",
"651 370 CURVE SMOOTH",
"651 91 OFFCURVE",
"747 -9 OFFCURVE",
"893 -9 CURVE SMOOTH"
);
},
{
closed = 1;
nodes = (
"769 24 OFFCURVE",
"687 103 OFFCURVE",
"687 372 CURVE SMOOTH",
"687 637 OFFCURVE",
"769 716 OFFCURVE",
"893 716 CURVE SMOOTH",
"1017 716 OFFCURVE",
"1099 637 OFFCURVE",
"1099 368 CURVE SMOOTH",
"1099 103 OFFCURVE",
"1017 24 OFFCURVE",
"893 24 CURVE SMOOTH"
);
},
{
closed = 1;
nodes = (
"388 -9 OFFCURVE",
"486 90 OFFCURVE",
"486 369 CURVE SMOOTH",
"486 649 OFFCURVE",
"388 749 OFFCURVE",
"211 749 CURVE SMOOTH",
"171 749 OFFCURVE",
"125 743 OFFCURVE",
"79 729 CURVE",
"79 695 LINE",
"133 713 OFFCURVE",
"175 716 OFFCURVE",
"215 716 CURVE SMOOTH",
"365 716 OFFCURVE",
"450 636 OFFCURVE",
"450 371 CURVE SMOOTH",
"450 104 OFFCURVE",
"365 24 OFFCURVE",
"219 24 CURVE SMOOTH",
"175 24 OFFCURVE",
"133 31 OFFCURVE",
"79 50 CURVE",
"79 16 LINE",
"123 0 OFFCURVE",
"171 -9 OFFCURVE",
"218 -9 CURVE SMOOTH"
);
}
);
};
color = 4;
layerId = "ECFF4977-BDCC-4836-B4AC-1801CF0EB460";
paths = (
{
closed = 1;
nodes = (
"439 -9 OFFCURVE",
"535 91 OFFCURVE",
"535 370 CURVE SMOOTH",
"535 651 OFFCURVE",
"431 749 OFFCURVE",
"243 749 CURVE SMOOTH",
"186 749 OFFCURVE",
"135 741 OFFCURVE",
"79 729 CURVE",
"79 695 LINE",
"143 711 OFFCURVE",
"191 716 OFFCURVE",
"240 716 CURVE SMOOTH",
"417 716 OFFCURVE",
"499 639 OFFCURVE",
"499 367 CURVE SMOOTH",
"499 103 OFFCURVE",
"417 24 OFFCURVE",
"287 24 CURVE SMOOTH",
"157 24 OFFCURVE",
"81 103 OFFCURVE",
"81 370 CURVE",
"69 357 LINE",
"503 357 LINE",
"503 390 LINE",
"45 390 LINE",
"45 370 LINE SMOOTH",
"45 93 OFFCURVE",
"135 -9 OFFCURVE",
"287 -9 CURVE SMOOTH"
);
}
);
width = 585;
},
{
background = {
paths = (
{
closed = 1;
nodes = (
"431 362 CURVE SMOOTH",
"431 190 OFFCURVE",
"407 140 OFFCURVE",
"310 140 CURVE SMOOTH",
"226 140 OFFCURVE",
"210 175 OFFCURVE",
"210 330 CURVE",
"146 304 LINE",
"540 304 LINE",
"540 433 LINE",
"27 433 LINE",
"23 399 OFFCURVE",
"21 366 OFFCURVE",
"21 330 CURVE SMOOTH",
"21 91 OFFCURVE",
"113 -10 OFFCURVE",
"298 -10 CURVE SMOOTH",
"518 -10 OFFCURVE",
"628 132 OFFCURVE",
"628 370 CURVE SMOOTH",
"628 620 OFFCURVE",
"508 748 OFFCURVE",
"274 748 CURVE SMOOTH",
"191 748 OFFCURVE",
"113 732 OFFCURVE",
"46 708 CURVE",
"54 555 LINE",
"122 576 OFFCURVE",
"187 584 OFFCURVE",
"254 584 CURVE SMOOTH",
"397 584 OFFCURVE",
"431 552 OFFCURVE"
);
}
);
};
layerId = "C8FFBC04-9D7C-494A-A42D-BACB8E26599D";
paths = (
{
closed = 1;
nodes = (
"518 -10 OFFCURVE",
"628 132 OFFCURVE",
"628 370 CURVE SMOOTH",
"628 620 OFFCURVE",
"508 748 OFFCURVE",
"274 748 CURVE SMOOTH",
"191 748 OFFCURVE",
"113 732 OFFCURVE",
"46 708 CURVE",
"54 555 LINE",
"122 576 OFFCURVE",
"187 584 OFFCURVE",
"254 584 CURVE SMOOTH",
"397 584 OFFCURVE",
"431 552 OFFCURVE",
"431 362 CURVE SMOOTH",
"431 190 OFFCURVE",
"407 140 OFFCURVE",
"310 140 CURVE SMOOTH",
"226 140 OFFCURVE",
"210 175 OFFCURVE",
"210 330 CURVE",
"146 304 LINE",
"540 304 LINE",
"540 433 LINE",
"27 433 LINE",
"23 399 OFFCURVE",
"21 366 OFFCURVE",
"21 330 CURVE SMOOTH",
"21 91 OFFCURVE",
"113 -10 OFFCURVE",
"298 -10 CURVE SMOOTH"
);
}
);
width = 654;
},
{
anchors = (
{
name = bottom;
position = "{389, 0}";
},
{
name = top;
position = "{389, 760}";
}
);
background = {
paths = (
{
closed = 1;
nodes = (
"1380 -9 OFFCURVE",
"1513 98 OFFCURVE",
"1513 370 CURVE SMOOTH",
"1513 642 OFFCURVE",
"1377 749 OFFCURVE",
"1189 749 CURVE SMOOTH",
"1001 749 OFFCURVE",
"865 636 OFFCURVE",
"865 370 CURVE SMOOTH",
"865 104 OFFCURVE",
"998 -9 OFFCURVE",
"1189 -9 CURVE SMOOTH"
);
},
{
closed = 1;
nodes = (
"1019 25 OFFCURVE",
"901 121 OFFCURVE",
"901 372 CURVE SMOOTH",
"901 619 OFFCURVE",
"1019 715 OFFCURVE",
"1189 715 CURVE SMOOTH",
"1359 715 OFFCURVE",
"1477 619 OFFCURVE",
"1477 368 CURVE SMOOTH",
"1477 121 OFFCURVE",
"1359 25 OFFCURVE",
"1189 25 CURVE SMOOTH"
);
},
{
closed = 1;
nodes = (
"586 -9 OFFCURVE",
"713 138 OFFCURVE",
"713 360 CURVE SMOOTH",
"713 390 LINE",
"80 390 LINE",
"80 357 LINE",
"695 357 LINE",
"675 374 LINE",
"684 171 OFFCURVE",
"565 25 OFFCURVE",
"389 25 CURVE SMOOTH",
"213 25 OFFCURVE",
"95 121 OFFCURVE",
"95 368 CURVE SMOOTH",
"95 619 OFFCURVE",
"232 716 OFFCURVE",
"457 716 CURVE SMOOTH",
"531 716 OFFCURVE",
"604 706 OFFCURVE",
"674 688 CURVE",
"674 722 LINE",
"603 740 OFFCURVE",
"540 749 OFFCURVE",
"458 749 CURVE SMOOTH",
"214 749 OFFCURVE",
"59 637 OFFCURVE",
"59 369 CURVE SMOOTH",
"59 98 OFFCURVE",
"192 -9 OFFCURVE",
"389 -9 CURVE SMOOTH"
);
}
);
};
color = 4;
layerId = "E28BEEB5-BD92-4E7A-B4EA-FC5E5BBBF580";
paths = (
{
closed = 1;
nodes = (
"580 -9 OFFCURVE",
"713 98 OFFCURVE",
"713 369 CURVE SMOOTH",
"713 637 OFFCURVE",
"558 749 OFFCURVE",
"314 749 CURVE SMOOTH",
"232 749 OFFCURVE",
"169 740 OFFCURVE",
"98 722 CURVE",
"98 688 LINE",
"168 706 OFFCURVE",
"241 716 OFFCURVE",
"315 716 CURVE SMOOTH",
"540 716 OFFCURVE",
"677 619 OFFCURVE",
"677 368 CURVE SMOOTH",
"677 121 OFFCURVE",
"559 25 OFFCURVE",
"393 25 CURVE SMOOTH",
"213 25 OFFCURVE",
"95 121 OFFCURVE",
"95 368 CURVE",
"77 357 LINE",
"692 357 LINE",
"692 390 LINE",
"59 390 LINE",
"59 360 LINE SMOOTH",
"59 98 OFFCURVE",
"195 -9 OFFCURVE",
"393 -9 CURVE SMOOTH"
);
}
);
width = 777;
},
{
background = {
paths = (
{
closed = 1;
nodes = (
"546 371 CURVE SMOOTH",
"546 195 OFFCURVE",
"524 172 OFFCURVE",
"385 172 CURVE SMOOTH",
"245 172 OFFCURVE",
"247 202 OFFCURVE",
"247 313 CURVE",
"220 286 LINE",
"668 286 LINE",
"668 441 LINE",
"36 441 LINE",
"29 382 OFFCURVE",
"27 357 OFFCURVE",
"27 327 CURVE SMOOTH",
"27 85 OFFCURVE",
"152 -10 OFFCURVE",
"380 -10 CURVE SMOOTH",
"645 -10 OFFCURVE",
"769 126 OFFCURVE",
"769 379 CURVE SMOOTH",
"769 631 OFFCURVE",
"646 751 OFFCURVE",
"401 751 CURVE SMOOTH",
"318 751 OFFCURVE",
"168 738 OFFCURVE",
"63 708 CURVE",
"72 523 LINE",
"205 547 OFFCURVE",
"305 552 OFFCURVE",
"375 552 CURVE SMOOTH",
"523 552 OFFCURVE",
"546 537 OFFCURVE"
);
}
);
};
layerId = "1E90A949-97C4-49F5-AA9A-AF35B6FD63CF";
paths = (
{
closed = 1;
nodes = (
"645 -10 OFFCURVE",
"769 126 OFFCURVE",
"769 379 CURVE SMOOTH",
"769 631 OFFCURVE",
"646 751 OFFCURVE",
"401 751 CURVE SMOOTH",
"318 751 OFFCURVE",
"168 738 OFFCURVE",
"63 708 CURVE",
"72 523 LINE",
"205 547 OFFCURVE",
"305 552 OFFCURVE",
"375 552 CURVE SMOOTH",
"523 552 OFFCURVE",
"546 537 OFFCURVE",
"546 371 CURVE SMOOTH",
"546 195 OFFCURVE",
"524 172 OFFCURVE",
"385 172 CURVE SMOOTH",
"245 172 OFFCURVE",
"247 202 OFFCURVE",
"247 313 CURVE",
"220 286 LINE",
"668 286 LINE",
"668 441 LINE",
"36 441 LINE",
"29 382 OFFCURVE",
"27 357 OFFCURVE",
"27 327 CURVE SMOOTH",
"27 85 OFFCURVE",
"152 -10 OFFCURVE",
"380 -10 CURVE SMOOTH"
);
}
);
width = 801;
}
);
leftMetricsKey = "=O-5";
rightKerningGroup = KERN_O_1ST;
rightMetricsKey = O;
unicode = 018F;
userData = {
com.typemytype.robofont.layerData = {
};
};
},
{
color = 3;
glyphname = T;
lastChange = "2016-11-10 21:00:06 +0000";
layers = (
{
anchors = (
{
name = bottom;
position = "{246, 0}";
},
{
name = center;
position = "{246, 400}";
},
{
name = top;
position = "{246, 760}";
}
);
background = {
anchors = (
{
name = bottom;
position = "{249, 0}";
},
{
name = topUC;
position = "{248, 760}";
}
);
paths = (
{
closed = 1;
nodes = (
"229 0 LINE",
"263 0 LINE",
"263 706 LINE",
"457 706 LINE",
"457 740 LINE",
"35 740 LINE",
"35 706 LINE",
"229 706 LINE"
);
}
);
};
color = 4;
layerId = "ECFF4977-BDCC-4836-B4AC-1801CF0EB460";
paths = (
{
closed = 1;
nodes = (
"263 0 LINE",
"263 707 LINE",
"487 707 LINE",
"487 740 LINE",
"5 740 LINE",
"5 707 LINE",
"229 707 LINE",
"229 0 LINE"
);
}
);
width = 492;
},
{
anchors = (
{
name = bottom;
position = "{278, 0}";
},
{
name = top;
position = "{272, 805}";
}
);
background = {
anchors = (
{
name = bottom;
position = "{278, 0}";
},
{
name = topUC;
position = "{272, 805}";
}
);
paths = (
{
closed = 1;
nodes = (
"180 0 LINE",
"375 0 LINE",
"375 574 LINE",
"539 574 LINE",
"539 740 LINE",
"17 740 LINE",
"17 574 LINE",
"180 574 LINE"
);
}
);
};
layerId = "C8FFBC04-9D7C-494A-A42D-BACB8E26599D";
paths = (
{
closed = 1;
nodes = (
"375 0 LINE",
"375 574 LINE",
"539 574 LINE",
"539 740 LINE",
"17 740 LINE",
"17 574 LINE",
"180 574 LINE",
"180 0 LINE"
);
}
);
width = 556;
},
{
anchors = (
{
name = bottom;
position = "{306, 0}";
},
{
name = center;
position = "{306, 400}";
},
{
name = top;
position = "{306, 760}";
}
);
background = {
anchors = (
{
name = bottom;
position = "{307, 0}";
},
{
name = topUC;
position = "{307, 760}";
}
);
paths = (
{
closed = 1;
nodes = (
"289 0 LINE",
"323 0 LINE",
"323 706 LINE",
"597 706 LINE",
"597 740 LINE",
"15 740 LINE",
"15 706 LINE",
"289 706 LINE"
);
}
);
};
color = 4;
layerId = "E28BEEB5-BD92-4E7A-B4EA-FC5E5BBBF580";
paths = (
{
closed = 1;
nodes = (
"323 0 LINE",
"323 707 LINE",
"607 707 LINE",
"607 740 LINE",
"5 740 LINE",
"5 707 LINE",
"289 707 LINE",
"289 0 LINE"
);
}
);
width = 612;
},
{
anchors = (
{
name = bottom;
position = "{352, -110}";
},
{
name = top;
position = "{355, 885}";
}
);
background = {
anchors = (
{
name = bottom;
position = "{352, -110}";
},
{
name = topUC;
position = "{355, 885}";
}
);
paths = (
{
closed = 1;
nodes = (
"234 0 LINE",
"469 0 LINE",
"469 564 LINE",
"683 564 LINE",
"683 740 LINE",
"21 740 LINE",
"21 564 LINE",
"234 564 LINE"
);
}
);
};
layerId = "1E90A949-97C4-49F5-AA9A-AF35B6FD63CF";
paths = (
{
closed = 1;
nodes = (
"469 0 LINE",
"469 564 LINE",
"683 564 LINE",
"683 740 LINE",
"21 740 LINE",
"21 564 LINE",
"234 564 LINE",
"234 0 LINE"
);
}
);
width = 704;
}
);
leftKerningGroup = KERN_T;
rightKerningGroup = KERN_T;
unicode = 0054;
userData = {
com.typemytype.robofont.layerData = {
};
};
},
{
color = 3;
glyphname = Tbar;
lastChange = "2016-11-11 10:56:50 +0000";
layers = (
{
background = {
components = (
{
name = T;
transform = "{1, 0, 0, 1, 4, 0}";
}
);
paths = (
{
closed = 1;
nodes = (
"103 375 LINE",
"365 375 LINE",
"365 401 LINE",
"103 401 LINE"
);
}
);
};
color = 4;
components = (
{
name = T;
},
{
name = strokeshortcomb.case;
transform = "{1, 0, 0, 1, 46, -140}";
}
);
layerId = "ECFF4977-BDCC-4836-B4AC-1801CF0EB460";
width = 492;
},
{
background = {
components = (
{
name = T;
transform = "{1, 0, 0, 1, 3, 0}";
}
);
paths = (
{
closed = 1;
nodes = (
"71 315 LINE",
"468 315 LINE",
"468 422 LINE",
"71 422 LINE"
);
}
);
};
components = (
{
name = T;
},
{
name = strokeshortcomb.case;
}
);
layerId = "C8FFBC04-9D7C-494A-A42D-BACB8E26599D";
width = 560;
},
{
background = {
components = (
{
name = T;
transform = "{1, 0, 0, 1, 4, 0}";
}
);
paths = (
{
closed = 1;
nodes = (
"156 372 LINE",
"471 372 LINE",
"471 406 LINE",
"156 406 LINE"
);
}
);
};
color = 4;
components = (
{
name = T;
},
{
name = strokeshortcomb.case;
transform = "{1, 0, 0, 1, 56, -140}";
}
);
layerId = "E28BEEB5-BD92-4E7A-B4EA-FC5E5BBBF580";
width = 612;
},
{
background = {
components = (
{
name = T;
transform = "{1, 0, 0, 1, 5, 0}";
}
);
paths = (
{
closed = 1;
nodes = (
"83 300 LINE",
"656 300 LINE",
"656 427 LINE",
"83 427 LINE"
);
}
);
};
components = (
{
name = T;
},
{
name = strokeshortcomb.case;
}
);
layerId = "1E90A949-97C4-49F5-AA9A-AF35B6FD63CF";
width = 718;
}
);
leftKerningGroup = KERN_T;
rightKerningGroup = KERN_T;
unicode = 0166;
},
{
color = 3;
glyphname = U;
lastChange = "2016-11-11 10:23:19 +0000";
layers = (
{
anchors = (
{
name = bottom;
position = "{304, 0}";
},
{
name = ogonek;
position = "{381, 0}";
},
{
name = top;
position = "{304, 760}";
},
{
name = topright;
position = "{492, 740}";
}
);
background = {
paths = (
{
closed = 1;
nodes = (
"457 -9 OFFCURVE",
"527 69 OFFCURVE",
"527 251 CURVE SMOOTH",
"527 740 LINE",
"493 740 LINE",
"493 246 LINE SMOOTH",
"493 91 OFFCURVE",
"437 24 OFFCURVE",
"304 24 CURVE SMOOTH",
"171 24 OFFCURVE",
"115 91 OFFCURVE",
"115 246 CURVE SMOOTH",
"115 740 LINE",
"81 740 LINE",
"81 251 LINE SMOOTH",
"81 69 OFFCURVE",
"151 -9 OFFCURVE",
"304 -9 CURVE SMOOTH"
);
}
);
};
color = 4;
layerId = "ECFF4977-BDCC-4836-B4AC-1801CF0EB460";
paths = (
{
closed = 1;
nodes = (
"460 -9 OFFCURVE",
"526 73 OFFCURVE",
"526 246 CURVE SMOOTH",
"526 740 LINE",
"492 740 LINE",
"492 241 LINE SMOOTH",
"492 95 OFFCURVE",
"439 24 OFFCURVE",
"304 24 CURVE SMOOTH",
"169 24 OFFCURVE",
"116 95 OFFCURVE",
"116 241 CURVE SMOOTH",
"116 740 LINE",
"82 740 LINE",
"82 246 LINE SMOOTH",
"82 73 OFFCURVE",
"148 -9 OFFCURVE",
"304 -9 CURVE SMOOTH"
);
}
);
width = 608;
},
{
anchors = (
{
name = bottom;
position = "{337, 0}";
},
{
name = ogonek;
position = "{425, 4}";
},
{
name = top;
position = "{329, 805}";
}
);
background = {
anchors = (
{
name = bottom;
position = "{337, 0}";
},
{
name = ogonek;
position = "{425, 4}";
},
{
name = topUC;
position = "{329, 805}";
}
);
paths = (
{
closed = 1;
nodes = (
"337 -10 CURVE SMOOTH",
"553 -10 OFFCURVE",
"628 86 OFFCURVE",
"628 282 CURVE SMOOTH",
"628 739 LINE",
"433 739 LINE",
"433 295 LINE SMOOTH",
"433 188 OFFCURVE",
"410 153 OFFCURVE",
"337 153 CURVE SMOOTH",
"265 153 OFFCURVE",
"240 190 OFFCURVE",
"240 295 CURVE SMOOTH",
"240 739 LINE",
"45 739 LINE",
"45 282 LINE SMOOTH",
"45 88 OFFCURVE",
"121 -10 OFFCURVE"
);
}
);
};
layerId = "C8FFBC04-9D7C-494A-A42D-BACB8E26599D";
paths = (
{
closed = 1;
nodes = (
"553 -10 OFFCURVE",
"628 86 OFFCURVE",
"628 282 CURVE SMOOTH",
"628 739 LINE",
"433 739 LINE",
"433 295 LINE SMOOTH",
"433 188 OFFCURVE",
"410 153 OFFCURVE",
"337 153 CURVE SMOOTH",
"265 153 OFFCURVE",
"240 190 OFFCURVE",
"240 295 CURVE SMOOTH",
"240 739 LINE",
"45 739 LINE",
"45 282 LINE SMOOTH",
"45 88 OFFCURVE",
"121 -10 OFFCURVE",
"337 -10 CURVE SMOOTH"
);
}
);
width = 673;
},
{
anchors = (
{
name = bottom;
position = "{385, 0}";
},
{
name = ogonek;
position = "{487, 2}";
},
{
name = top;
position = "{385, 760}";
},
{
name = topright;
position = "{634, 740}";
}
);
background = {
paths = (
{
closed = 1;
nodes = (
"539 -9 OFFCURVE",
"671 69 OFFCURVE",
"671 236 CURVE SMOOTH",
"671 740 LINE",
"637 740 LINE",
"637 231 LINE SMOOTH",
"637 91 OFFCURVE",
"518 24 OFFCURVE",
"385 24 CURVE SMOOTH",
"252 24 OFFCURVE",
"133 91 OFFCURVE",
"133 231 CURVE SMOOTH",
"133 740 LINE",
"99 740 LINE",
"99 236 LINE SMOOTH",
"99 69 OFFCURVE",
"231 -9 OFFCURVE",
"385 -9 CURVE SMOOTH"
);
}
);
};
color = 4;
layerId = "E28BEEB5-BD92-4E7A-B4EA-FC5E5BBBF580";
paths = (
{
closed = 1;
nodes = (
"576 -9 OFFCURVE",
"668 77 OFFCURVE",
"668 283 CURVE SMOOTH",
"668 740 LINE",
"634 740 LINE",
"634 278 LINE SMOOTH",
"634 99 OFFCURVE",
"555 24 OFFCURVE",
"385 24 CURVE SMOOTH",
"215 24 OFFCURVE",
"136 99 OFFCURVE",
"136 278 CURVE SMOOTH",
"136 740 LINE",
"102 740 LINE",
"102 283 LINE SMOOTH",
"102 77 OFFCURVE",
"194 -9 OFFCURVE",
"385 -9 CURVE SMOOTH"
);
}
);
width = 770;
},
{
anchors = (
{
name = bottom;
position = "{438, -110}";
},
{
name = ogonek;
position = "{438, 54}";
},
{
name = top;
position = "{441, 885}";
}
);
background = {
anchors = (
{
name = bottom;
position = "{438, -110}";
},
{
name = ogonek;
position = "{438, 54}";
},
{
name = topUC;
position = "{441, 885}";
}
);
paths = (
{
closed = 1;
nodes = (
"440 -10 CURVE",
"732 -10 OFFCURVE",
"823 98 OFFCURVE",
"823 317 CURVE SMOOTH",
"823 743 LINE",
"588 743 LINE",
"588 303 LINE SMOOTH",
"588 227 OFFCURVE",
"544 174 OFFCURVE",
"440 174 CURVE SMOOTH",
"336 174 OFFCURVE",
"292 227 OFFCURVE",
"292 303 CURVE SMOOTH",
"292 743 LINE",
"57 743 LINE",
"57 317 LINE SMOOTH",
"57 98 OFFCURVE",
"147 -10 OFFCURVE"
);
}
);
};
layerId = "1E90A949-97C4-49F5-AA9A-AF35B6FD63CF";
paths = (
{
closed = 1;
nodes = (
"732 -10 OFFCURVE",
"823 98 OFFCURVE",
"823 317 CURVE SMOOTH",
"823 743 LINE",
"588 743 LINE",
"588 303 LINE SMOOTH",
"588 227 OFFCURVE",
"544 174 OFFCURVE",
"440 174 CURVE SMOOTH",
"336 174 OFFCURVE",
"292 227 OFFCURVE",
"292 303 CURVE SMOOTH",
"292 743 LINE",
"57 743 LINE",
"57 317 LINE SMOOTH",
"57 98 OFFCURVE",
"147 -10 OFFCURVE",
"440 -10 CURVE"
);
}
);
width = 880;
}
);
leftKerningGroup = KERN_U;
rightKerningGroup = KERN_U;
unicode = 0055;
userData = {
com.typemytype.robofont.layerData = {
};
};
},
{
color = 3;
glyphname = V;
lastChange = "2016-11-10 21:03:49 +0000";
layers = (
{
anchors = (
{
name = bottom;
position = "{275, 0}";
},
{
name = top;
position = "{275, 760}";
}
);
background = {
paths = (
{
closed = 1;
nodes = (
"253 0 LINE",
"295 0 LINE",
"534 740 LINE",
"499 740 LINE",
"313 165 LINE",
"276 44 LINE",
"272 44 LINE",
"235 165 LINE",
"49 740 LINE",
"14 740 LINE"
);
}
);
};
color = 4;
layerId = "ECFF4977-BDCC-4836-B4AC-1801CF0EB460";
paths = (
{
closed = 1;
nodes = (
"298 0 LINE",
"544 740 LINE",
"508 740 LINE",
"271 20 LINE",
"279 20 LINE",
"42 740 LINE",
"5 740 LINE",
"251 0 LINE"
);
}
);
width = 549;
},
{
background = {
paths = (
{
closed = 1;
nodes = (
"185 0 LINE",
"455 0 LINE",
"641 740 LINE",
"455 740 LINE",
"356 329 LINE",
"328 167 LINE",
"312 167 LINE",
"286 329 LINE",
"185 740 LINE",
"-5 740 LINE"
);
}
);
};
layerId = "C8FFBC04-9D7C-494A-A42D-BACB8E26599D";
paths = (
{
closed = 1;
nodes = (
"455 0 LINE",
"641 740 LINE",
"455 740 LINE",
"356 329 LINE",
"328 167 LINE",
"312 167 LINE",
"286 329 LINE",
"185 740 LINE",
"-5 740 LINE",
"185 0 LINE"
);
}
);
width = 638;
},
{
anchors = (
{
name = bottom;
position = "{345, 0}";
},
{
name = top;
position = "{345, 760}";
}
);
background = {
paths = (
{
closed = 1;
nodes = (
"320 0 LINE",
"369 0 LINE",
"668 740 LINE",
"631 740 LINE",
"403 177 LINE",
"345 36 LINE",
"343 36 LINE",
"285 177 LINE",
"58 740 LINE",
"21 740 LINE"
);
}
);
};
color = 4;
layerId = "E28BEEB5-BD92-4E7A-B4EA-FC5E5BBBF580";
paths = (
{
closed = 1;
nodes = (
"368 0 LINE",
"681 740 LINE",
"644 740 LINE",
"340 20 LINE",
"350 20 LINE",
"46 740 LINE",
"8 740 LINE",
"321 0 LINE"
);
}
);
width = 689;
},
{
background = {
paths = (
{
closed = 1;
nodes = (
"253 0 LINE",
"562 0 LINE",
"821 740 LINE",
"571 740 LINE",
"454 380 LINE",
"415 221 LINE",
"405 221 LINE",
"366 380 LINE",
"249 740 LINE",
"-6 740 LINE"
);
}
);
};
layerId = "1E90A949-97C4-49F5-AA9A-AF35B6FD63CF";
paths = (
{
closed = 1;
nodes = (
"562 0 LINE",
"821 740 LINE",
"571 740 LINE",
"454 380 LINE",
"415 221 LINE",
"405 221 LINE",
"366 380 LINE",
"249 740 LINE",
"-6 740 LINE",
"253 0 LINE"
);
}
);
width = 815;
}
);
unicode = 0056;
userData = {
com.typemytype.robofont.layerData = {
};
};
},
{
color = 3;
glyphname = W;
lastChange = "2016-11-10 21:04:13 +0000";
layers = (
{
anchors = (
{
name = bottom;
position = "{449, 0}";
},
{
name = top;
position = "{449, 760}";
}
);
background = {
anchors = (
{
name = topUC;
position = "{447, 760}";
}
);
paths = (
{
closed = 1;
nodes = (
"220 0 LINE",
"267 0 LINE",
"419 581 LINE",
"445 688 LINE",
"449 688 LINE",
"472 581 LINE",
"612 0 LINE",
"659 0 LINE",
"853 740 LINE",
"819 740 LINE",
"674 186 LINE",
"639 43 LINE",
"635 43 LINE",
"603 186 LINE",
"470 740 LINE",
"427 740 LINE",
"282 186 LINE",
"247 43 LINE",
"243 43 LINE",
"211 186 LINE",
"78 740 LINE",
"42 740 LINE"
);
}
);
};
color = 4;
layerId = "ECFF4977-BDCC-4836-B4AC-1801CF0EB460";
paths = (
{
closed = 1;
nodes = (
"647 20 LINE",
"655 20 LINE",
"472 740 LINE",
"425 740 LINE",
"242 20 LINE",
"250 20 LINE",
"69 740 LINE",
"33 740 LINE",
"222 0 LINE",
"269 0 LINE",
"452 715 LINE",
"445 715 LINE",
"627 0 LINE",
"674 0 LINE",
"863 740 LINE",
"828 740 LINE"
);
}
);
width = 896;
},
{
anchors = (
{
name = top;
position = "{474, 805}";
}
);
background = {
anchors = (
{
name = topUC;
position = "{474, 805}";
}
);
paths = (
{
closed = 1;
nodes = (
"163 0 LINE",
"390 0 LINE",
"463 331 LINE",
"472 464 LINE",
"484 464 LINE",
"493 331 LINE",
"566 0 LINE",
"792 0 LINE",
"955 740 LINE",
"746 740 LINE",
"686 318 LINE",
"680 235 LINE",
"668 235 LINE",
"658 318 LINE",
"574 740 LINE",
"388 740 LINE",
"303 318 LINE",
"293 235 LINE",
"281 235 LINE",
"275 318 LINE",
"215 740 LINE",
"0 740 LINE"
);
}
);
};
layerId = "C8FFBC04-9D7C-494A-A42D-BACB8E26599D";
paths = (
{
closed = 1;
nodes = (
"390 0 LINE",
"463 331 LINE",
"472 464 LINE",
"484 464 LINE",
"493 331 LINE",
"566 0 LINE",
"792 0 LINE",
"955 740 LINE",
"746 740 LINE",
"686 318 LINE",
"680 235 LINE",
"668 235 LINE",
"658 318 LINE",
"574 740 LINE",
"388 740 LINE",
"303 318 LINE",
"293 235 LINE",
"281 235 LINE",
"275 318 LINE",
"215 740 LINE",
"0 740 LINE",
"163 0 LINE"
);
}
);
width = 955;
},
{
anchors = (
{
name = bottom;
position = "{579, 0}";
},
{
name = top;
position = "{579, 760}";
}
);
background = {
anchors = (
{
name = topUC;
position = "{522, 760}";
}
);
paths = (
{
closed = 1;
nodes = (
"268 0 LINE",
"315 0 LINE",
"486 566 LINE",
"520 679 LINE",
"524 679 LINE",
"558 568 LINE",
"729 0 LINE",
"776 0 LINE",
"1000 740 LINE",
"965 740 LINE",
"799 193 LINE",
"754 44 LINE",
"750 44 LINE",
"705 193 LINE",
"540 740 LINE",
"504 740 LINE",
"338 193 LINE",
"293 44 LINE",
"289 44 LINE",
"244 193 LINE",
"79 740 LINE",
"44 740 LINE"
);
}
);
};
color = 4;
layerId = "E28BEEB5-BD92-4E7A-B4EA-FC5E5BBBF580";
paths = (
{
closed = 1;
nodes = (
"834 20 LINE",
"842 20 LINE",
"602 740 LINE",
"555 740 LINE",
"316 20 LINE",
"324 20 LINE",
"89 740 LINE",
"52 740 LINE",
"296 0 LINE",
"343 0 LINE",
"583 717 LINE",
"573 717 LINE",
"814 0 LINE",
"861 0 LINE",
"1104 740 LINE",
"1068 740 LINE"
);
}
);
width = 1156;
},
{
anchors = (
{
name = top;
position = "{602, 885}";
}
);
background = {
anchors = (
{
name = topUC;
position = "{602, 885}";
}
);
paths = (
{
closed = 1;
nodes = (
"184 0 LINE",
"502 0 LINE",
"566 265 LINE",
"592 473 LINE",
"603 473 LINE",
"629 265 LINE",
"693 0 LINE",
"1011 0 LINE",
"1187 740 LINE",
"936 740 LINE",
"868 351 LINE",
"851 212 LINE",
"836 212 LINE",
"810 351 LINE",
"714 740 LINE",
"481 740 LINE",
"385 351 LINE",
"359 212 LINE",
"344 212 LINE",
"327 351 LINE",
"259 740 LINE",
"8 740 LINE"
);
}
);
};
layerId = "1E90A949-97C4-49F5-AA9A-AF35B6FD63CF";
paths = (
{
closed = 1;
nodes = (
"502 0 LINE",
"566 265 LINE",
"592 473 LINE",
"603 473 LINE",
"629 265 LINE",
"693 0 LINE",
"1011 0 LINE",
"1187 740 LINE",
"936 740 LINE",
"868 351 LINE",
"851 212 LINE",
"836 212 LINE",
"810 351 LINE",
"714 740 LINE",
"481 740 LINE",
"385 351 LINE",
"359 212 LINE",
"344 212 LINE",
"327 351 LINE",
"259 740 LINE",
"8 740 LINE",
"184 0 LINE"
);
}
);
width = 1195;
}
);
leftKerningGroup = KERN_W;
rightKerningGroup = KERN_W;
unicode = 0057;
userData = {
com.typemytype.robofont.layerData = {
};
};
},
{
color = 3;
glyphname = X;
lastChange = "2016-11-10 21:04:31 +0000";
layers = (
{
anchors = (
{
name = bottom;
position = "{267, 0}";
},
{
name = top;
position = "{267, 760}";
}
);
background = {
paths = (
{
closed = 1;
nodes = (
"14 0 LINE",
"54 0 LINE",
"515 740 LINE",
"475 740 LINE"
);
},
{
closed = 1;
nodes = (
"19 740 LINE",
"479 0 LINE",
"520 0 LINE",
"59 740 LINE"
);
}
);
};
color = 4;
layerId = "ECFF4977-BDCC-4836-B4AC-1801CF0EB460";
paths = (
{
closed = 1;
nodes = (
"267 405 LINE",
"247 374 LINE",
"14 0 LINE",
"54 0 LINE",
"267 342 LINE",
"287 374 LINE",
"515 740 LINE",
"475 740 LINE"
);
},
{
closed = 1;
nodes = (
"19 740 LINE",
"247 374 LINE",
"267 342 LINE",
"479 0 LINE",
"520 0 LINE",
"287 374 LINE",
"267 405 LINE",
"59 740 LINE"
);
}
);
width = 534;
},
{
background = {
paths = (
{
closed = 1;
nodes = (
"-18 0 LINE",
"189 0 LINE",
"311 246 LINE",
"314 262 LINE",
"318 262 LINE",
"321 246 LINE",
"454 0 LINE",
"668 0 LINE",
"447 397 LINE",
"642 740 LINE",
"436 740 LINE",
"337 529 LINE",
"334 513 LINE",
"331 513 LINE",
"328 529 LINE",
"225 740 LINE",
"7 740 LINE",
"200 383 LINE"
);
}
);
};
layerId = "C8FFBC04-9D7C-494A-A42D-BACB8E26599D";
paths = (
{
closed = 1;
nodes = (
"189 0 LINE",
"311 246 LINE",
"314 262 LINE",
"318 262 LINE",
"321 246 LINE",
"454 0 LINE",
"668 0 LINE",
"447 397 LINE",
"642 740 LINE",
"436 740 LINE",
"337 529 LINE",
"334 513 LINE",
"331 513 LINE",
"328 529 LINE",
"225 740 LINE",
"7 740 LINE",
"200 383 LINE",
"-18 0 LINE"
);
}
);
width = 649;
},
{
anchors = (
{
name = bottom;
position = "{336, 0}";
},
{
name = top;
position = "{336, 760}";
}
);
background = {
paths = (
{
closed = 1;
nodes = (
"13 0 LINE",
"58 0 LINE",
"655 740 LINE",
"611 740 LINE"
);
},
{
closed = 1;
nodes = (
"18 740 LINE",
"614 0 LINE",
"660 0 LINE",
"64 740 LINE"
);
}
);
};
color = 4;
layerId = "E28BEEB5-BD92-4E7A-B4EA-FC5E5BBBF580";
paths = (
{
closed = 1;
nodes = (
"337 401 LINE",
"315 373 LINE",
"14 0 LINE",
"58 0 LINE",
"336 346 LINE",
"358 374 LINE",
"654 740 LINE",
"611 740 LINE"
);
},
{
closed = 1;
nodes = (
"19 740 LINE",
"315 373 LINE",
"336 346 LINE",
"614 0 LINE",
"659 0 LINE",
"358 374 LINE",
"337 401 LINE",
"64 740 LINE"
);
}
);
width = 672;
},
{
background = {
paths = (
{
closed = 1;
nodes = (
"-19 0 LINE",
"247 0 LINE",
"368 176 LINE",
"403 240 LINE",
"413 240 LINE",
"450 176 LINE",
"567 0 LINE",
"833 0 LINE",
"544 376 LINE",
"812 740 LINE",
"546 740 LINE",
"449 601 LINE",
"408 527 LINE",
"398 527 LINE",
"356 601 LINE",
"266 740 LINE",
"0 740 LINE",
"257 391 LINE"
);
}
);
};
layerId = "1E90A949-97C4-49F5-AA9A-AF35B6FD63CF";
paths = (
{
closed = 1;
nodes = (
"247 0 LINE",
"368 176 LINE",
"403 240 LINE",
"413 240 LINE",
"450 176 LINE",
"567 0 LINE",
"833 0 LINE",
"544 376 LINE",
"812 740 LINE",
"546 740 LINE",
"449 601 LINE",
"408 527 LINE",
"398 527 LINE",
"356 601 LINE",
"266 740 LINE",
"0 740 LINE",
"257 391 LINE",
"-19 0 LINE"
);
}
);
width = 811;
}
);
unicode = 0058;
userData = {
com.typemytype.robofont.layerData = {
};
};
},
{
color = 3;
glyphname = Y;
lastChange = "2016-11-10 21:04:59 +0000";
layers = (
{
anchors = (
{
name = bottom;
position = "{259, 0}";
},
{
name = top;
position = "{259, 760}";
},
{
name = topleft;
position = "{20, 740}";
}
);
background = {
paths = (
{
closed = 1;
nodes = (
"1069 740 LINE",
"852 392 LINE",
"866 392 LINE",
"650 740 LINE",
"611 740 LINE",
"850 356 LINE",
"842 384 LINE",
"842 0 LINE",
"876 0 LINE",
"876 384 LINE",
"868 356 LINE",
"1107 740 LINE"
);
},
{
closed = 1;
nodes = (
"534 740 LINE",
"250 358 LINE",
"270 358 LINE",
"-14 740 LINE",
"-58 740 LINE",
"252 326 LINE",
"242 353 LINE",
"242 0 LINE",
"276 0 LINE",
"276 353 LINE",
"266 326 LINE",
"576 740 LINE"
);
}
);
};
color = 4;
layerId = "ECFF4977-BDCC-4836-B4AC-1801CF0EB460";
paths = (
{
closed = 1;
nodes = (
"475 740 LINE",
"252 362 LINE",
"266 362 LINE",
"44 740 LINE",
"5 740 LINE",
"250 326 LINE",
"242 354 LINE",
"242 0 LINE",
"276 0 LINE",
"276 354 LINE",
"268 326 LINE",
"513 740 LINE"
);
}
);
width = 518;
},
{
anchors = (
{
name = top;
position = "{341, 805}";
}
);
background = {
anchors = (
{
name = topUC;
position = "{341, 805}";
}
);
paths = (
{
closed = 1;
nodes = (
"242 0 LINE",
"438 0 LINE",
"438 254 LINE",
"692 740 LINE",
"476 740 LINE",
"359 482 LINE",
"346 433 LINE",
"336 433 LINE",
"324 482 LINE",
"208 740 LINE",
"-13 740 LINE",
"242 254 LINE"
);
}
);
};
layerId = "C8FFBC04-9D7C-494A-A42D-BACB8E26599D";
paths = (
{
closed = 1;
nodes = (
"438 0 LINE",
"438 254 LINE",
"692 740 LINE",
"476 740 LINE",
"359 482 LINE",
"346 433 LINE",
"336 433 LINE",
"324 482 LINE",
"208 740 LINE",
"-13 740 LINE",
"242 254 LINE",
"242 0 LINE"
);
}
);
width = 680;
},
{
anchors = (
{
name = bottom;
position = "{323, 0}";
},
{
name = top;
position = "{323, 760}";
},
{
name = topleft;
position = "{20, 740}";
}
);
background = {
anchors = (
{
name = topUC;
position = "{295, 760}";
}
);
paths = (
{
closed = 1;
nodes = (
"278 0 LINE",
"312 0 LINE",
"312 257 LINE",
"589 740 LINE",
"550 740 LINE",
"328 353 LINE",
"297 295 LINE",
"293 295 LINE",
"262 353 LINE",
"40 740 LINE",
"1 740 LINE",
"278 257 LINE"
);
},
{
closed = 1;
nodes = (
"641 740 LINE",
"598 740 LINE",
"324 401 LINE",
"51 740 LINE",
"6 740 LINE",
"302 373 LINE",
"1 0 LINE",
"45 0 LINE",
"323 346 LINE",
"601 0 LINE",
"646 0 LINE",
"345 374 LINE"
);
}
);
};
color = 4;
layerId = "E28BEEB5-BD92-4E7A-B4EA-FC5E5BBBF580";
paths = (
{
closed = 1;
nodes = (
"598 740 LINE",
"314 358 LINE",
"334 358 LINE",
"50 740 LINE",
"6 740 LINE",
"316 326 LINE",
"306 353 LINE",
"306 0 LINE",
"340 0 LINE",
"340 353 LINE",
"330 326 LINE",
"640 740 LINE"
);
}
);
width = 646;
},
{
anchors = (
{
name = top;
position = "{393, 885}";
}
);
background = {
anchors = (
{
name = topUC;
position = "{393, 885}";
}
);
paths = (
{
closed = 1;
nodes = (
"280 0 LINE",
"515 0 LINE",
"515 231 LINE",
"803 740 LINE",
"550 740 LINE",
"438 523 LINE",
"400 430 LINE",
"390 430 LINE",
"352 523 LINE",
"240 740 LINE",
"-13 740 LINE",
"280 222 LINE"
);
}
);
};
layerId = "1E90A949-97C4-49F5-AA9A-AF35B6FD63CF";
paths = (
{
closed = 1;
nodes = (
"515 0 LINE",
"515 231 LINE",
"803 740 LINE",
"550 740 LINE",
"438 523 LINE",
"400 430 LINE",
"390 430 LINE",
"352 523 LINE",
"240 740 LINE",
"-13 740 LINE",
"280 222 LINE",
"280 0 LINE"
);
}
);
width = 792;
}
);
leftKerningGroup = KERN_Y;
rightKerningGroup = KERN_Y;
unicode = 0059;
userData = {
com.typemytype.robofont.layerData = {
};
};
},
{
color = 3;
glyphname = Z;
lastChange = "2016-11-10 14:27:24 +0000";
layers = (
{
anchors = (
{
name = bottom;
position = "{222, 0}";
},
{
name = top;
position = "{229, 760}";
}
);
background = {
anchors = (
{
name = bottom;
position = "{222, 0}";
},
{
name = topUC;
position = "{229, 760}";
}
);
paths = (
{
closed = 1;
nodes = (
"29 0 LINE",
"415 0 LINE",
"415 33 LINE",
"74 33 LINE",
"74 37 LINE",
"411 719 LINE",
"411 740 LINE",
"33 740 LINE",
"33 706 LINE",
"365 706 LINE",
"365 702 LINE",
"29 22 LINE"
);
}
);
};
color = 4;
layerId = "ECFF4977-BDCC-4836-B4AC-1801CF0EB460";
paths = (
{
closed = 1;
nodes = (
"417 0 LINE",
"417 32 LINE",
"57 32 LINE",
"65 19 LINE",
"412 720 LINE",
"412 740 LINE",
"33 740 LINE",
"33 708 LINE",
"383 708 LINE",
"375 721 LINE",
"28 20 LINE",
"28 0 LINE"
);
}
);
width = 446;
},
{
anchors = (
{
name = bottom;
position = "{282, 0}";
},
{
name = top;
position = "{286, 805}";
}
);
background = {
anchors = (
{
name = bottom;
position = "{282, 0}";
},
{
name = topUC;
position = "{286, 805}";
}
);
paths = (
{
closed = 1;
nodes = (
"23 0 LINE",
"540 0 LINE",
"540 163 LINE",
"236 163 LINE",
"236 173 LINE",
"522 559 LINE",
"522 740 LINE",
"40 740 LINE",
"40 577 LINE",
"309 577 LINE",
"309 566 LINE",
"23 180 LINE"
);
}
);
};
layerId = "C8FFBC04-9D7C-494A-A42D-BACB8E26599D";
paths = (
{
closed = 1;
nodes = (
"540 0 LINE",
"540 163 LINE",
"236 163 LINE",
"236 173 LINE",
"522 559 LINE",
"522 740 LINE",
"40 740 LINE",
"40 577 LINE",
"309 577 LINE",
"309 566 LINE",
"23 180 LINE",
"23 0 LINE"
);
}
);
width = 562;
},
{
anchors = (
{
name = bottom;
position = "{289, 0}";
},
{
name = top;
position = "{289, 760}";
}
);
background = {
paths = (
{
closed = 1;
nodes = (
"539 0 LINE",
"539 34 LINE",
"85 34 LINE",
"85 38 LINE",
"531 712 LINE",
"531 740 LINE",
"52 740 LINE",
"52 706 LINE",
"486 706 LINE",
"486 702 LINE",
"38 30 LINE",
"38 0 LINE"
);
}
);
};
color = 4;
layerId = "E28BEEB5-BD92-4E7A-B4EA-FC5E5BBBF580";
paths = (
{
closed = 1;
nodes = (
"543 0 LINE",
"543 32 LINE",
"70 32 LINE",
"76 20 LINE",
"536 720 LINE",
"536 740 LINE",
"42 740 LINE",
"42 708 LINE",
"501 708 LINE",
"495 720 LINE",
"35 20 LINE",
"35 0 LINE"
);
}
);
width = 579;
},
{
anchors = (
{
name = bottom;
position = "{363, -110}";
},
{
name = top;
position = "{366, 885}";
}
);
background = {
anchors = (
{
name = bottom;
position = "{363, -110}";
},
{
name = topUC;
position = "{366, 885}";
}
);
paths = (
{
closed = 1;
nodes = (
"32 0 LINE",
"704 0 LINE",
"704 176 LINE",
"322 176 LINE",
"322 186 LINE",
"683 586 LINE",
"683 740 LINE",
"47 740 LINE",
"47 564 LINE",
"392 564 LINE",
"392 554 LINE",
"32 160 LINE"
);
}
);
};
layerId = "1E90A949-97C4-49F5-AA9A-AF35B6FD63CF";
paths = (
{
closed = 1;
nodes = (
"704 0 LINE",
"704 176 LINE",
"322 176 LINE",
"322 186 LINE",
"683 586 LINE",
"683 740 LINE",
"47 740 LINE",
"47 564 LINE",
"392 564 LINE",
"392 554 LINE",
"32 160 LINE",
"32 0 LINE"
);
}
);
width = 733;
}
);
leftKerningGroup = KERN_Z_2ND;
rightKerningGroup = KERN_Z_1ST;
unicode = 005A;
userData = {
com.typemytype.robofont.layerData = {
};
};
},
{
color = 3;
glyphname = a;
lastChange = "2016-11-10 21:06:47 +0000";
layers = (
{
anchors = (
{
name = bottom;
position = "{211, 0}";
},
{
name = ogonek;
position = "{358, 0}";
},
{
name = top;
position = "{213, 600}";
}
);
background = {
paths = (
{
closed = 1;
nodes = (
"237 -8 OFFCURVE",
"286 15 OFFCURVE",
"319 61 CURVE",
"323 61 LINE",
"326 0 LINE",
"356 0 LINE",
"356 380 LINE SMOOTH",
"356 506 OFFCURVE",
"297 548 OFFCURVE",
"193 548 CURVE SMOOTH",
"154 548 OFFCURVE",
"103 540 OFFCURVE",
"67 526 CURVE",
"67 492 LINE",
"112 508 OFFCURVE",
"158 515 OFFCURVE",
"192 515 CURVE SMOOTH",
"275 515 OFFCURVE",
"322 486 OFFCURVE",
"322 381 CURVE SMOOTH",
"322 111 LINE",
"283 45 OFFCURVE",
"229 25 OFFCURVE",
"184 25 CURVE SMOOTH",
"116 25 OFFCURVE",
"77 60 OFFCURVE",
"77 137 CURVE SMOOTH",
"77 207 OFFCURVE",
"116 246 OFFCURVE",
"200 255 CURVE SMOOTH",
"345 271 LINE",
"340 304 LINE",
"201 288 LINE SMOOTH",
"93 276 OFFCURVE",
"40 225 OFFCURVE",
"40 133 CURVE SMOOTH",
"40 40 OFFCURVE",
"98 -8 OFFCURVE",
"181 -8 CURVE SMOOTH"
);
}
);
};
color = 4;
guideLines = (
{
angle = 90;
position = "{70, 165}";
}
);
layerId = "ECFF4977-BDCC-4836-B4AC-1801CF0EB460";
paths = (
{
closed = 1;
nodes = (
"239 -8 OFFCURVE",
"288 15 OFFCURVE",
"321 61 CURVE",
"325 61 LINE",
"328 0 LINE",
"358 0 LINE",
"358 380 LINE SMOOTH",
"358 506 OFFCURVE",
"299 548 OFFCURVE",
"194 548 CURVE SMOOTH",
"154 548 OFFCURVE",
"103 540 OFFCURVE",
"67 526 CURVE",
"67 492 LINE",
"112 508 OFFCURVE",
"158 515 OFFCURVE",
"193 515 CURVE SMOOTH",
"277 515 OFFCURVE",
"324 486 OFFCURVE",
"324 381 CURVE SMOOTH",
"324 111 LINE",
"285 45 OFFCURVE",
"231 25 OFFCURVE",
"185 25 CURVE SMOOTH",
"116 25 OFFCURVE",
"77 60 OFFCURVE",
"77 137 CURVE SMOOTH",
"77 207 OFFCURVE",
"116 246 OFFCURVE",
"203 255 CURVE SMOOTH",
"347 271 LINE",
"342 304 LINE",
"204 288 LINE SMOOTH",
"93 276 OFFCURVE",
"40 225 OFFCURVE",
"40 133 CURVE SMOOTH",
"40 40 OFFCURVE",
"98 -8 OFFCURVE",
"182 -8 CURVE SMOOTH"
);
}
);
width = 422;
},
{
anchors = (
{
name = ogonek;
position = "{489, 0}";
},
{
name = top;
position = "{268, 600}";
}
);
background = {
anchors = (
{
name = ogonek;
position = "{489, 0}";
},
{
name = top;
position = "{268, 600}";
}
);
paths = (
{
closed = 1;
nodes = (
"226 -5 OFFCURVE",
"279 22 OFFCURVE",
"309 65 CURVE",
"319 65 LINE",
"332 0 LINE",
"489 0 LINE",
"489 375 LINE SMOOTH",
"489 497 OFFCURVE",
"419 548 OFFCURVE",
"251 548 CURVE SMOOTH",
"198 548 OFFCURVE",
"136 542 OFFCURVE",
"59 530 CURVE",
"70 395 LINE",
"98 401 OFFCURVE",
"189 409 OFFCURVE",
"221 409 CURVE SMOOTH",
"290 409 OFFCURVE",
"299 398 OFFCURVE",
"299 321 CURVE SMOOTH",
"299 153 LINE",
"278 139 OFFCURVE",
"257 131 OFFCURVE",
"243 131 CURVE SMOOTH",
"217 131 OFFCURVE",
"202 149 OFFCURVE",
"202 179 CURVE SMOOTH",
"202 206 OFFCURVE",
"216 219 OFFCURVE",
"252 223 CURVE SMOOTH",
"331 231 LINE",
"322 340 LINE",
"210 333 LINE SMOOTH",
"80 325 OFFCURVE",
"14 267 OFFCURVE",
"14 162 CURVE SMOOTH",
"14 64 OFFCURVE",
"78 -5 OFFCURVE",
"170 -5 CURVE SMOOTH"
);
}
);
};
layerId = "C8FFBC04-9D7C-494A-A42D-BACB8E26599D";
paths = (
{
closed = 1;
nodes = (
"226 -5 OFFCURVE",
"279 22 OFFCURVE",
"309 65 CURVE",
"319 65 LINE",
"332 0 LINE",
"489 0 LINE",
"489 375 LINE SMOOTH",
"489 497 OFFCURVE",
"419 548 OFFCURVE",
"251 548 CURVE SMOOTH",
"198 548 OFFCURVE",
"136 542 OFFCURVE",
"59 530 CURVE",
"70 395 LINE",
"98 401 OFFCURVE",
"189 409 OFFCURVE",
"221 409 CURVE SMOOTH",
"290 409 OFFCURVE",
"299 398 OFFCURVE",
"299 321 CURVE SMOOTH",
"299 153 LINE",
"278 139 OFFCURVE",
"257 131 OFFCURVE",
"243 131 CURVE SMOOTH",
"217 131 OFFCURVE",
"202 149 OFFCURVE",
"202 179 CURVE SMOOTH",
"202 206 OFFCURVE",
"216 219 OFFCURVE",
"252 223 CURVE SMOOTH",
"331 231 LINE",
"322 340 LINE",
"210 333 LINE SMOOTH",
"80 325 OFFCURVE",
"14 267 OFFCURVE",
"14 162 CURVE SMOOTH",
"14 64 OFFCURVE",
"78 -5 OFFCURVE",
"170 -5 CURVE SMOOTH"
);
}
);
width = 527;
},
{
anchors = (
{
name = bottom;
position = "{276, 0}";
},
{
name = ogonek;
position = "{453, 0}";
},
{
name = top;
position = "{276, 600}";
}
);
background = {
paths = (
{
closed = 1;
nodes = (
"302 -8 OFFCURVE",
"372 23 OFFCURVE",
"414 65 CURVE",
"418 65 LINE",
"421 0 LINE",
"451 0 LINE",
"451 369 LINE SMOOTH",
"451 506 OFFCURVE",
"376 548 OFFCURVE",
"250 548 CURVE SMOOTH",
"196 548 OFFCURVE",
"135 539 OFFCURVE",
"87 524 CURVE",
"87 490 LINE",
"146 508 OFFCURVE",
"203 515 OFFCURVE",
"251 515 CURVE SMOOTH",
"356 515 OFFCURVE",
"417 486 OFFCURVE",
"417 368 CURVE SMOOTH",
"417 109 LINE",
"365 53 OFFCURVE",
"297 25 OFFCURVE",
"227 25 CURVE SMOOTH",
"135 25 OFFCURVE",
"93 67 OFFCURVE",
"93 136 CURVE SMOOTH",
"93 203 OFFCURVE",
"137 239 OFFCURVE",
"240 252 CURVE SMOOTH",
"433 277 LINE",
"438 310 LINE",
"240 285 LINE SMOOTH",
"112 269 OFFCURVE",
"56 222 OFFCURVE",
"56 134 CURVE SMOOTH",
"56 45 OFFCURVE",
"120 -8 OFFCURVE",
"227 -8 CURVE SMOOTH"
);
}
);
};
color = 4;
guideLines = (
{
angle = 90;
position = "{97, 165}";
}
);
layerId = "E28BEEB5-BD92-4E7A-B4EA-FC5E5BBBF580";
paths = (
{
closed = 1;
nodes = (
"304 -8 OFFCURVE",
"374 23 OFFCURVE",
"416 65 CURVE",
"420 65 LINE",
"423 0 LINE",
"453 0 LINE",
"453 369 LINE SMOOTH",
"453 506 OFFCURVE",
"378 548 OFFCURVE",
"251 548 CURVE SMOOTH",
"196 548 OFFCURVE",
"134 539 OFFCURVE",
"87 521 CURVE",
"87 487 LINE",
"146 508 OFFCURVE",
"205 515 OFFCURVE",
"252 515 CURVE SMOOTH",
"358 515 OFFCURVE",
"419 486 OFFCURVE",
"419 368 CURVE SMOOTH",
"419 109 LINE",
"367 53 OFFCURVE",
"299 25 OFFCURVE",
"228 25 CURVE SMOOTH",
"135 25 OFFCURVE",
"93 67 OFFCURVE",
"93 136 CURVE SMOOTH",
"93 203 OFFCURVE",
"137 239 OFFCURVE",
"241 252 CURVE SMOOTH",
"435 277 LINE",
"440 310 LINE",
"241 285 LINE SMOOTH",
"112 269 OFFCURVE",
"56 222 OFFCURVE",
"56 134 CURVE SMOOTH",
"56 45 OFFCURVE",
"120 -8 OFFCURVE",
"228 -8 CURVE SMOOTH"
);
}
);
width = 537;
},
{
anchors = (
{
name = ogonek;
position = "{505, 54}";
},
{
name = top;
position = "{311, 674}";
}
);
background = {
anchors = (
{
name = ogonek;
position = "{505, 54}";
},
{
name = top;
position = "{311, 674}";
}
);
paths = (
{
closed = 1;
nodes = (
"272 -5 OFFCURVE",
"338 20 OFFCURVE",
"383 65 CURVE",
"393 65 LINE",
"414 0 LINE",
"602 0 LINE",
"602 355 LINE SMOOTH",
"602 485 OFFCURVE",
"503 548 OFFCURVE",
"300 548 CURVE SMOOTH",
"227 548 OFFCURVE",
"139 540 OFFCURVE",
"59 526 CURVE",
"74 372 LINE",
"138 385 OFFCURVE",
"210 392 OFFCURVE",
"269 392 CURVE SMOOTH",
"352 392 OFFCURVE",
"372 379 OFFCURVE",
"372 325 CURVE SMOOTH",
"372 165 LINE",
"366 155 OFFCURVE",
"331 144 OFFCURVE",
"304 144 CURVE SMOOTH",
"274 144 OFFCURVE",
"262 156 OFFCURVE",
"262 185 CURVE SMOOTH",
"262 215 OFFCURVE",
"274 225 OFFCURVE",
"316 229 CURVE SMOOTH",
"403 237 LINE",
"395 342 LINE",
"238 332 LINE SMOOTH",
"94 323 OFFCURVE",
"28 268 OFFCURVE",
"28 156 CURVE SMOOTH",
"28 51 OFFCURVE",
"87 -5 OFFCURVE",
"198 -5 CURVE SMOOTH"
);
}
);
};
layerId = "1E90A949-97C4-49F5-AA9A-AF35B6FD63CF";
paths = (
{
closed = 1;
nodes = (
"272 -5 OFFCURVE",
"338 20 OFFCURVE",
"383 65 CURVE",
"393 65 LINE",
"414 0 LINE",
"602 0 LINE",
"602 355 LINE SMOOTH",
"602 485 OFFCURVE",
"503 548 OFFCURVE",
"300 548 CURVE SMOOTH",
"227 548 OFFCURVE",
"139 540 OFFCURVE",
"59 526 CURVE",
"74 372 LINE",
"138 385 OFFCURVE",
"210 392 OFFCURVE",
"269 392 CURVE SMOOTH",
"352 392 OFFCURVE",
"372 379 OFFCURVE",
"372 325 CURVE SMOOTH",
"372 165 LINE",
"366 155 OFFCURVE",
"331 144 OFFCURVE",
"304 144 CURVE SMOOTH",
"274 144 OFFCURVE",
"262 156 OFFCURVE",
"262 185 CURVE SMOOTH",
"262 215 OFFCURVE",
"274 225 OFFCURVE",
"316 229 CURVE SMOOTH",
"403 237 LINE",
"395 342 LINE",
"238 332 LINE SMOOTH",
"94 323 OFFCURVE",
"28 268 OFFCURVE",
"28 156 CURVE SMOOTH",
"28 51 OFFCURVE",
"87 -5 OFFCURVE",
"198 -5 CURVE SMOOTH"
);
}
);
width = 652;
}
);
leftKerningGroup = KERN_a_2ND;
rightKerningGroup = KERN_a_1ST;
rightMetricsKey = "=n-2";
unicode = 0061;
userData = {
com.typemytype.robofont.layerData = {
};
};
},
{
color = 3;
glyphname = ae;
lastChange = "2016-11-10 21:08:00 +0000";
layers = (
{
anchors = (
{
name = bottom;
position = "{341, 0}";
},
{
name = top;
position = "{341, 600}";
}
);
background = {
paths = (
{
closed = 1;
nodes = (
"239 -8 OFFCURVE",
"288 15 OFFCURVE",
"321 61 CURVE",
"325 61 LINE",
"328 0 LINE",
"358 0 LINE",
"358 380 LINE SMOOTH",
"358 506 OFFCURVE",
"299 548 OFFCURVE",
"194 548 CURVE SMOOTH",
"154 548 OFFCURVE",
"103 540 OFFCURVE",
"67 526 CURVE",
"67 492 LINE",
"112 508 OFFCURVE",
"158 515 OFFCURVE",
"193 515 CURVE SMOOTH",
"277 515 OFFCURVE",
"324 486 OFFCURVE",
"324 381 CURVE SMOOTH",
"324 111 LINE",
"285 45 OFFCURVE",
"231 25 OFFCURVE",
"185 25 CURVE SMOOTH",
"116 25 OFFCURVE",
"77 60 OFFCURVE",
"77 137 CURVE SMOOTH",
"77 207 OFFCURVE",
"116 246 OFFCURVE",
"203 255 CURVE SMOOTH",
"347 271 LINE",
"342 304 LINE",
"204 288 LINE SMOOTH",
"93 276 OFFCURVE",
"40 225 OFFCURVE",
"40 133 CURVE SMOOTH",
"40 40 OFFCURVE",
"98 -8 OFFCURVE",
"182 -8 CURVE SMOOTH"
);
},
{
closed = 1;
nodes = (
"561 -9 OFFCURVE",
"597 -4 OFFCURVE",
"640 11 CURVE",
"640 45 LINE",
"593 30 OFFCURVE",
"559 24 OFFCURVE",
"528 24 CURVE SMOOTH",
"415 24 OFFCURVE",
"358 81 OFFCURVE",
"358 272 CURVE SMOOTH",
"358 467 OFFCURVE",
"416 515 OFFCURVE",
"495 515 CURVE SMOOTH",
"574 515 OFFCURVE",
"628 467 OFFCURVE",
"628 270 CURVE",
"636 288 LINE",
"344 288 LINE",
"344 255 LINE",
"664 255 LINE",
"664 270 LINE SMOOTH",
"664 481 OFFCURVE",
"598 548 OFFCURVE",
"495 548 CURVE SMOOTH",
"394 548 OFFCURVE",
"322 481 OFFCURVE",
"322 270 CURVE SMOOTH",
"322 63 OFFCURVE",
"394 -9 OFFCURVE",
"526 -9 CURVE SMOOTH"
);
}
);
};
color = 4;
layerId = "ECFF4977-BDCC-4836-B4AC-1801CF0EB460";
paths = (
{
closed = 1;
nodes = (
"557 -9 OFFCURVE",
"593 -4 OFFCURVE",
"636 11 CURVE",
"636 45 LINE",
"589 30 OFFCURVE",
"555 24 OFFCURVE",
"526 24 CURVE SMOOTH",
"415 24 OFFCURVE",
"358 81 OFFCURVE",
"358 272 CURVE SMOOTH",
"358 467 OFFCURVE",
"416 516 OFFCURVE",
"493 516 CURVE SMOOTH",
"570 516 OFFCURVE",
"624 467 OFFCURVE",
"624 270 CURVE",
"632 288 LINE",
"344 288 LINE",
"344 255 LINE",
"660 255 LINE",
"660 270 LINE SMOOTH",
"660 481 OFFCURVE",
"594 549 OFFCURVE",
"493 549 CURVE SMOOTH",
"395 549 OFFCURVE",
"327 480 OFFCURVE",
"327 275 CURVE",
"324 270 LINE",
"324 63 OFFCURVE",
"394 -9 OFFCURVE",
"524 -9 CURVE SMOOTH"
);
},
{
closed = 1;
nodes = (
"249 -8 OFFCURVE",
"313 19 OFFCURVE",
"360 111 CURVE",
"340 143 LINE",
"304 53 OFFCURVE",
"244 25 OFFCURVE",
"186 25 CURVE SMOOTH",
"118 25 OFFCURVE",
"77 60 OFFCURVE",
"77 135 CURVE SMOOTH",
"77 205 OFFCURVE",
"114 255 OFFCURVE",
"219 255 CURVE SMOOTH",
"342 255 LINE",
"342 288 LINE",
"220 288 LINE SMOOTH",
"89 288 OFFCURVE",
"40 223 OFFCURVE",
"40 131 CURVE SMOOTH",
"40 40 OFFCURVE",
"100 -8 OFFCURVE",
"183 -8 CURVE SMOOTH"
);
},
{
closed = 1;
nodes = (
"355 380 LINE SMOOTH",
"355 506 OFFCURVE",
"298 548 OFFCURVE",
"194 548 CURVE SMOOTH",
"154 548 OFFCURVE",
"103 540 OFFCURVE",
"67 526 CURVE",
"67 492 LINE",
"112 508 OFFCURVE",
"158 515 OFFCURVE",
"193 515 CURVE SMOOTH",
"277 515 OFFCURVE",
"324 486 OFFCURVE",
"324 381 CURVE SMOOTH",
"324 270 LINE",
"355 265 LINE"
);
}
);
width = 700;
},
{
anchors = (
{
name = top;
position = "{411, 600}";
}
);
background = {
anchors = (
{
name = top;
position = "{411, 600}";
}
);
paths = (
{
closed = 1;
nodes = (
"555 -9 CURVE SMOOTH",
"617 -9 OFFCURVE",
"699 4 OFFCURVE",
"751 22 CURVE",
"746 159 LINE",
"668 142 OFFCURVE",
"602 132 OFFCURVE",
"567 132 CURVE SMOOTH",
"509 132 OFFCURVE",
"495 146 OFFCURVE",
"491 207 CURVE",
"763 207 LINE",
"767 229 OFFCURVE",
"768 244 OFFCURVE",
"768 285 CURVE SMOOTH",
"768 468 OFFCURVE",
"703 549 OFFCURVE",
"556 549 CURVE SMOOTH",
"489 549 OFFCURVE",
"436 532 OFFCURVE",
"398 498 CURVE",
"388 498 LINE",
"361 532 OFFCURVE",
"317 548 OFFCURVE",
"251 548 CURVE SMOOTH",
"198 548 OFFCURVE",
"136 542 OFFCURVE",
"59 530 CURVE",
"70 395 LINE",
"97 401 OFFCURVE",
"187 409 OFFCURVE",
"221 409 CURVE SMOOTH",
"283 409 OFFCURVE",
"296 399 OFFCURVE",
"299 351 CURVE SMOOTH",
"299 338 LINE",
"210 333 LINE SMOOTH",
"81 326 OFFCURVE",
"14 268 OFFCURVE",
"14 162 CURVE SMOOTH",
"14 64 OFFCURVE",
"78 -5 OFFCURVE",
"170 -5 CURVE SMOOTH",
"233 -5 OFFCURVE",
"302 23 OFFCURVE",
"366 76 CURVE",
"376 76 LINE",
"415 17 OFFCURVE",
"470 -9 OFFCURVE"
);
},
{
closed = 1;
nodes = (
"243 131 CURVE SMOOTH",
"217 131 OFFCURVE",
"202 149 OFFCURVE",
"202 179 CURVE SMOOTH",
"202 206 OFFCURVE",
"216 219 OFFCURVE",
"252 223 CURVE SMOOTH",
"299 228 LINE",
"299 153 LINE",
"280 140 OFFCURVE",
"258 131 OFFCURVE"
);
},
{
closed = 1;
nodes = (
"491 320 LINE",
"495 387 OFFCURVE",
"510 410 OFFCURVE",
"550 410 CURVE SMOOTH",
"587 410 OFFCURVE",
"600 387 OFFCURVE",
"602 320 CURVE"
);
}
);
};
layerId = "C8FFBC04-9D7C-494A-A42D-BACB8E26599D";
paths = (
{
closed = 1;
nodes = (
"617 -9 OFFCURVE",
"699 4 OFFCURVE",
"751 22 CURVE",
"746 159 LINE",
"668 142 OFFCURVE",
"602 132 OFFCURVE",
"567 132 CURVE SMOOTH",
"509 132 OFFCURVE",
"495 146 OFFCURVE",
"491 207 CURVE",
"763 207 LINE",
"767 229 OFFCURVE",
"768 244 OFFCURVE",
"768 285 CURVE SMOOTH",
"768 468 OFFCURVE",
"703 549 OFFCURVE",
"556 549 CURVE SMOOTH",
"489 549 OFFCURVE",
"436 532 OFFCURVE",
"398 498 CURVE",
"388 498 LINE",
"361 532 OFFCURVE",
"317 548 OFFCURVE",
"251 548 CURVE SMOOTH",
"198 548 OFFCURVE",
"136 542 OFFCURVE",
"59 530 CURVE",
"70 395 LINE",
"97 401 OFFCURVE",
"187 409 OFFCURVE",
"221 409 CURVE SMOOTH",
"283 409 OFFCURVE",
"296 399 OFFCURVE",
"299 351 CURVE SMOOTH",
"299 338 LINE",
"210 333 LINE SMOOTH",
"81 326 OFFCURVE",
"14 268 OFFCURVE",
"14 162 CURVE SMOOTH",
"14 64 OFFCURVE",
"78 -5 OFFCURVE",
"170 -5 CURVE SMOOTH",
"233 -5 OFFCURVE",
"302 23 OFFCURVE",
"366 76 CURVE",
"376 76 LINE",
"415 17 OFFCURVE",
"470 -9 OFFCURVE",
"555 -9 CURVE SMOOTH"
);
},
{
closed = 1;
nodes = (
"217 131 OFFCURVE",
"202 149 OFFCURVE",
"202 179 CURVE SMOOTH",
"202 206 OFFCURVE",
"216 219 OFFCURVE",
"252 223 CURVE SMOOTH",
"299 228 LINE",
"299 153 LINE",
"280 140 OFFCURVE",
"258 131 OFFCURVE",
"243 131 CURVE SMOOTH"
);
},
{
closed = 1;
nodes = (
"495 387 OFFCURVE",
"510 410 OFFCURVE",
"550 410 CURVE SMOOTH",
"587 410 OFFCURVE",
"600 387 OFFCURVE",
"602 320 CURVE",
"491 320 LINE"
);
}
);
width = 792;
},
{
anchors = (
{
name = bottom;
position = "{436, 0}";
},
{
name = top;
position = "{436, 600}";
}
);
background = {
paths = (
{
closed = 1;
nodes = (
"735 -9 OFFCURVE",
"785 0 OFFCURVE",
"840 18 CURVE",
"840 52 LINE",
"784 34 OFFCURVE",
"734 24 OFFCURVE",
"682 24 CURVE SMOOTH",
"534 24 OFFCURVE",
"453 96 OFFCURVE",
"453 272 CURVE SMOOTH",
"453 441 OFFCURVE",
"518 515 OFFCURVE",
"644 515 CURVE SMOOTH",
"770 515 OFFCURVE",
"831 441 OFFCURVE",
"831 268 CURVE",
"850 286 LINE",
"428 286 LINE",
"428 253 LINE",
"867 253 LINE",
"867 270 LINE SMOOTH",
"867 455 OFFCURVE",
"788 549 OFFCURVE",
"644 548 CURVE SMOOTH",
"500 547 OFFCURVE",
"417 456 OFFCURVE",
"417 270 CURVE SMOOTH",
"417 78 OFFCURVE",
"512 -9 OFFCURVE",
"680 -9 CURVE SMOOTH"
);
},
{
closed = 1;
nodes = (
"304 -8 OFFCURVE",
"374 23 OFFCURVE",
"416 65 CURVE",
"420 65 LINE",
"423 0 LINE",
"453 0 LINE",
"453 369 LINE SMOOTH",
"453 506 OFFCURVE",
"378 548 OFFCURVE",
"251 548 CURVE SMOOTH",
"196 548 OFFCURVE",
"134 539 OFFCURVE",
"87 521 CURVE",
"87 487 LINE",
"146 508 OFFCURVE",
"205 515 OFFCURVE",
"252 515 CURVE SMOOTH",
"358 515 OFFCURVE",
"419 486 OFFCURVE",
"419 368 CURVE SMOOTH",
"419 109 LINE",
"367 53 OFFCURVE",
"299 25 OFFCURVE",
"228 25 CURVE SMOOTH",
"135 25 OFFCURVE",
"93 67 OFFCURVE",
"93 136 CURVE SMOOTH",
"93 203 OFFCURVE",
"137 239 OFFCURVE",
"241 252 CURVE SMOOTH",
"435 277 LINE",
"440 310 LINE",
"241 285 LINE SMOOTH",
"112 269 OFFCURVE",
"56 222 OFFCURVE",
"56 134 CURVE SMOOTH",
"56 45 OFFCURVE",
"120 -8 OFFCURVE",
"228 -8 CURVE SMOOTH"
);
}
);
};
color = 4;
layerId = "E28BEEB5-BD92-4E7A-B4EA-FC5E5BBBF580";
paths = (
{
closed = 1;
nodes = (
"729 -9 OFFCURVE",
"780 0 OFFCURVE",
"834 18 CURVE",
"834 52 LINE",
"779 34 OFFCURVE",
"728 24 OFFCURVE",
"678 24 CURVE SMOOTH",
"534 24 OFFCURVE",
"453 96 OFFCURVE",
"453 272 CURVE SMOOTH",
"453 441 OFFCURVE",
"518 515 OFFCURVE",
"641 515 CURVE SMOOTH",
"764 515 OFFCURVE",
"825 441 OFFCURVE",
"825 268 CURVE",
"844 288 LINE",
"440 288 LINE",
"440 255 LINE",
"861 255 LINE",
"861 272 LINE SMOOTH",
"861 457 OFFCURVE",
"782 549 OFFCURVE",
"641 548 CURVE SMOOTH",
"502 547 OFFCURVE",
"422 458 OFFCURVE",
"422 276 CURVE",
"419 272 LINE",
"419 80 OFFCURVE",
"512 -9 OFFCURVE",
"676 -9 CURVE SMOOTH"
);
},
{
closed = 1;
nodes = (
"304 -8 OFFCURVE",
"382 16 OFFCURVE",
"463 107 CURVE",
"443 137 LINE",
"380 53 OFFCURVE",
"299 25 OFFCURVE",
"229 25 CURVE SMOOTH",
"137 25 OFFCURVE",
"93 67 OFFCURVE",
"93 137 CURVE SMOOTH",
"93 204 OFFCURVE",
"136 255 OFFCURVE",
"264 255 CURVE SMOOTH",
"431 255 LINE",
"431 288 LINE",
"268 288 LINE SMOOTH",
"114 288 OFFCURVE",
"56 223 OFFCURVE",
"56 135 CURVE SMOOTH",
"56 45 OFFCURVE",
"122 -8 OFFCURVE",
"229 -8 CURVE SMOOTH"
);
},
{
closed = 1;
nodes = (
"450 369 LINE SMOOTH",
"450 506 OFFCURVE",
"376 548 OFFCURVE",
"251 548 CURVE SMOOTH",
"196 548 OFFCURVE",
"134 539 OFFCURVE",
"87 521 CURVE",
"87 487 LINE",
"146 508 OFFCURVE",
"205 515 OFFCURVE",
"252 515 CURVE SMOOTH",
"358 515 OFFCURVE",
"419 486 OFFCURVE",
"419 368 CURVE SMOOTH",
"419 272 LINE",
"450 257 LINE"
);
}
);
width = 911;
},
{
anchors = (
{
name = top;
position = "{516, 674}";
}
);
background = {
anchors = (
{
name = top;
position = "{516, 674}";
}
);
paths = (
{
closed = 1;
nodes = (
"692 -16 CURVE SMOOTH",
"781 -16 OFFCURVE",
"873 -5 OFFCURVE",
"948 15 CURVE",
"943 174 LINE",
"897 163 OFFCURVE",
"790 154 OFFCURVE",
"713 154 CURVE SMOOTH",
"638 154 OFFCURVE",
"613 161 OFFCURVE",
"606 212 CURVE",
"959 212 LINE",
"968 238 OFFCURVE",
"972 270 OFFCURVE",
"972 309 CURVE SMOOTH",
"972 462 OFFCURVE",
"877 542 OFFCURVE",
"697 542 CURVE SMOOTH",
"623 542 OFFCURVE",
"564 528 OFFCURVE",
"517 502 CURVE",
"507 502 LINE",
"462 532 OFFCURVE",
"397 548 OFFCURVE",
"312 548 CURVE SMOOTH",
"224 548 OFFCURVE",
"142 541 OFFCURVE",
"59 526 CURVE",
"74 372 LINE",
"136 384 OFFCURVE",
"199 391 OFFCURVE",
"244 391 CURVE SMOOTH",
"346 391 OFFCURVE",
"372 386 OFFCURVE",
"372 345 CURVE SMOOTH",
"372 340 LINE",
"238 332 LINE SMOOTH",
"96 323 OFFCURVE",
"28 267 OFFCURVE",
"28 160 CURVE SMOOTH",
"28 54 OFFCURVE",
"86 -5 OFFCURVE",
"192 -5 CURVE SMOOTH",
"282 -5 OFFCURVE",
"368 19 OFFCURVE",
"450 69 CURVE",
"460 69 LINE",
"506 12 OFFCURVE",
"583 -16 OFFCURVE"
);
},
{
closed = 1;
nodes = (
"306 144 CURVE SMOOTH",
"273 144 OFFCURVE",
"262 155 OFFCURVE",
"262 187 CURVE SMOOTH",
"262 214 OFFCURVE",
"274 225 OFFCURVE",
"316 229 CURVE SMOOTH",
"372 234 LINE",
"372 165 LINE",
"366 155 OFFCURVE",
"332 144 OFFCURVE"
);
},
{
closed = 1;
nodes = (
"604 315 LINE",
"609 372 OFFCURVE",
"630 389 OFFCURVE",
"685 389 CURVE SMOOTH",
"746 389 OFFCURVE",
"769 368 OFFCURVE",
"771 315 CURVE"
);
}
);
};
layerId = "1E90A949-97C4-49F5-AA9A-AF35B6FD63CF";
paths = (
{
closed = 1;
nodes = (
"781 -16 OFFCURVE",
"873 -5 OFFCURVE",
"948 15 CURVE",
"943 174 LINE",
"897 163 OFFCURVE",
"790 154 OFFCURVE",
"713 154 CURVE SMOOTH",
"638 154 OFFCURVE",
"613 161 OFFCURVE",
"606 212 CURVE",
"959 212 LINE",
"968 238 OFFCURVE",
"972 270 OFFCURVE",
"972 309 CURVE SMOOTH",
"972 462 OFFCURVE",
"877 542 OFFCURVE",
"697 542 CURVE SMOOTH",
"623 542 OFFCURVE",
"564 528 OFFCURVE",
"517 502 CURVE",
"507 502 LINE",
"462 532 OFFCURVE",
"397 548 OFFCURVE",
"312 548 CURVE SMOOTH",
"224 548 OFFCURVE",
"142 541 OFFCURVE",
"59 526 CURVE",
"74 372 LINE",
"136 384 OFFCURVE",
"199 391 OFFCURVE",
"244 391 CURVE SMOOTH",
"346 391 OFFCURVE",
"372 386 OFFCURVE",
"372 345 CURVE SMOOTH",
"372 340 LINE",
"238 332 LINE SMOOTH",
"96 323 OFFCURVE",
"28 267 OFFCURVE",
"28 160 CURVE SMOOTH",
"28 54 OFFCURVE",
"86 -5 OFFCURVE",
"192 -5 CURVE SMOOTH",
"282 -5 OFFCURVE",
"368 19 OFFCURVE",
"450 69 CURVE",
"460 69 LINE",
"506 12 OFFCURVE",
"583 -16 OFFCURVE",
"692 -16 CURVE SMOOTH"
);
},
{
closed = 1;
nodes = (
"273 144 OFFCURVE",
"262 155 OFFCURVE",
"262 187 CURVE SMOOTH",
"262 214 OFFCURVE",
"274 225 OFFCURVE",
"316 229 CURVE SMOOTH",
"372 234 LINE",
"372 165 LINE",
"366 155 OFFCURVE",
"332 144 OFFCURVE",
"306 144 CURVE SMOOTH"
);
},
{
closed = 1;
nodes = (
"609 372 OFFCURVE",
"630 389 OFFCURVE",
"685 389 CURVE SMOOTH",
"746 389 OFFCURVE",
"769 368 OFFCURVE",
"771 315 CURVE",
"604 315 LINE"
);
}
);
width = 1003;
}
);
leftKerningGroup = KERN_a_2ND;
leftMetricsKey = a;
rightKerningGroup = KERN_e_1ST;
rightMetricsKey = e;
unicode = 00E6;
},
